<svg height="419.557" viewBox="0 0 420.826 314.667" width="561.102" xmlns="http://www.w3.org/2000/svg" xmlns:xlink="http://www.w3.org/1999/xlink"><defs><style>*{stroke-linecap:butt;stroke-linejoin:round}</style></defs><g id="figure_1"><path d="M0 314.667h420.826V0H0z" fill="none" id="patch_1"/><g id="axes_1"><path d="M50.144 277.111h357.12V11H50.144z" fill="none" id="patch_2"/><g id="matplotlib.axis_1"><g id="xtick_1"><path clip-path="url(#p640926b3eb)" d="M50.144 277.111V11" fill="none" stroke="#b0b0b0" stroke-linecap="square" stroke-width=".8" id="line2d_1"/><g id="line2d_2"><defs><path d="M0 0v3.5" id="m3436031b7a" stroke="#000" stroke-width=".8"/></defs><use x="50.144" xlink:href="#m3436031b7a" y="277.111" stroke="#000" stroke-width=".8"/></g><g id="text_1"><defs><path d="M31.781 66.406q-7.61 0-11.453-7.5Q16.5 51.422 16.5 36.375q0-14.984 3.828-22.484 3.844-7.5 11.453-7.5 7.672 0 11.5 7.5 3.844 7.5 3.844 22.484 0 15.047-3.844 22.531-3.828 7.5-11.5 7.5zm0 7.813q12.266 0 18.735-9.703 6.468-9.688 6.468-28.141 0-18.406-6.468-28.11-6.47-9.687-18.735-9.687-12.25 0-18.718 9.688-6.47 9.703-6.47 28.109 0 18.453 6.47 28.14Q19.53 74.22 31.78 74.22z" id="DejaVuSans-30"/></defs><use xlink:href="#DejaVuSans-30" transform="matrix(.1 0 0 -.1 46.962 291.71)"/></g></g><g id="xtick_2"><path clip-path="url(#p640926b3eb)" d="M101.16 277.111V11" fill="none" stroke="#b0b0b0" stroke-linecap="square" stroke-width=".8" id="line2d_3"/><use x="101.161" xlink:href="#m3436031b7a" y="277.111" stroke="#000" stroke-width=".8" id="line2d_4"/><g id="text_2"><defs><path d="M12.406 8.297h16.11v55.625l-17.532-3.516v8.985l17.438 3.515h9.86V8.296H54.39V0H12.406z" id="DejaVuSans-31"/></defs><g transform="matrix(.1 0 0 -.1 94.798 291.71)"><use xlink:href="#DejaVuSans-31"/><use x="63.623" xlink:href="#DejaVuSans-30"/></g></g></g><g id="xtick_3"><path clip-path="url(#p640926b3eb)" d="M152.178 277.111V11" fill="none" stroke="#b0b0b0" stroke-linecap="square" stroke-width=".8" id="line2d_5"/><use x="152.178" xlink:href="#m3436031b7a" y="277.111" stroke="#000" stroke-width=".8" id="line2d_6"/><g id="text_3"><defs><path d="M19.188 8.297h34.421V0H7.33v8.297q5.609 5.812 15.296 15.594 9.703 9.797 12.188 12.64 4.734 5.313 6.609 9 1.89 3.688 1.89 7.25 0 5.813-4.078 9.469-4.078 3.672-10.625 3.672-4.64 0-9.797-1.61-5.14-1.609-11-4.89v9.969Q13.767 71.78 18.938 73q5.188 1.219 9.485 1.219 11.328 0 18.062-5.672 6.735-5.656 6.735-15.125 0-4.5-1.688-8.531-1.672-4.016-6.125-9.485-1.218-1.422-7.765-8.187-6.532-6.766-18.453-18.922z" id="DejaVuSans-32"/></defs><g transform="matrix(.1 0 0 -.1 145.816 291.71)"><use xlink:href="#DejaVuSans-32"/><use x="63.623" xlink:href="#DejaVuSans-30"/></g></g></g><g id="xtick_4"><path clip-path="url(#p640926b3eb)" d="M203.195 277.111V11" fill="none" stroke="#b0b0b0" stroke-linecap="square" stroke-width=".8" id="line2d_7"/><use x="203.195" xlink:href="#m3436031b7a" y="277.111" stroke="#000" stroke-width=".8" id="line2d_8"/><g id="text_4"><defs><path d="M40.578 39.313Q47.656 37.797 51.625 33q3.984-4.781 3.984-11.813 0-10.78-7.422-16.703-7.421-5.906-21.093-5.906-4.578 0-9.438.906-4.86.907-10.031 2.72v9.515q4.094-2.39 8.969-3.61 4.89-1.218 10.218-1.218 9.266 0 14.125 3.656 4.86 3.656 4.86 10.64 0 6.454-4.516 10.079-4.515 3.64-12.562 3.64h-8.5v8.11h8.89q7.266 0 11.125 2.906 3.86 2.906 3.86 8.375 0 5.61-3.985 8.61-3.968 3.015-11.39 3.015-4.063 0-8.703-.89-4.641-.876-10.203-2.72v8.782q5.624 1.562 10.53 2.344 4.907.78 9.25.78 11.235 0 17.766-5.109 6.547-5.093 6.547-13.78 0-6.063-3.468-10.235-3.47-4.172-9.86-5.782z" id="DejaVuSans-33"/></defs><g transform="matrix(.1 0 0 -.1 196.833 291.71)"><use xlink:href="#DejaVuSans-33"/><use x="63.623" xlink:href="#DejaVuSans-30"/></g></g></g><g id="xtick_5"><path clip-path="url(#p640926b3eb)" d="M254.212 277.111V11" fill="none" stroke="#b0b0b0" stroke-linecap="square" stroke-width=".8" id="line2d_9"/><use x="254.212" xlink:href="#m3436031b7a" y="277.111" stroke="#000" stroke-width=".8" id="line2d_10"/><g id="text_5"><defs><path d="M37.797 64.313L12.89 25.39h24.906zm-2.594 8.593H47.61V25.391h10.407v-8.203H47.609V0h-9.812v17.188H4.89v9.515z" id="DejaVuSans-34"/></defs><g transform="matrix(.1 0 0 -.1 247.85 291.71)"><use xlink:href="#DejaVuSans-34"/><use x="63.623" xlink:href="#DejaVuSans-30"/></g></g></g><g id="xtick_6"><path clip-path="url(#p640926b3eb)" d="M305.23 277.111V11" fill="none" stroke="#b0b0b0" stroke-linecap="square" stroke-width=".8" id="line2d_11"/><use x="305.229" xlink:href="#m3436031b7a" y="277.111" stroke="#000" stroke-width=".8" id="line2d_12"/><g id="text_6"><defs><path d="M10.797 72.906h38.719v-8.312H19.828v-17.86q2.14.735 4.281 1.094 2.157.36 4.313.36 12.203 0 19.328-6.688 7.14-6.688 7.14-18.11 0-11.765-7.328-18.296-7.328-6.516-20.656-6.516-4.593 0-9.36.781-4.75.782-9.827 2.344v9.922q4.39-2.39 9.078-3.563 4.687-1.171 9.906-1.171 8.453 0 13.375 4.437 4.938 4.438 4.938 12.063 0 7.609-4.938 12.047-4.922 4.453-13.375 4.453-3.953 0-7.89-.875-3.922-.875-8.016-2.735z" id="DejaVuSans-35"/></defs><g transform="matrix(.1 0 0 -.1 298.867 291.71)"><use xlink:href="#DejaVuSans-35"/><use x="63.623" xlink:href="#DejaVuSans-30"/></g></g></g><g id="xtick_7"><path clip-path="url(#p640926b3eb)" d="M356.247 277.111V11" fill="none" stroke="#b0b0b0" stroke-linecap="square" stroke-width=".8" id="line2d_13"/><use x="356.247" xlink:href="#m3436031b7a" y="277.111" stroke="#000" stroke-width=".8" id="line2d_14"/><g id="text_7"><defs><path d="M33.016 40.375q-6.641 0-10.532-4.547-3.875-4.531-3.875-12.437 0-7.86 3.875-12.438 3.891-4.562 10.532-4.562 6.64 0 10.515 4.562 3.875 4.578 3.875 12.438 0 7.906-3.875 12.437-3.875 4.547-10.515 4.547zm19.578 30.922v-8.984q-3.719 1.75-7.5 2.671-3.782.938-7.5.938-9.766 0-14.922-6.594-5.14-6.594-5.875-19.922 2.875 4.25 7.219 6.516 4.359 2.266 9.578 2.266 10.984 0 17.36-6.672 6.374-6.657 6.374-18.125 0-11.235-6.64-18.032-6.641-6.78-17.672-6.78-12.657 0-19.344 9.687-6.688 9.703-6.688 28.109 0 17.281 8.204 27.563 8.203 10.28 22.015 10.28 3.719 0 7.5-.734t7.89-2.187z" id="DejaVuSans-36"/></defs><g transform="matrix(.1 0 0 -.1 349.884 291.71)"><use xlink:href="#DejaVuSans-36"/><use x="63.623" xlink:href="#DejaVuSans-30"/></g></g></g><g id="xtick_8"><path clip-path="url(#p640926b3eb)" d="M407.264 277.111V11" fill="none" stroke="#b0b0b0" stroke-linecap="square" stroke-width=".8" id="line2d_15"/><use x="407.264" xlink:href="#m3436031b7a" y="277.111" stroke="#000" stroke-width=".8" id="line2d_16"/><g id="text_8"><defs><path d="M8.203 72.906h46.875v-4.203L28.61 0H18.312L43.22 64.594H8.203z" id="DejaVuSans-37"/></defs><g transform="matrix(.1 0 0 -.1 400.901 291.71)"><use xlink:href="#DejaVuSans-37"/><use x="63.623" xlink:href="#DejaVuSans-30"/></g></g></g><g id="text_9"><defs><path d="M44.281 53.078v-8.5q-3.797 1.953-7.906 2.922-4.094.984-8.5.984-6.688 0-10.031-2.047-3.344-2.046-3.344-6.156 0-3.125 2.39-4.906 2.391-1.781 9.626-3.39l3.078-.688q9.562-2.047 13.593-5.781 4.032-3.735 4.032-10.422 0-7.625-6.032-12.078-6.03-4.438-16.578-4.438-4.39 0-9.156.86Q10.688.296 5.422 2v9.281q4.984-2.594 9.812-3.89 4.829-1.282 9.579-1.282 6.343 0 9.75 2.172 3.421 2.172 3.421 6.125 0 3.656-2.468 5.61-2.453 1.953-10.813 3.765l-3.125.735q-8.344 1.75-12.062 5.39-3.704 3.64-3.704 9.985 0 7.718 5.47 11.906Q16.75 56 26.811 56q4.97 0 9.36-.734 4.406-.72 8.11-2.188z" id="DejaVuSans-73"/><path d="M18.313 70.219V54.688h18.5v-6.985h-18.5V18.016q0-6.688 1.828-8.594 1.828-1.906 7.453-1.906h9.218V0h-9.218q-10.407 0-14.36 3.875-3.953 3.89-3.953 14.14v29.688H2.687v6.984h6.594V70.22z" id="DejaVuSans-74"/><path d="M56.203 29.594v-4.39H14.891q.593-9.282 5.593-14.142 5-4.859 13.938-4.859 5.172 0 10.031 1.266 4.86 1.265 9.656 3.812v-8.5Q49.266.734 44.187-.344 39.11-1.422 33.892-1.422q-13.094 0-20.735 7.61-7.64 7.625-7.64 20.625 0 13.421 7.25 21.296Q20.016 56 32.328 56q11.031 0 17.453-7.11 6.422-7.093 6.422-19.296zm-8.984 2.64q-.094 7.36-4.125 11.75-4.032 4.407-10.672 4.407-7.516 0-12.031-4.25-4.516-4.25-5.203-11.97z" id="DejaVuSans-65"/><path d="M18.11 8.203v-29H9.077v75.484h9.031v-8.296q2.844 4.875 7.157 7.234Q29.594 56 35.594 56q9.968 0 16.187-7.906 6.235-7.907 6.235-20.797T51.78 6.484q-6.218-7.906-16.187-7.906-6 0-10.328 2.375-4.313 2.375-7.157 7.25zm30.578 19.094q0 9.906-4.079 15.547-4.078 5.64-11.203 5.64-7.14 0-11.218-5.64-4.079-5.64-4.079-15.547 0-9.906 4.078-15.547 4.079-5.64 11.22-5.64 7.124 0 11.202 5.64t4.078 15.547z" id="DejaVuSans-70"/></defs><g transform="matrix(.1 0 0 -.1 217.888 305.388)"><use xlink:href="#DejaVuSans-73"/><use x="52.1" xlink:href="#DejaVuSans-74"/><use x="91.309" xlink:href="#DejaVuSans-65"/><use x="152.832" xlink:href="#DejaVuSans-70"/></g></g></g><g id="matplotlib.axis_2"><g id="ytick_1"><path clip-path="url(#p640926b3eb)" d="M50.144 277.111h357.12" fill="none" stroke="#b0b0b0" stroke-linecap="square" stroke-width=".8" id="line2d_17"/><g id="line2d_18"><defs><path d="M0 0h-3.5" id="m4436b1ce2b" stroke="#000" stroke-width=".8"/></defs><use x="50.144" xlink:href="#m4436b1ce2b" y="277.111" stroke="#000" stroke-width=".8"/></g><g id="text_10"><defs><path d="M10.688 12.406H21V0H10.687z" id="DejaVuSans-2e"/><path d="M10.984 1.516V10.5q3.72-1.766 7.516-2.688 3.813-.921 7.484-.921 9.766 0 14.907 6.562 5.156 6.563 5.89 19.953-2.828-4.203-7.187-6.453-4.344-2.25-9.61-2.25-10.937 0-17.312 6.61-6.375 6.625-6.375 18.109 0 11.219 6.64 18 6.641 6.797 17.672 6.797 12.657 0 19.313-9.703 6.672-9.688 6.672-28.141 0-17.234-8.188-27.516Q40.234-1.42 26.422-1.42q-3.719 0-7.531.734-3.797.734-7.907 2.203zM30.61 32.422q6.641 0 10.516 4.531 3.89 4.547 3.89 12.469 0 7.86-3.89 12.422-3.875 4.562-10.516 4.562-6.64 0-10.515-4.562-3.875-4.563-3.875-12.422 0-7.922 3.875-12.469 3.875-4.531 10.515-4.531z" id="DejaVuSans-39"/></defs><g transform="matrix(.1 0 0 -.1 20.878 280.91)"><use xlink:href="#DejaVuSans-30"/><use x="63.623" xlink:href="#DejaVuSans-2e"/><use x="95.41" xlink:href="#DejaVuSans-39"/><use x="159.033" xlink:href="#DejaVuSans-30"/></g></g></g><g id="ytick_2"><path clip-path="url(#p640926b3eb)" d="M50.144 223.889h357.12" fill="none" stroke="#b0b0b0" stroke-linecap="square" stroke-width=".8" id="line2d_19"/><use x="50.144" xlink:href="#m4436b1ce2b" y="223.889" stroke="#000" stroke-width=".8" id="line2d_20"/><g transform="matrix(.1 0 0 -.1 20.878 227.688)" id="text_11"><use xlink:href="#DejaVuSans-30"/><use x="63.623" xlink:href="#DejaVuSans-2e"/><use x="95.41" xlink:href="#DejaVuSans-39"/><use x="159.033" xlink:href="#DejaVuSans-32"/></g></g><g id="ytick_3"><path clip-path="url(#p640926b3eb)" d="M50.144 170.666h357.12" fill="none" stroke="#b0b0b0" stroke-linecap="square" stroke-width=".8" id="line2d_21"/><use x="50.144" xlink:href="#m4436b1ce2b" y="170.666" stroke="#000" stroke-width=".8" id="line2d_22"/><g transform="matrix(.1 0 0 -.1 20.878 174.466)" id="text_12"><use xlink:href="#DejaVuSans-30"/><use x="63.623" xlink:href="#DejaVuSans-2e"/><use x="95.41" xlink:href="#DejaVuSans-39"/><use x="159.033" xlink:href="#DejaVuSans-34"/></g></g><g id="ytick_4"><path clip-path="url(#p640926b3eb)" d="M50.144 117.444h357.12" fill="none" stroke="#b0b0b0" stroke-linecap="square" stroke-width=".8" id="line2d_23"/><use x="50.144" xlink:href="#m4436b1ce2b" y="117.444" stroke="#000" stroke-width=".8" id="line2d_24"/><g transform="matrix(.1 0 0 -.1 20.878 121.243)" id="text_13"><use xlink:href="#DejaVuSans-30"/><use x="63.623" xlink:href="#DejaVuSans-2e"/><use x="95.41" xlink:href="#DejaVuSans-39"/><use x="159.033" xlink:href="#DejaVuSans-36"/></g></g><g id="ytick_5"><path clip-path="url(#p640926b3eb)" d="M50.144 64.222h357.12" fill="none" stroke="#b0b0b0" stroke-linecap="square" stroke-width=".8" id="line2d_25"/><use x="50.144" xlink:href="#m4436b1ce2b" y="64.222" stroke="#000" stroke-width=".8" id="line2d_26"/><g id="text_14"><defs><path d="M31.781 34.625q-7.031 0-11.062-3.766-4.016-3.765-4.016-10.343 0-6.594 4.016-10.36Q24.75 6.391 31.78 6.391q7.032 0 11.078 3.78 4.063 3.798 4.063 10.345 0 6.578-4.031 10.343-4.016 3.766-11.11 3.766zm-9.86 4.188q-6.343 1.562-9.89 5.906Q8.5 49.079 8.5 55.329q0 8.733 6.219 13.812 6.234 5.078 17.062 5.078 10.89 0 17.094-5.078 6.203-5.079 6.203-13.813 0-6.25-3.547-10.61-3.531-4.343-9.828-5.906 7.125-1.656 11.094-6.5 3.984-4.828 3.984-11.796 0-10.61-6.468-16.282-6.47-5.656-18.532-5.656-12.047 0-18.531 5.656-6.469 5.672-6.469 16.282 0 6.968 4 11.797 4.016 4.843 11.14 6.5zM18.314 54.39q0-5.657 3.53-8.828 3.548-3.172 9.938-3.172 6.36 0 9.938 3.172 3.593 3.171 3.593 8.828 0 5.672-3.593 8.843-3.578 3.172-9.938 3.172-6.39 0-9.937-3.172-3.532-3.172-3.532-8.843z" id="DejaVuSans-38"/></defs><g transform="matrix(.1 0 0 -.1 20.878 68.02)"><use xlink:href="#DejaVuSans-30"/><use x="63.623" xlink:href="#DejaVuSans-2e"/><use x="95.41" xlink:href="#DejaVuSans-39"/><use x="159.033" xlink:href="#DejaVuSans-38"/></g></g></g><g id="ytick_6"><path clip-path="url(#p640926b3eb)" d="M50.144 11h357.12" fill="none" stroke="#b0b0b0" stroke-linecap="square" stroke-width=".8" id="line2d_27"/><use x="50.144" xlink:href="#m4436b1ce2b" y="10.999" stroke="#000" stroke-width=".8" id="line2d_28"/><g transform="matrix(.1 0 0 -.1 20.878 14.798)" id="text_15"><use xlink:href="#DejaVuSans-31"/><use x="63.623" xlink:href="#DejaVuSans-2e"/><use x="95.41" xlink:href="#DejaVuSans-30"/><use x="159.033" xlink:href="#DejaVuSans-30"/></g></g><g id="text_16"><defs><path d="M34.281 27.484q-10.89 0-15.093-2.484-4.204-2.484-4.204-8.5 0-4.781 3.157-7.594 3.156-2.797 8.562-2.797 7.485 0 12 5.297 4.516 5.297 4.516 14.078v2zm17.922 3.72V0H43.22v8.297Q40.14 3.328 35.547.953q-4.594-2.375-11.234-2.375-8.391 0-13.36 4.719Q6 8.016 6 15.922q0 9.219 6.172 13.906 6.187 4.688 18.437 4.688h12.61v.89q0 6.203-4.078 9.594-4.078 3.39-11.453 3.39-4.688 0-9.141-1.124-4.438-1.125-8.531-3.375v8.312q4.921 1.906 9.562 2.844 4.64.953 9.031.953 11.875 0 17.735-6.156 5.86-6.14 5.86-18.64z" id="DejaVuSans-61"/><path d="M2.984 54.688H12.5L29.594 8.797l17.093 45.89h9.516L35.687 0H23.485z" id="DejaVuSans-76"/><path d="M41.11 46.297q-1.516.875-3.297 1.281Q36.03 48 33.89 48q-7.625 0-11.703-4.953-4.079-4.953-4.079-14.234V0H9.08v54.688h9.03v-8.5q2.844 4.984 7.375 7.39Q30.031 56 36.531 56q.922 0 2.047-.125 1.125-.11 2.484-.36z" id="DejaVuSans-72"/><path d="M45.406 27.984q0 9.766-4.031 15.125-4.016 5.375-11.297 5.375-7.219 0-11.25-5.375-4.031-5.359-4.031-15.125 0-9.718 4.031-15.093t11.25-5.375q7.281 0 11.297 5.375 4.031 5.375 4.031 15.093zm8.985-21.203q0-13.953-6.203-20.765Q42-20.797 29.203-20.797q-4.734 0-8.937.703-4.203.703-8.157 2.172v8.735q3.954-2.141 7.813-3.157 3.86-1.031 7.86-1.031 8.843 0 13.234 4.61 4.39 4.609 4.39 13.937v4.453q-2.781-4.844-7.125-7.234Q33.938 0 27.875 0 17.828 0 11.672 7.656q-6.156 7.672-6.156 20.328 0 12.688 6.156 20.344Q17.828 56 27.875 56q6.063 0 10.406-2.39 4.344-2.391 7.125-7.22v8.297h8.985z" id="DejaVuSans-67"/><path d="M48.781 52.594v-8.407q-3.812 2.11-7.64 3.157-3.828 1.047-7.735 1.047-8.75 0-13.593-5.547-4.829-5.532-4.829-15.547 0-10.016 4.829-15.563 4.843-5.53 13.593-5.53 3.907 0 7.735 1.046 3.828 1.047 7.64 3.156V2.094Q45.016.344 40.984-.531q-4.015-.89-8.562-.89-12.36 0-19.64 7.765-7.266 7.765-7.266 20.953 0 13.375 7.343 21.031Q20.22 56 33.016 56q4.14 0 8.093-.86 3.953-.843 7.672-2.546z" id="DejaVuSans-63"/><path d="M9.422 75.984h8.984V0H9.422z" id="DejaVuSans-6c"/><path d="M14.797 27.297q0-9.906 4.078-15.547 4.078-5.64 11.203-5.64 7.125 0 11.219 5.64 4.11 5.64 4.11 15.547 0 9.906-4.11 15.547-4.094 5.64-11.219 5.64-7.125 0-11.203-5.64-4.078-5.64-4.078-15.547zm30.61-19.094Q42.577 3.328 38.25.953q-4.313-2.375-10.375-2.375-9.906 0-16.14 7.906-6.22 7.922-6.22 20.813 0 12.89 6.22 20.797Q17.968 56 27.874 56q6.063 0 10.375-2.375 4.328-2.36 7.156-7.234v8.297h8.985v-75.485h-8.985z" id="DejaVuSans-71"/><path d="M8.5 21.578v33.11h8.984V21.922q0-7.766 3.016-11.656 3.031-3.875 9.094-3.875 7.265 0 11.484 4.64 4.234 4.64 4.234 12.656v31h8.985V0h-8.984v8.406Q42.047 3.422 37.718 1q-4.313-2.422-10.032-2.422-9.421 0-14.312 5.86Q8.5 10.296 8.5 21.578zM31.11 56z" id="DejaVuSans-75"/><path d="M9.422 54.688h8.984V0H9.422zm0 21.296h8.984v-11.39H9.422z" id="DejaVuSans-69"/><path d="M32.172-5.078q-3.797-9.766-7.422-12.735-3.61-2.984-9.656-2.984H7.906v7.516h5.282q3.703 0 5.75 1.765Q21-9.766 23.483-3.219l1.61 4.094-22.11 53.813H12.5l17.094-42.766 17.093 42.766h9.516z" id="DejaVuSans-79"/></defs><g transform="matrix(0 -.1 -.1 0 14.798 193.412)"><use xlink:href="#DejaVuSans-61"/><use x="61.279" xlink:href="#DejaVuSans-76"/><use x="120.459" xlink:href="#DejaVuSans-65"/><use x="181.982" xlink:href="#DejaVuSans-72"/><use x="223.096" xlink:href="#DejaVuSans-61"/><use x="284.375" xlink:href="#DejaVuSans-67"/><use x="347.852" xlink:href="#DejaVuSans-65"/><use x="409.375" xlink:href="#DejaVuSans-20"/><use x="441.162" xlink:href="#DejaVuSans-63"/><use x="496.143" xlink:href="#DejaVuSans-65"/><use x="557.666" xlink:href="#DejaVuSans-6c"/><use x="585.449" xlink:href="#DejaVuSans-6c"/><use x="613.232" xlink:href="#DejaVuSans-20"/><use x="645.02" xlink:href="#DejaVuSans-71"/><use x="708.496" xlink:href="#DejaVuSans-75"/><use x="771.875" xlink:href="#DejaVuSans-61"/><use x="833.154" xlink:href="#DejaVuSans-6c"/><use x="860.938" xlink:href="#DejaVuSans-69"/><use x="888.721" xlink:href="#DejaVuSans-74"/><use x="927.93" xlink:href="#DejaVuSans-79"/></g></g></g><path clip-path="url(#p640926b3eb)" d="M71.738 315.667l3.914-22.446 5.102-20.217 5.102-16.654 5.101-11.906 5.102-9.495 5.102-7.991 5.102-6.167 5.101-5.711 5.102-5.267 5.102-5.068 5.101-4.6 5.102-4.559 5.102-4.208 5.102-3.704 5.101-3.513 5.102-3.009 5.102-2.494 5.101-2.79 5.102-2.787 5.102-2.712 5.102-2.66 5.101-3.315 5.102-3.134 5.102-3.114 5.101-3.276 5.102-3.048 5.102-2.706 5.102-2.558 5.101-2.404 5.102-2.152 5.102-2.027 5.101-2.287 5.102-2.006 5.102-1.688 5.102-1.413 5.101-1.226 5.102-1.047 5.102-1.215 5.101-1.004 5.102-1.025 5.102-1.101 5.102-.906 5.101-.777 5.102-.784 5.102-.792 5.101-.977 5.102-1.193 5.102-1.048 5.102-1.041 5.101-.982 5.102-.943 5.102-.87 5.101-.879 5.102-.845 5.102-.729 5.102-.715 5.101-.936 5.102-.847 5.102-.757 5.101-.664 5.102-.57 5.102-.473 5.102-.378 5.101-.493 5.102-.448 5.102-.465" fill="none" stroke="#1f77b4" stroke-linecap="square" stroke-width="1.5" id="line2d_29"/><path clip-path="url(#p640926b3eb)" d="M74.617 315.667l1.035-12.016 5.102-36.323 5.102-27.485 5.101-11.17 5.102-13.37 5.102-5.197 5.102-2.884 5.101-5.337 5.102-4.979 5.102-2.01 5.101-1.089 5.102-.741 5.102-1.786 5.102-2.923 5.101-4.244 5.102-3.889 5.102-6.428 5.101-1.359 5.102-3.935 5.102-2.892 5.102-.512 5.101-.004 5.102.457 5.102.703 5.101.068 5.102.136 5.102.438 5.102.457 5.101.261 5.102.214 5.102.147 5.101.142 5.102.067 5.102-.027 5.102-.045 5.101-.049 5.102-.043 5.102-.014 5.101.004 5.102.001 5.102-.002 5.102-.007 5.101-.006 5.102.005 5.102.007 5.101.003 5.102.004 5.102.003 5.102.005 5.101.004h5.102l5.102.002H407.264" fill="none" stroke="#ff7f0e" stroke-linecap="square" stroke-width="1.5" id="line2d_30"/><path clip-path="url(#p640926b3eb)" d="M64.766 315.667l.683-6.249 5.102-38.567 5.101-18.336 5.102-11.702 5.102-8.022 5.101-3.286 5.102-5.279 5.102-6.95 5.102-5.536 5.101-2.136 5.102-1.27 5.102-3.606 5.101-1.208 5.102-5.82 5.102-1.372 5.102-.654 5.101-.454 5.102-.36 5.102-.302 5.101-1.415 5.102-.684 5.102-.444 5.102-.323 5.101-.247 5.102-.195 5.102-.157 5.101-.13 5.102-.108 5.102-.124 5.102-2.251 5.101-4.031 5.102-.753 5.102-.234 5.101-.112 5.102-.077 5.102-.068 5.102-.064 5.101-.062 5.102-.06 5.102-.056 5.101-.053 5.102-.048 5.102-.045 5.102-.04 5.101-.038 5.102-.033 5.102-.03 5.101-.027 5.102-.025 5.102-.022 5.102-.02 5.101-.016 5.102-.016 5.102-.014 5.101-.012 5.102-.01 5.102-.01 5.102-.008 5.101-.007 5.102-.006 5.102-.005 5.101-.004 5.102-.003 5.102-.003 5.102-.002 5.101-.001 5.102-.001h5.102" fill="none" stroke="#2ca02c" stroke-linecap="square" stroke-width="1.5" id="line2d_31"/><path clip-path="url(#p640926b3eb)" d="M59.377 315.667l.97-33.687 5.102-35.253 5.102-13.13 5.101-17.382 5.102-1.381 5.102-2.624 5.101-9.819 5.102-2.948 5.102-.35 5.102-3.07 5.101-.394 5.102-3.48 5.102-.59 5.101-.067 5.102.01 5.102.048 5.102.06 5.101.07 5.102.071 5.102.074 5.101.073 5.102.073 5.102.071 5.102.069 5.101.066 5.102.064 5.102.06 5.101.058 5.102.055 5.102.052 5.102.049 5.101.046 5.102.043 5.102.04 5.101.038 5.102.036 5.102.033 5.102.031 5.101.03 5.102.026 5.102.025 5.101.023 5.102.022 5.102.02 5.102.019 5.101.017 5.102.016 5.102.015 5.101.014 5.102.013 5.102.012 5.102.01 5.101.01 5.102.01 5.102.009 5.101.008 5.102.007 5.102.007 5.102.007 5.101.005 5.102.006 5.102.005 5.101.005 5.102.004 5.102.004 5.102.003 5.101.004 5.102.003 5.102.003" fill="none" stroke="#d62728" stroke-linecap="square" stroke-width="1.5" id="line2d_32"/><path clip-path="url(#p640926b3eb)" d="M60.725 315.667l4.724-61.23 5.102-21.594 5.101-9.362 5.102-9.977 5.102-1.398 5.101-1.187 5.102-.155 5.102-.322 5.102.06 5.101-.084 5.102.097 5.102.001 5.101.096 5.102.039 5.102.089 5.102.056 5.101.082 5.102.063 5.102.077 5.101.066 5.102.072 5.102.065 5.102.068 5.101.063 5.102.064 5.102.06 5.101.06 5.102.058 5.102.057 5.102.054 5.101.053 5.102.05 5.102.05 5.101.048 5.102.047 5.102.045 5.102.044 5.101.042 5.102.041 5.102.04 5.101.039 5.102.037 5.102.037 5.102.035 5.101.035 5.102.033 5.102.033 5.101.032 5.102.03 5.102.03 5.102.03 5.101.028 5.102.028 5.102.027 5.101.026 5.102.026 5.102.025 5.102.024 5.101.024 5.102.023 5.102.023 5.101.022 5.102.021 5.102.021 5.102.02 5.101.02 5.102.02 5.102.019" fill="none" stroke="#9467bd" stroke-linecap="square" stroke-width="1.5" id="line2d_33"/><path d="M50.144 277.111V11" fill="none" stroke="#000" stroke-linecap="square" stroke-width=".8" id="patch_3"/><path d="M407.264 277.111V11" fill="none" stroke="#000" stroke-linecap="square" stroke-width=".8" id="patch_4"/><path d="M50.144 277.111h357.12" fill="none" stroke="#000" stroke-linecap="square" stroke-width=".8" id="patch_5"/><path d="M50.144 11h357.12" fill="none" stroke="#000" stroke-linecap="square" stroke-width=".8" id="patch_6"/><g id="legend_1"><path d="M335.812 92.39h64.452q2 0 2-2V18q0-2-2-2h-64.452q-2 0-2 2v72.39q0 2 2 2z" fill="#fff" opacity=".8" stroke="#ccc" id="patch_7"/><path d="M337.812 24.098h20" fill="none" stroke="#1f77b4" stroke-linecap="square" stroke-width="1.5" id="line2d_34"/><g id="text_17"><defs><path d="M30.61 48.39q-7.22 0-11.422-5.64-4.204-5.64-4.204-15.453 0-9.813 4.172-15.453 4.188-5.64 11.453-5.64 7.188 0 11.375 5.655 4.203 5.672 4.203 15.438 0 9.719-4.203 15.406-4.187 5.688-11.375 5.688zm0 7.61q11.718 0 18.406-7.625 6.703-7.61 6.703-21.078 0-13.422-6.703-21.078-6.688-7.64-18.407-7.64-11.765 0-18.437 7.64-6.656 7.656-6.656 21.078 0 13.469 6.656 21.078Q18.844 56 30.609 56z" id="DejaVuSans-6f"/><path d="M45.406 46.39v29.594h8.985V0h-8.985v8.203Q42.578 3.328 38.25.953q-4.313-2.375-10.375-2.375-9.906 0-16.14 7.906-6.22 7.922-6.22 20.813 0 12.89 6.22 20.797Q17.968 56 27.874 56q6.063 0 10.375-2.375 4.328-2.36 7.156-7.234zm-30.61-19.093q0-9.906 4.079-15.547 4.078-5.64 11.203-5.64 7.125 0 11.219 5.64 4.11 5.64 4.11 15.547 0 9.906-4.11 15.547-4.094 5.64-11.219 5.64-7.125 0-11.203-5.64-4.078-5.64-4.078-15.547z" id="DejaVuSans-64"/></defs><g transform="matrix(.1 0 0 -.1 365.812 27.598)"><use xlink:href="#DejaVuSans-6c"/><use x="27.783" xlink:href="#DejaVuSans-6c"/><use x="55.566" xlink:href="#DejaVuSans-6f"/><use x="116.748" xlink:href="#DejaVuSans-79"/><use x="175.928" xlink:href="#DejaVuSans-64"/></g></g><path d="M337.812 38.776h20" fill="none" stroke="#ff7f0e" stroke-linecap="square" stroke-width="1.5" id="line2d_36"/><g id="text_18"><defs><path d="M4.89 31.39h26.313v-8H4.891z" id="DejaVuSans-2d"/><path d="M54.89 33.016V0h-8.984v32.719q0 7.765-3.031 11.61-3.031 3.858-9.078 3.858-7.281 0-11.484-4.64-4.204-4.625-4.204-12.64V0H9.08v54.688h9.03v-8.5q3.235 4.937 7.594 7.374Q30.078 56 35.797 56q9.422 0 14.25-5.828 4.844-5.828 4.844-17.156z" id="DejaVuSans-6e"/></defs><g transform="matrix(.1 0 0 -.1 365.812 42.276)"><use xlink:href="#DejaVuSans-6f"/><use x="61.182" xlink:href="#DejaVuSans-64"/><use x="124.658" xlink:href="#DejaVuSans-74"/><use x="163.867" xlink:href="#DejaVuSans-2d"/><use x="199.951" xlink:href="#DejaVuSans-6e"/><use x="263.33" xlink:href="#DejaVuSans-6f"/></g></g><path d="M337.812 53.454h20" fill="none" stroke="#2ca02c" stroke-linecap="square" stroke-width="1.5" id="line2d_38"/><g id="text_19"><defs><path d="M37.11 75.984V68.5h-8.594q-4.828 0-6.72-1.953-1.874-1.953-1.874-7.031v-4.828h14.797v-6.985H19.922V0H10.89v47.703H2.297v6.984h8.594V58.5q0 9.125 4.25 13.297 4.25 4.187 13.468 4.187z" id="DejaVuSans-66"/></defs><g transform="matrix(.1 0 0 -.1 365.812 56.954)"><use xlink:href="#DejaVuSans-6f"/><use x="61.182" xlink:href="#DejaVuSans-64"/><use x="124.658" xlink:href="#DejaVuSans-74"/><use x="163.867" xlink:href="#DejaVuSans-2d"/><use x="199.951" xlink:href="#DejaVuSans-66"/><use x="235.156" xlink:href="#DejaVuSans-70"/></g></g><path d="M337.812 68.132h20" fill="none" stroke="#d62728" stroke-linecap="square" stroke-width="1.5" id="line2d_40"/><g transform="matrix(.1 0 0 -.1 365.812 71.632)" id="text_20"><use xlink:href="#DejaVuSans-63"/><use x="54.98" xlink:href="#DejaVuSans-70"/><use x="118.457" xlink:href="#DejaVuSans-74"/><use x="157.666" xlink:href="#DejaVuSans-2d"/><use x="193.75" xlink:href="#DejaVuSans-71"/><use x="257.227" xlink:href="#DejaVuSans-6e"/></g><path d="M337.812 82.81h20" fill="none" stroke="#9467bd" stroke-linecap="square" stroke-width="1.5" id="line2d_42"/><g transform="matrix(.1 0 0 -.1 365.812 86.31)" id="text_21"><use xlink:href="#DejaVuSans-63"/><use x="54.98" xlink:href="#DejaVuSans-70"/><use x="118.457" xlink:href="#DejaVuSans-74"/><use x="157.666" xlink:href="#DejaVuSans-2d"/><use x="193.75" xlink:href="#DejaVuSans-66"/><use x="228.955" xlink:href="#DejaVuSans-70"/></g></g></g></g><defs><clipPath id="p640926b3eb"><path d="M50.144 10.999h357.12v266.112H50.144z"/></clipPath></defs></svg>