<svg height="476.609" viewBox="0 0 539.998 357.457" width="719.997" xmlns="http://www.w3.org/2000/svg" xmlns:xlink="http://www.w3.org/1999/xlink"><defs><style>*{stroke-linecap:butt;stroke-linejoin:round}</style></defs><g id="figure_1"><path d="M0 357.457h539.998V0H0z" fill="none" id="patch_1"/><g id="axes_1"><path d="M41.445 313.361h357.12V47.25H41.445z" fill="none" id="patch_2"/><path clip-path="url(#pe03c730bec)" d="m45.486 358.457 3.102-43.07 7.142-22.555 7.143-14.081 7.142-4.656 7.142-2.75 7.143-6.58 7.142-14.221 7.143-3.356 7.142-.95 7.142-.324 7.143-.3 7.142-.16 7.143-.14 7.142-.09 7.142-.08 7.143-.057 7.142-.05 7.143-.04 7.142-.035 7.142-.03 7.143-.027 7.142-.025 7.143-.022 7.142-.02 7.142-.02 7.143-.018 7.142-.016 7.143-.016 7.142-.015 7.142-.014 7.143-.014 7.142-.013 7.143-.012 7.142-.012 7.142-.01 7.143-.012 7.142-.01 7.143-.01 7.142-.009 7.142-.008 7.143-.009 7.142-.008 7.143-.007 7.142-.008 7.142-.007 7.143-.006 7.142-.007 7.143-.006 7.142-.006 7.142-.005" fill="none" stroke="#7f7f7f" stroke-linecap="square" stroke-width="1.5" id="line2d_1"/><path clip-path="url(#pe03c730bec)" d="m45.384 358.457 3.204-45.62 7.142-24.656 7.143-12.784 7.142-9.547 7.142-3.68 7.143-2.125 7.142-12.347 7.143-2.745 7.142-.123 7.142-.075 7.143-.053 7.142-.044 7.143-.034 7.142-.027 7.142-.022 7.143-.019 7.142-.015 7.143-.013 7.142-.011 7.142-.01 7.143-.008 7.142-.007 7.143-.007 7.142-.005 7.142-.005 7.143-.005 7.142-.004 7.143-.003 7.142-.003 7.142-.003 7.143-.003 7.142-.002 7.143-.002 7.142-.002 7.142-.001 7.143-.002 7.142-.001 7.143-.001 7.142-.001 7.142-.001 7.143-.001 7.142-.001h7.143l7.142-.001h7.142l7.143-.001h7.142l7.143-.001h14.284" fill="none" stroke="#e377c2" stroke-linecap="square" stroke-width="1.5" id="line2d_2"/><g id="matplotlib.axis_1"><g id="xtick_1"><g id="line2d_3"><defs><path d="M0 0v3.5" id="m9ad4828419" stroke="#969696" stroke-width=".4"/></defs><use x="41.445" xlink:href="#m9ad4828419" y="313.361" fill="#969696" stroke="#969696" stroke-width=".4"/></g><g transform="matrix(.14 0 0 -.14 37.553 330.41)" fill="#969696" id="text_1"><defs><path d="M42.484 34.188q0 14.109-3.734 21.156-3.734 7.062-10.969 7.062-7.078 0-10.89-7.062-3.797-7.047-3.797-21.157 0-13.671 3.75-20.937Q20.609 6 27.78 6q7.235 0 10.969 7 3.734 7.016 3.734 21.188zm9.422 0q0-17.297-6.25-26.704-6.25-9.39-17.875-9.39-12.062 0-18.062 9.734-6 9.75-6 26.36 0 17.03 6.14 26.578 6.157 9.547 17.922 9.547 11.625 0 17.875-9.5t6.25-26.626z" id="HelveticaWorld-Regular-48"/></defs><use xlink:href="#HelveticaWorld-Regular-48"/></g></g><g id="xtick_2"><use x="112.869" xlink:href="#m9ad4828419" y="313.361" fill="#969696" stroke="#969696" stroke-width=".4" id="line2d_4"/><g transform="matrix(.14 0 0 -.14 105.084 330.41)" fill="#969696" id="text_2"><defs><path d="M35.89 0h-9.374v49.906H10.109v6.985q8.594.28 12.782 2.75Q27.094 62.109 29 70.313h6.89z" id="HelveticaWorld-Regular-49"/></defs><use xlink:href="#HelveticaWorld-Regular-49"/><use x="55.615" xlink:href="#HelveticaWorld-Regular-48"/></g></g><g id="xtick_3"><use x="184.293" xlink:href="#m9ad4828419" y="313.361" fill="#969696" stroke="#969696" stroke-width=".4" id="line2d_5"/><g transform="matrix(.14 0 0 -.14 176.508 330.41)" fill="#969696" id="text_3"><defs><path d="M4.39 45.125q0 12.39 6.391 18.781 6.406 6.407 17.938 6.407 9.656 0 15.812-5.86 6.157-5.86 6.157-15.14 0-7.22-3.547-12.188-3.532-4.953-10.422-8.703l-12.11-6.64Q13.922 15.921 12.5 8.296h38.188V0H2.593q.39 9.906 4.297 16.5 3.906 6.594 12.203 11.375l12.593 7.328q5.032 2.89 7.329 5.984 2.297 3.094 2.297 8.516 0 5.375-3.766 9.031-3.75 3.672-10.156 3.672-7.078 0-10.594-4.672-3.516-4.656-3.61-12.609z" id="HelveticaWorld-Regular-50"/></defs><use xlink:href="#HelveticaWorld-Regular-50"/><use x="55.615" xlink:href="#HelveticaWorld-Regular-48"/></g></g><g id="xtick_4"><use x="255.717" xlink:href="#m9ad4828419" y="313.361" fill="#969696" stroke="#969696" stroke-width=".4" id="line2d_6"/><g transform="matrix(.14 0 0 -.14 247.932 330.41)" fill="#969696" id="text_4"><defs><path d="M22.406 39.984q2.203-.187 4.594-.187 6.203 0 9.781 2.86 3.594 2.859 3.594 8.656 0 4.687-3.344 7.89-3.343 3.203-9.64 3.203-6.985 0-10.235-4.11-3.234-4.093-3.437-10.983h-8.64q0 10.984 5.765 16.984 5.765 6.016 16.937 6.016 9.922 0 15.828-5.11 5.907-5.094 5.907-13.39 0-10.704-9.032-14.5v-.204q11.72-4 11.72-16.406 0-9.906-6.595-16.265-6.593-6.344-18.703-6.344-9.906 0-16.312 5.203Q4.204 8.5 3.422 21.484H12.5q.203-8.109 4-11.797Q20.313 6 27.484 6q6.938 0 11.141 3.86 4.203 3.859 4.203 9.718 0 6.406-4.016 9.672-4 3.266-12.39 3.266-2 0-4.016-.094z" id="HelveticaWorld-Regular-51"/></defs><use xlink:href="#HelveticaWorld-Regular-51"/><use x="55.615" xlink:href="#HelveticaWorld-Regular-48"/></g></g><g id="xtick_5"><use x="327.141" xlink:href="#m9ad4828419" y="313.361" fill="#969696" stroke="#969696" stroke-width=".4" id="line2d_7"/><g transform="matrix(.14 0 0 -.14 319.356 330.41)" fill="#969696" id="text_5"><defs><path d="M10.594 24.703h22.61v31.89h-.188zM42 17.093V0h-8.797v17.094H2.484v8.593L34.72 70.314H42v-45.61h10.297v-7.61z" id="HelveticaWorld-Regular-52"/></defs><use xlink:href="#HelveticaWorld-Regular-52"/><use x="55.615" xlink:href="#HelveticaWorld-Regular-48"/></g></g><g id="xtick_6"><use x="398.565" xlink:href="#m9ad4828419" y="313.361" fill="#969696" stroke="#969696" stroke-width=".4" id="line2d_8"/><g transform="matrix(.14 0 0 -.14 390.78 330.41)" fill="#969696" id="text_6"><defs><path d="M14.703 40.922q5.813 4.39 13.625 4.39 9.469 0 16.281-6.296 6.813-6.297 6.813-16.22 0-10.78-6.578-17.796-6.563-7-18.422-7-10.313 0-16.266 5.047Q4.203 8.109 3.22 17.39h9.094q.671-5.672 4.437-8.672 3.766-3 10.453-3 6.485 0 10.64 4.484Q42 14.703 42 21.688q0 7.125-4.36 11.421-4.343 4.297-11.218 4.297-7.813 0-13.047-6.687l-7.563.39 5.266 37.594h36.438v-8.5H17.672z" id="HelveticaWorld-Regular-53"/></defs><use xlink:href="#HelveticaWorld-Regular-53"/><use x="55.615" xlink:href="#HelveticaWorld-Regular-48"/></g></g><g transform="matrix(.14 0 0 -.14 206.733 347.359)" fill="#969696" id="text_7"><defs><path d="M36.078 37.406q-.187 4.688-3.344 6.735-3.14 2.047-9.047 2.047-4.296 0-7.359-1.907-3.047-1.89-3.047-5.468 0-2.829 1.797-4.172 1.813-1.344 7.828-2.86l8.688-2.187q7.906-2 11.297-5.11 3.406-3.093 3.406-8.656 0-7.719-5.64-12.531-5.641-4.813-15.063-4.813-11 0-16.64 4.563-5.626 4.578-5.735 13.75h8.5q.203-5.422 3.594-8.063 3.39-2.625 10.171-2.625 5.516 0 8.766 2.188 3.25 2.203 3.25 6.11 0 2.78-2.11 4.437-2.093 1.672-8.296 3.078l-10.203 2.5q-6.203 1.562-9.157 4.656-2.953 3.094-2.953 8.031 0 7.72 5.516 12.203 5.531 4.5 14.406 4.5 9.485 0 14.531-4.624 5.047-4.61 5.344-11.782z" id="HelveticaWorld-Regular-115"/><path d="M17.188 45.016V10.984q0-2 1.093-3.046 1.11-1.047 3.938-1.047h3.375V0Q20.797-.688 19-.688q-5.516 0-8.063 2.641-2.53 2.64-2.53 8.547v34.516H1.311v7.28h7.094v14.595h8.781V52.297h8.407v-7.281z" id="HelveticaWorld-Regular-116"/><path d="M42.484 30.328q-.687 8.485-4.5 12.031-3.797 3.547-10.109 3.547-6.39 0-10.328-4.5-3.922-4.484-4.172-11.078zm8.391-13.922q-1.453-8.11-7.953-13.422-5.719-4.5-15.047-4.593-10.984.093-17.438 7.203Q4 12.704 4 24.704q0 13.78 6.64 21.437 6.641 7.672 18.47 7.672 10.593 0 16.546-7.922 5.953-7.907 5.953-22.594H13.375q0-8.203 3.813-12.703Q21 6.109 28.608 6.109q5.375 0 9.235 3.235 3.86 3.25 4.25 7.062z" id="HelveticaWorld-Regular-101"/><path d="M14.984 23.688q0-8.407 4.094-13 4.11-4.579 10.219-4.579 6.687 0 10.39 5.438 3.72 5.453 3.72 14.765 0 10.22-3.563 14.907-3.563 4.687-10.735 4.687-6.984 0-10.562-5.5-3.563-5.5-3.563-16.718zm-8.39 28.609h8.297v-7.375h.203q5.61 8.89 15.625 8.89 10.11 0 15.937-7.359 5.828-7.344 5.828-18.766 0-12.796-5.953-21Q40.578-1.515 29.5-1.515q-9.094 0-13.922 7.032h-.203v-26.22H6.594z" id="HelveticaWorld-Regular-112"/></defs><use xlink:href="#HelveticaWorld-Regular-115"/><use x="50" xlink:href="#HelveticaWorld-Regular-116"/><use x="77.686" xlink:href="#HelveticaWorld-Regular-101"/><use x="133.105" xlink:href="#HelveticaWorld-Regular-112"/></g></g><g id="matplotlib.axis_2"><g id="ytick_1"><path clip-path="url(#pe03c730bec)" d="M41.445 313.361h357.12" fill="none" stroke="#969696" stroke-linecap="square" stroke-width=".3" id="line2d_9"/><g id="line2d_10"><defs><path d="M0 0h-3.5" id="mf72916f9c4" stroke="#969696" stroke-width=".3"/></defs><use x="41.445" xlink:href="#mf72916f9c4" y="313.361" fill="#969696" stroke="#969696" stroke-width=".3"/></g><g transform="matrix(.14 0 0 -.14 7.2 318.386)" fill="#969696" id="text_8"><defs><path d="M19.094 0H8.687v10.594h10.407z" id="HelveticaWorld-Regular-46"/><path d="M27.594 31.39q6 0 9.75 4.047 3.765 4.063 3.765 11.97 0 6.5-3.562 10.75-3.563 4.25-10.64 4.25-6.11 0-9.876-4.298-3.75-4.297-3.75-11.53 0-7.376 3.516-11.282 3.515-3.906 10.797-3.906zm-1.282-7.906q-10 0-16.062 6.203-6.047 6.204-6.047 16.5 0 10.407 6.094 17.266 6.11 6.86 16.515 6.86 12.11 0 18.36-8.157 6.25-8.156 6.25-24.453 0-16.906-6.406-28.266Q38.625-1.905 25.875-1.905q-9.953 0-15.422 5.593-5.469 5.594-5.469 13.204h8.829q.39-5.266 3.437-8.375 3.063-3.094 8.438-3.094 7.609 0 11.515 6.781Q41.11 19 42.578 31.688l-.187.203q-5.672-8.407-16.078-8.407z" id="HelveticaWorld-Regular-57"/></defs><use xlink:href="#HelveticaWorld-Regular-48"/><use x="55.615" xlink:href="#HelveticaWorld-Regular-46"/><use x="83.398" xlink:href="#HelveticaWorld-Regular-57"/><use x="139.014" xlink:href="#HelveticaWorld-Regular-51"/></g></g><g id="ytick_2"><path clip-path="url(#pe03c730bec)" d="M41.445 275.345h357.12" fill="none" stroke="#969696" stroke-linecap="square" stroke-width=".3" id="line2d_11"/><use x="41.445" xlink:href="#mf72916f9c4" y="275.345" fill="#969696" stroke="#969696" stroke-width=".3" id="line2d_12"/><g transform="matrix(.14 0 0 -.14 7.2 280.37)" fill="#969696" id="text_9"><use xlink:href="#HelveticaWorld-Regular-48"/><use x="55.615" xlink:href="#HelveticaWorld-Regular-46"/><use x="83.398" xlink:href="#HelveticaWorld-Regular-57"/><use x="139.014" xlink:href="#HelveticaWorld-Regular-52"/></g></g><g id="ytick_3"><path clip-path="url(#pe03c730bec)" d="M41.445 237.33h357.12" fill="none" stroke="#969696" stroke-linecap="square" stroke-width=".3" id="line2d_13"/><use x="41.445" xlink:href="#mf72916f9c4" y="237.329" fill="#969696" stroke="#969696" stroke-width=".3" id="line2d_14"/><g transform="matrix(.14 0 0 -.14 7.2 242.354)" fill="#969696" id="text_10"><use xlink:href="#HelveticaWorld-Regular-48"/><use x="55.615" xlink:href="#HelveticaWorld-Regular-46"/><use x="83.398" xlink:href="#HelveticaWorld-Regular-57"/><use x="139.014" xlink:href="#HelveticaWorld-Regular-53"/></g></g><g id="ytick_4"><path clip-path="url(#pe03c730bec)" d="M41.445 199.313h357.12" fill="none" stroke="#969696" stroke-linecap="square" stroke-width=".3" id="line2d_15"/><use x="41.445" xlink:href="#mf72916f9c4" y="199.313" fill="#969696" stroke="#969696" stroke-width=".3" id="line2d_16"/><g transform="matrix(.14 0 0 -.14 7.2 204.338)" fill="#969696" id="text_11"><defs><path d="M14.11 21.578q0-6.875 4.093-11.234Q22.313 6 28.906 6q6.297 0 10.032 4.438 3.734 4.453 3.734 11.687 0 6.297-3.688 10.547-3.687 4.25-10.468 4.25-6.594 0-10.5-4.156-3.907-4.157-3.907-11.188zM41.702 51.61q-.984 5.375-3.984 8.078-3 2.72-8.125 2.72-8.11 0-12.36-7.923-4.25-7.906-4.343-18.109l.203-.188q5.61 8.641 16.687 8.641 8.844 0 15.438-5.86 6.593-5.859 6.593-16.452 0-10.5-6.25-17.47-6.25-6.952-16.843-6.952-12.219 0-18.563 8.687-6.344 8.703-6.344 25.938 0 16.593 6.485 27.093 6.5 10.5 19.484 10.5 8.407 0 14.219-5.015 5.813-5 6.297-13.688z" id="HelveticaWorld-Regular-54"/></defs><use xlink:href="#HelveticaWorld-Regular-48"/><use x="55.615" xlink:href="#HelveticaWorld-Regular-46"/><use x="83.398" xlink:href="#HelveticaWorld-Regular-57"/><use x="139.014" xlink:href="#HelveticaWorld-Regular-54"/></g></g><g id="ytick_5"><path clip-path="url(#pe03c730bec)" d="M41.445 161.297h357.12" fill="none" stroke="#969696" stroke-linecap="square" stroke-width=".3" id="line2d_17"/><use x="41.445" xlink:href="#mf72916f9c4" y="161.297" fill="#969696" stroke="#969696" stroke-width=".3" id="line2d_18"/><g transform="matrix(.14 0 0 -.14 7.2 166.322)" fill="#969696" id="text_12"><defs><path d="M3.719 68.797h48.578v-7.719Q42.28 50.875 33.984 33.484 25.687 16.11 23.391 0h-9.672q1.469 13.281 9.719 30.531 8.25 17.266 18.953 29.672H3.719z" id="HelveticaWorld-Regular-55"/></defs><use xlink:href="#HelveticaWorld-Regular-48"/><use x="55.615" xlink:href="#HelveticaWorld-Regular-46"/><use x="83.398" xlink:href="#HelveticaWorld-Regular-57"/><use x="139.014" xlink:href="#HelveticaWorld-Regular-55"/></g></g><g id="ytick_6"><path clip-path="url(#pe03c730bec)" d="M41.445 123.281h357.12" fill="none" stroke="#969696" stroke-linecap="square" stroke-width=".3" id="line2d_19"/><use x="41.445" xlink:href="#mf72916f9c4" y="123.281" fill="#969696" stroke="#969696" stroke-width=".3" id="line2d_20"/><g transform="matrix(.14 0 0 -.14 7.2 128.306)" fill="#969696" id="text_13"><defs><path d="M27.594 40.578q5.422 0 8.953 3.094 3.547 3.11 3.547 8.234 0 4.594-3.407 7.547-3.39 2.953-9.687 2.953-5.61 0-8.672-3.11-3.047-3.093-3.047-7.874 0-5.125 3.813-7.984 3.812-2.86 8.5-2.86zm.093-7.562q-6.78 0-10.64-3.766-3.86-3.766-3.86-9.234 0-6.297 3.907-10.157Q21 6 28.219 6q6.406 0 10.234 3.86 3.828 3.859 3.828 10.265 0 5.469-3.828 9.172-3.828 3.719-10.766 3.719zM49.22 52.203q0-10.594-9.032-14.797 6.204-2.781 8.86-7.36 2.656-4.562 2.656-9.733 0-10.016-6.453-16.125-6.438-6.094-17.375-6.094-9.563 0-16.813 5.25-7.25 5.25-7.25 17.062 0 11.922 11.907 16.907-9.516 3.796-9.516 13.671 0 8.297 5.64 13.813 5.641 5.516 15.641 5.516 10.016 0 15.875-5.204 5.86-5.203 5.86-12.906z" id="HelveticaWorld-Regular-56"/></defs><use xlink:href="#HelveticaWorld-Regular-48"/><use x="55.615" xlink:href="#HelveticaWorld-Regular-46"/><use x="83.398" xlink:href="#HelveticaWorld-Regular-57"/><use x="139.014" xlink:href="#HelveticaWorld-Regular-56"/></g></g><g id="ytick_7"><path clip-path="url(#pe03c730bec)" d="M41.445 85.265h357.12" fill="none" stroke="#969696" stroke-linecap="square" stroke-width=".3" id="line2d_21"/><use x="41.445" xlink:href="#mf72916f9c4" y="85.265" fill="#969696" stroke="#969696" stroke-width=".3" id="line2d_22"/><g transform="matrix(.14 0 0 -.14 7.2 90.29)" fill="#969696" id="text_14"><use xlink:href="#HelveticaWorld-Regular-48"/><use x="55.615" xlink:href="#HelveticaWorld-Regular-46"/><use x="83.398" xlink:href="#HelveticaWorld-Regular-57"/><use x="139.014" xlink:href="#HelveticaWorld-Regular-57"/></g></g><g id="ytick_8"><path clip-path="url(#pe03c730bec)" d="M41.445 47.25h357.12" fill="none" stroke="#969696" stroke-linecap="square" stroke-width=".3" id="line2d_23"/><use x="41.445" xlink:href="#mf72916f9c4" y="47.249" fill="#969696" stroke="#969696" stroke-width=".3" id="line2d_24"/><g transform="matrix(.14 0 0 -.14 7.2 52.274)" fill="#969696" id="text_15"><use xlink:href="#HelveticaWorld-Regular-49"/><use x="55.615" xlink:href="#HelveticaWorld-Regular-46"/><use x="83.398" xlink:href="#HelveticaWorld-Regular-48"/><use x="139.014" xlink:href="#HelveticaWorld-Regular-48"/></g></g></g><path clip-path="url(#pe03c730bec)" d="m67.399 358.457 2.616-4.426 7.142-8.474 7.143-7.98 7.142-10.137 7.143-7.608 7.142-7.768 7.142-7.032 7.143-5.463 7.142-6.45 7.143-8.184 7.142-8.947 7.142-8.26 7.143-9.274 7.142-8.179 7.143-7.254 7.142-6.06 7.142-4.693 7.143-4.318 7.142-4.956 7.143-4.852 7.142-4.352 7.142-3.722 7.143-2.862 7.142-2.12 7.143-1.644 7.142-2.054 7.142-2.235 7.143-1.905 7.142-1.608 7.143-1.335 7.142-1.086 7.142-.999 7.143-.857 7.142-.685 7.143-.53 7.142-.391 7.142-.264 7.143-.146 7.142-.034 7.143.075 7.142.184 7.142.297 7.143-.351 7.142-.517 7.143-.459 7.142-.38 7.142-.364" fill="none" stroke="#d62728" stroke-linecap="square" stroke-width="1.5" id="line2d_25"/><path clip-path="url(#pe03c730bec)" d="m57.67 358.457 5.203-15.204 7.142-14.296 7.142-15.69 7.143-11.344 7.142-14.262 7.143-12.83 7.142-15.513 7.142-14.74 7.143-14.439 7.142-9.615 7.143-4.857 7.142-4.03 7.142-6.392 7.143-5.42 7.142-3.254 7.143-2.782 7.142-2.133 7.142-1.27 7.143-.584 7.142-.043 7.143.412 7.142.227 7.142.189 7.143.018 7.142-.963 7.143-1.3 7.142-2.004 7.142-1.696 7.143-1.393 7.142-1.46 7.143-.874 7.142-.603 7.142-1.422 7.143-1.657 7.142-1.208 7.143-.697 7.142-.195 7.142-.975 7.143-.816 7.142-.544 7.143-.334 7.142-.676 7.142-.897 7.143-.683 7.142-.895 7.143-.807 7.142-.63 7.142-.597" fill="none" stroke="#ff7f0e" stroke-linecap="square" stroke-width="1.5" id="line2d_26"/><g transform="matrix(.14 0 0 -.14 402.137 142.373)" fill="#1f77b4" id="text_16"><defs><path d="M39.594 34.719q-1.89 11.187-12.39 11.187-6.5 0-10.454-5.203-3.953-5.203-3.953-14.484 0-10.11 3.656-15.11 3.672-5 10.64-5 4.688 0 8.11 3.438 3.422 3.437 4.39 8.953h8.5q-1.312-9.703-6.859-14.86-5.547-5.156-14.328-5.156-10.297 0-16.89 7.047-6.594 7.063-6.594 19.172 0 13.281 6.594 21.188 6.593 7.922 18.5 7.922 8.687 0 13.843-5.204 5.157-5.203 5.735-13.89z" id="HelveticaWorld-Regular-99"/><path d="M39.406 52.297h9.625L29.11 0h-9.437L.594 52.297h10.203L24.422 9.719h.187z" id="HelveticaWorld-Regular-118"/><path d="M28.906 23.188H4.391v8.984h24.515z" id="HelveticaWorld-Regular-45"/><path d="M6.11 52.297h8.78V17.578q0-5.765 2.61-8.625Q20.125 6.11 25 6.11q6.781 0 10.594 4.797 3.812 4.813 3.812 12.578v28.813h8.782V0H39.89v7.625l-.188.188q-4.984-9.329-16.61-9.329-7.515 0-12.25 4.094Q6.11 6.688 6.11 14.703z" id="HelveticaWorld-Regular-117"/><path d="M49.219 0h-8.844v32.172q0 7.422-2.594 10.578-2.578 3.156-8.578 3.156-5.906 0-9.875-4.5-3.953-4.484-3.953-12.89V0H6.594v52.297h8.297v-7.375h.203q6.203 8.89 15.812 8.89 8.89 0 13.594-4.718 4.719-4.703 4.719-13.5z" id="HelveticaWorld-Regular-110"/><path d="M6.594 61.813v9.968h8.781v-9.969zM15.375 0H6.594v52.297h8.781z" id="HelveticaWorld-Regular-105"/><path d="M17.188 45.016V0H8.405v45.016H1.22v7.28h7.187v8.985q0 5.907 3.578 8.703 3.594 2.813 10.032 2.813 2.203 0 3.968-.188v-7.906q-1.562.188-3.578.188-2.922 0-4.078-1.438-1.14-1.437-1.14-4.656v-6.5h8.796v-7.281z" id="HelveticaWorld-Regular-102"/><path d="M12.703 26.219q0-8.735 3.953-14.375 3.953-5.64 11.219-5.64 7.531 0 11.438 5.905 3.906 5.907 3.906 14.11 0 8.297-3.907 14.078-3.906 5.797-11.437 5.797-6.969 0-11.078-5.453-4.094-5.438-4.094-14.422zm-8.984 0q0 11.672 6.484 19.625 6.5 7.968 17.672 7.968 11.438 0 17.875-8.062 6.453-8.047 6.453-19.531 0-11.516-6.406-19.625-6.39-8.11-17.922-8.11-11.078 0-17.625 7.86-6.531 7.86-6.531 19.875z" id="HelveticaWorld-Regular-111"/><path d="M15.375 0H6.594v52.297h8.297v-8.688h.203q5.703 10.203 14.687 10.203 1.422 0 2.297-.296V44.39h-3.266q-5.906 0-9.671-4.016-3.766-4-3.766-9.953z" id="HelveticaWorld-Regular-114"/><path d="M6.594 52.297h8.297v-7.375h.203q5.906 8.89 15.812 8.89 9.813 0 13.922-8.5 3.75 4.594 7.266 6.547 3.515 1.953 8.703 1.953 6.781 0 11.484-4.453Q77 44.922 77 36.187V0h-8.781v33.797q0 6.094-2.297 9.094-2.297 3.015-7.422 3.015-5.172 0-8.75-4.203-3.563-4.203-3.563-9.812V0h-8.78v36.188q0 4.53-2.11 7.124-2.094 2.594-6.094 2.594-6.297 0-10.062-4.687-3.766-4.688-3.766-12.703V0H6.594z" id="HelveticaWorld-Regular-109"/><path d="M41.5 23.688q0 11.125-3.5 16.671-3.484 5.547-10.61 5.547-6.874 0-10.593-4.5-3.703-4.484-3.703-15.093 0-9.422 3.75-14.813 3.765-5.39 10.36-5.39 5.812 0 10.046 4.39 4.25 4.39 4.25 13.188zm8.406-44.391H41.11V5.516h-.187Q35.89-1.516 27-1.516q-10.984 0-17 8.157-6 8.156-6 21.047 0 11.421 5.906 18.765 5.922 7.36 15.875 7.36 9.907 0 15.625-8.891h.203v7.375h8.297z" id="HelveticaWorld-Regular-113"/></defs><use xlink:href="#HelveticaWorld-Regular-99"/><use x="51.27" xlink:href="#HelveticaWorld-Regular-118"/><use x="101.504" xlink:href="#HelveticaWorld-Regular-116"/><use x="129.189" xlink:href="#HelveticaWorld-Regular-45"/><use x="162.49" xlink:href="#HelveticaWorld-Regular-117"/><use x="217.275" xlink:href="#HelveticaWorld-Regular-110"/><use x="272.451" xlink:href="#HelveticaWorld-Regular-105"/><use x="294.473" xlink:href="#HelveticaWorld-Regular-102"/><use x="320.158" xlink:href="#HelveticaWorld-Regular-111"/><use x="376.066" xlink:href="#HelveticaWorld-Regular-114"/><use x="408.635" xlink:href="#HelveticaWorld-Regular-109"/><use x="491.643" xlink:href="#HelveticaWorld-Regular-45"/><use x="524.943" xlink:href="#HelveticaWorld-Regular-113"/><use x="581.438" xlink:href="#HelveticaWorld-Regular-110"/><use x="636.613" xlink:href="#HelveticaWorld-Regular-102"/></g><g transform="matrix(.14 0 0 -.14 402.137 164.83)" fill="#ff7f0e" id="text_17"><defs><path d="M15.375 0H6.594v71.781h8.781z" id="HelveticaWorld-Regular-108"/><path d="M39.016 52.297h9.562L29.891.984q-.5-1.375-.985-2.593-4.25-11.329-7.328-15.547-3.078-4.235-9.953-4.235-3.61 0-5.906.782v8.015q2.484-.89 5.468-.89 3.22 0 4.704 2.03 1.5 2.032 4.421 9.938L.875 52.297h9.922L24.812 9.719H25z" id="HelveticaWorld-Regular-121"/><path d="M13.094 26.313q0-9.704 3.844-14.954 3.859-5.25 10.265-5.25 6.094 0 10.188 4.485 4.109 4.5 4.109 13.094 0 11.03-3.5 16.625-3.484 5.593-10.61 5.593-6.78 0-10.546-4.453-3.75-4.437-3.75-15.14zM50.39 0h-8.297v7.172h-.203q-4.97-8.688-15.078-8.688-10.891 0-16.86 8.297Q4 15.094 4 27.688q0 11.625 5.906 18.875 5.922 7.25 15.875 7.25 9.813 0 15.625-8.891l.203.594V71.78h8.782z" id="HelveticaWorld-Regular-100"/><path d="M29.781 73.297q-8.875-15.875-11.218-25.844-2.344-9.953-2.344-21.969 0-11.859 3.187-22.125Q22.61-6.89 29.891-20.703h-5.86Q15.72-8.593 11.25 2.187 6.781 12.985 6.781 26.125q0 12.36 4.047 23.563 4.063 11.203 12.86 23.609z" id="HelveticaWorld-Regular-40"/><path d="M3.516-20.703q8.796 15.922 11.14 25.86Q17 15.093 17 27.093q0 11.922-3.156 22.172T3.422 73.296h5.765q8.391-12.109 12.86-22.905 4.469-10.797 4.469-23.875 0-12.407-4.063-23.61-4.047-11.203-12.828-23.61z" id="HelveticaWorld-Regular-41"/></defs><use xlink:href="#HelveticaWorld-Regular-99"/><use x="51.27" xlink:href="#HelveticaWorld-Regular-118"/><use x="101.504" xlink:href="#HelveticaWorld-Regular-116"/><use x="129.189" xlink:href="#HelveticaWorld-Regular-45"/><use x="162.49" xlink:href="#HelveticaWorld-Regular-117"/><use x="217.275" xlink:href="#HelveticaWorld-Regular-110"/><use x="272.451" xlink:href="#HelveticaWorld-Regular-105"/><use x="294.473" xlink:href="#HelveticaWorld-Regular-102"/><use x="320.158" xlink:href="#HelveticaWorld-Regular-111"/><use x="376.066" xlink:href="#HelveticaWorld-Regular-114"/><use x="408.635" xlink:href="#HelveticaWorld-Regular-109"/><use x="491.643" xlink:href="#HelveticaWorld-Regular-45"/><use x="524.943" xlink:href="#HelveticaWorld-Regular-108"/><use x="546.965" xlink:href="#HelveticaWorld-Regular-108"/><use x="568.986" xlink:href="#HelveticaWorld-Regular-111"/><use x="623.145" xlink:href="#HelveticaWorld-Regular-121"/><use x="670.754" xlink:href="#HelveticaWorld-Regular-100"/><use x="727.736" xlink:href="#HelveticaWorld-Regular-40"/><use x="761.037" xlink:href="#HelveticaWorld-Regular-50"/><use x="816.652" xlink:href="#HelveticaWorld-Regular-46"/><use x="844.436" xlink:href="#HelveticaWorld-Regular-48"/><use x="900.051" xlink:href="#HelveticaWorld-Regular-41"/></g><g transform="matrix(.14 0 0 -.14 402.137 178.843)" fill="#2ca02c" id="text_18"><defs><path d="M43.406 26.313q0 10.5-3.718 15.046-3.704 4.547-10.579 4.547-6.984-.11-10.562-5.453Q14.984 35.11 14.984 25q0-10.297 4.297-14.594Q23.578 6.11 29.297 6.11q6.5 0 10.297 5.344 3.812 5.344 3.812 14.86zM6.594 0v71.781h8.781V45.703h.203q5.61 8.11 15.14 8.11 9.766 0 15.766-7.25t6-18.876q0-13.093-6.062-21.156Q40.375-1.516 29.5-1.516q-9.578 0-14.406 8.016h-.203V0z" id="HelveticaWorld-Regular-98"/></defs><use xlink:href="#HelveticaWorld-Regular-99"/><use x="51.27" xlink:href="#HelveticaWorld-Regular-118"/><use x="101.504" xlink:href="#HelveticaWorld-Regular-116"/><use x="129.189" xlink:href="#HelveticaWorld-Regular-45"/><use x="162.49" xlink:href="#HelveticaWorld-Regular-117"/><use x="217.275" xlink:href="#HelveticaWorld-Regular-110"/><use x="272.451" xlink:href="#HelveticaWorld-Regular-105"/><use x="294.473" xlink:href="#HelveticaWorld-Regular-102"/><use x="320.158" xlink:href="#HelveticaWorld-Regular-111"/><use x="376.066" xlink:href="#HelveticaWorld-Regular-114"/><use x="408.635" xlink:href="#HelveticaWorld-Regular-109"/><use x="491.643" xlink:href="#HelveticaWorld-Regular-45"/><use x="524.943" xlink:href="#HelveticaWorld-Regular-113"/><use x="581.438" xlink:href="#HelveticaWorld-Regular-110"/><use x="636.613" xlink:href="#HelveticaWorld-Regular-98"/></g><g transform="matrix(.14 0 0 -.14 402.137 192.795)" fill="#d62728" id="text_19"><use xlink:href="#HelveticaWorld-Regular-99"/><use x="51.27" xlink:href="#HelveticaWorld-Regular-118"/><use x="101.504" xlink:href="#HelveticaWorld-Regular-116"/><use x="129.189" xlink:href="#HelveticaWorld-Regular-45"/><use x="162.49" xlink:href="#HelveticaWorld-Regular-117"/><use x="217.275" xlink:href="#HelveticaWorld-Regular-110"/><use x="272.451" xlink:href="#HelveticaWorld-Regular-105"/><use x="294.473" xlink:href="#HelveticaWorld-Regular-102"/><use x="320.158" xlink:href="#HelveticaWorld-Regular-111"/><use x="376.066" xlink:href="#HelveticaWorld-Regular-114"/><use x="408.635" xlink:href="#HelveticaWorld-Regular-109"/><use x="491.643" xlink:href="#HelveticaWorld-Regular-45"/><use x="524.943" xlink:href="#HelveticaWorld-Regular-108"/><use x="546.965" xlink:href="#HelveticaWorld-Regular-108"/><use x="568.986" xlink:href="#HelveticaWorld-Regular-111"/><use x="623.145" xlink:href="#HelveticaWorld-Regular-121"/><use x="670.754" xlink:href="#HelveticaWorld-Regular-100"/></g><g transform="matrix(.14 0 0 -.14 402.137 218.062)" fill="#9467bd" id="text_20"><defs><path d="M12.984 26.313q0-9.61 3.813-14.907Q20.609 6.11 27.094 6.11q6.312 0 10.312 4.579 4 4.593 4 13 0 11.03-3.5 16.625-3.484 5.593-10.61 5.593-7.171 0-10.75-4.765-3.562-4.766-3.562-14.828zm36.828-23.33q0-12.609-6.062-18.797-6.047-6.203-18.266-6.203-8.78 0-13.984 4.047-5.203 4.048-5.984 11.58h8.796q.672-3.812 3.532-6.062 2.86-2.25 8.281-2.25 7.375 0 11.125 3.969 3.766 3.953 3.766 12.828v3.719h-.188q-4.937-7.329-13.922-7.329-11.187 0-17.093 8.25-5.907 8.25-5.907 20.953 0 11.625 5.953 18.875 5.97 7.25 15.829 7.25 9.906 0 15.625-8.89h.187v7.375h8.313z" id="HelveticaWorld-Regular-103"/></defs><use xlink:href="#HelveticaWorld-Regular-111"/><use x="55.908" xlink:href="#HelveticaWorld-Regular-100"/><use x="112.891" xlink:href="#HelveticaWorld-Regular-116"/><use x="140.576" xlink:href="#HelveticaWorld-Regular-45"/><use x="173.877" xlink:href="#HelveticaWorld-Regular-117"/><use x="228.662" xlink:href="#HelveticaWorld-Regular-110"/><use x="283.838" xlink:href="#HelveticaWorld-Regular-105"/><use x="305.859" xlink:href="#HelveticaWorld-Regular-102"/><use x="331.545" xlink:href="#HelveticaWorld-Regular-111"/><use x="387.453" xlink:href="#HelveticaWorld-Regular-114"/><use x="420.021" xlink:href="#HelveticaWorld-Regular-109"/><use x="503.029" xlink:href="#HelveticaWorld-Regular-45"/><use x="536.33" xlink:href="#HelveticaWorld-Regular-98"/><use x="592.824" xlink:href="#HelveticaWorld-Regular-102"/><use x="619.51" xlink:href="#HelveticaWorld-Regular-103"/><use x="675.418" xlink:href="#HelveticaWorld-Regular-115"/></g><g transform="matrix(.14 0 0 -.14 402.137 232.154)" fill="#8c564b" id="text_21"><use xlink:href="#HelveticaWorld-Regular-111"/><use x="55.908" xlink:href="#HelveticaWorld-Regular-100"/><use x="112.891" xlink:href="#HelveticaWorld-Regular-116"/><use x="140.576" xlink:href="#HelveticaWorld-Regular-45"/><use x="173.877" xlink:href="#HelveticaWorld-Regular-117"/><use x="228.662" xlink:href="#HelveticaWorld-Regular-110"/><use x="283.838" xlink:href="#HelveticaWorld-Regular-105"/><use x="305.859" xlink:href="#HelveticaWorld-Regular-102"/><use x="331.545" xlink:href="#HelveticaWorld-Regular-111"/><use x="387.453" xlink:href="#HelveticaWorld-Regular-114"/><use x="420.021" xlink:href="#HelveticaWorld-Regular-109"/><use x="503.029" xlink:href="#HelveticaWorld-Regular-45"/><use x="536.33" xlink:href="#HelveticaWorld-Regular-102"/><use x="564.016" xlink:href="#HelveticaWorld-Regular-112"/></g><g transform="matrix(.14 0 0 -.14 402.137 246.154)" fill="#e377c2" id="text_22"><use xlink:href="#HelveticaWorld-Regular-99"/><use x="51.27" xlink:href="#HelveticaWorld-Regular-112"/><use x="107.764" xlink:href="#HelveticaWorld-Regular-116"/><use x="135.449" xlink:href="#HelveticaWorld-Regular-45"/><use x="168.75" xlink:href="#HelveticaWorld-Regular-117"/><use x="223.535" xlink:href="#HelveticaWorld-Regular-110"/><use x="278.711" xlink:href="#HelveticaWorld-Regular-105"/><use x="300.732" xlink:href="#HelveticaWorld-Regular-102"/><use x="326.418" xlink:href="#HelveticaWorld-Regular-111"/><use x="382.326" xlink:href="#HelveticaWorld-Regular-114"/><use x="414.895" xlink:href="#HelveticaWorld-Regular-109"/><use x="497.902" xlink:href="#HelveticaWorld-Regular-45"/><use x="531.203" xlink:href="#HelveticaWorld-Regular-113"/><use x="587.697" xlink:href="#HelveticaWorld-Regular-110"/></g><g transform="matrix(.14 0 0 -.14 402.137 260.154)" fill="#7f7f7f" id="text_23"><use xlink:href="#HelveticaWorld-Regular-99"/><use x="51.27" xlink:href="#HelveticaWorld-Regular-112"/><use x="107.764" xlink:href="#HelveticaWorld-Regular-116"/><use x="135.449" xlink:href="#HelveticaWorld-Regular-45"/><use x="168.75" xlink:href="#HelveticaWorld-Regular-117"/><use x="223.535" xlink:href="#HelveticaWorld-Regular-110"/><use x="278.711" xlink:href="#HelveticaWorld-Regular-105"/><use x="300.732" xlink:href="#HelveticaWorld-Regular-102"/><use x="326.418" xlink:href="#HelveticaWorld-Regular-111"/><use x="382.326" xlink:href="#HelveticaWorld-Regular-114"/><use x="414.895" xlink:href="#HelveticaWorld-Regular-109"/><use x="497.902" xlink:href="#HelveticaWorld-Regular-45"/><use x="531.203" xlink:href="#HelveticaWorld-Regular-102"/><use x="558.889" xlink:href="#HelveticaWorld-Regular-112"/></g><g transform="matrix(.14 0 0 -.14 161.16 17.25)" fill="#969696" id="text_24"><defs><path d="M38.375 26.703q-.969-1.015-3.828-1.656-2.86-.625-10.672-1.656-5.766-.688-8.469-2.844-2.703-2.14-2.703-5.656 0-4.297 2.281-6.688 2.297-2.39 7.329-2.39 6.296 0 11.171 3.578 4.891 3.593 4.891 8.718zM6.203 36.375q.297 8.844 5.734 13.14 5.454 4.297 15.844 4.297 8.297 0 13.907-3.765 5.624-3.75 5.624-10.844V9.078Q47.313 6 50.094 6q1.125 0 2.89.39V0Q50.594-.984 48-.984q-4.5 0-6.703 1.921-2.188 1.938-2.281 6.047-7.516-8.5-18.891-8.5-7.422 0-11.922 4.204Q3.72 6.89 3.72 13.624q0 6.89 3.906 11.125Q11.531 29 19 29.89l15.516 1.891q4.203.64 4.203 6.203 0 4.11-3.047 6.297-3.047 2.203-9.25 2.203-5.516 0-8.485-2.437-2.953-2.438-3.53-7.672z" id="HelveticaWorld-Regular-97"/></defs><use xlink:href="#HelveticaWorld-Regular-97"/><use x="52.682" xlink:href="#HelveticaWorld-Regular-118"/><use x="100.291" xlink:href="#HelveticaWorld-Regular-101"/><use x="155.711" xlink:href="#HelveticaWorld-Regular-114"/><use x="187.279" xlink:href="#HelveticaWorld-Regular-97"/><use x="242.211" xlink:href="#HelveticaWorld-Regular-103"/><use x="298.119" xlink:href="#HelveticaWorld-Regular-101"/><use x="353.539" xlink:href="#HelveticaWorld-Regular-32"/><use x="377.953" xlink:href="#HelveticaWorld-Regular-99"/><use x="429.223" xlink:href="#HelveticaWorld-Regular-101"/><use x="484.643" xlink:href="#HelveticaWorld-Regular-108"/><use x="506.664" xlink:href="#HelveticaWorld-Regular-108"/><use x="528.686" xlink:href="#HelveticaWorld-Regular-32"/><use x="553.1" xlink:href="#HelveticaWorld-Regular-113"/><use x="609.594" xlink:href="#HelveticaWorld-Regular-117"/><use x="664.379" xlink:href="#HelveticaWorld-Regular-97"/><use x="719.311" xlink:href="#HelveticaWorld-Regular-108"/><use x="741.332" xlink:href="#HelveticaWorld-Regular-105"/><use x="763.354" xlink:href="#HelveticaWorld-Regular-116"/><use x="791.039" xlink:href="#HelveticaWorld-Regular-121"/></g><path clip-path="url(#pe03c730bec)" d="m58.245 358.457 4.628-12.32 7.142-16.253 7.142-12.817 7.143-12.602 7.142-12.895 7.143-14.26 7.142-15.24 7.142-14.331 7.143-13.524 7.142-9.731 7.143-6.173 7.142-4.777 7.142-5.384 7.143-5.65 7.142-4.12 7.143-2.95 7.142-2.7 7.142-1.757 7.143-1.003 7.142-.417 7.143.05 7.142.435 7.142.621 7.143.22 7.142.224 7.143-.411 7.142-1.454 7.142-1.762 7.143-1.711 7.142-1.47 7.143-1.53 7.142-1.247 7.142-1.757 7.143-1.299 7.142-.807 7.143-.305 7.142-.68 7.142-.817 7.143-1.155 7.142-1.292 7.143-1.045 7.142-.776 7.142-.502 7.143-.234 7.142.022 7.143.118 7.142-.164 7.142-.314" fill="none" stroke="#2ca02c" stroke-linecap="square" stroke-width="1.5" id="line2d_27"/><path clip-path="url(#pe03c730bec)" d="m58.502 358.457 4.37-10.554 7.143-25.385 7.142-31.064 7.143-22.597 7.142-28.85 7.143-24.291 7.142-7.936 7.142-2.01 7.143-5.034 7.142-4.994 7.143-1.616 7.142-9.497 7.142-11.152 7.143-7.267 7.142-5.49 7.143-3.038 7.142-.983 7.142-1.833 7.143-1.272 7.142-.574 7.143-.034 7.142-.381 7.142-.333 7.143-1.356 7.142-.981 7.143-.253 7.142-1.196 7.142-.663 7.143.086 7.142.854 7.143-.659 7.142-1.251 7.142-.664 7.143-.598 7.142-1.555 7.143-1.474 7.142-.78 7.142-.463 7.143-.223 7.142-.07 7.143.044 7.142.148 7.142.019 7.143-.547 7.142-.592 7.143-.616 7.142-.457 7.142-.299" fill="none" stroke="#1f77b4" stroke-linecap="square" stroke-width="1.5" id="line2d_28"/><path clip-path="url(#pe03c730bec)" d="m46.687 358.457 1.9-20.345 7.143-19.657 7.143-17.687 7.142-5.101 7.142-6.168 7.143-6.039 7.142-6.23 7.143-1.292 7.142-.738 7.142-9.414 7.143-5.103 7.142-1.353 7.143-4.574 7.142-1.852 7.142-4.181 7.143-1.753 7.142-6.533 7.143-1.428 7.142-.535 7.142-.354 7.143-.182 7.142-.177 7.143-.066 7.142-.1 7.142-.015 7.143-.06 7.142.007 7.143-.04 7.142.014 7.142-.03 7.143.016 7.142-.024 7.143.015 7.142-.022 7.142.013 7.143-.021 7.142.012 7.143-.021 7.142.01 7.142-.021 7.143.009 7.142-.021 7.143.008 7.142-.021 7.142.007 7.143-.021 7.142.007 7.143-.021 7.142.006 7.142-.02" fill="none" stroke="#8c564b" stroke-linecap="square" stroke-width="1.5" id="line2d_29"/><path clip-path="url(#pe03c730bec)" d="m53.34 358.457 2.39-15.275 7.143-35.004 7.142-8.202 7.142-2.724 7.143.45 7.142.777 7.143.155 7.142-1.075 7.142-2.849 7.143-4.23 7.142-2.703 7.143-3.016 7.142-3.745 7.142-3.801 7.143-1.503 7.142-1.372 7.143-.43 7.142.312 7.142-7.672 7.143-11.803 7.142-.315 7.143-1.24 7.142-1.346 7.142-2.571 7.143-2.854 7.142-1.523 7.143-2.893 7.142-3.352 7.142-4.27 7.143-3.412 7.142-.825 7.143.081 7.142-.074 7.142-.588 7.143-1.563 7.142-4.039 7.143-.793 7.142-.242 7.142-1.113 7.143-2.246 7.142-2.152 7.143-1.268 7.142-.484 7.142-.092 7.143.03 7.142.048 7.143-.131 7.142-.172 7.142.325" fill="none" stroke="#9467bd" stroke-linecap="square" stroke-width="1.5" id="line2d_30"/></g></g><defs><clipPath id="pe03c730bec"><path d="M41.445 47.249h357.12v266.112H41.445z"/></clipPath></defs></svg>