<svg height="419.557" viewBox="0 0 570.321 314.667" width="760.428" xmlns="http://www.w3.org/2000/svg" xmlns:xlink="http://www.w3.org/1999/xlink"><defs><style>*{stroke-linecap:butt;stroke-linejoin:round}</style></defs><g id="figure_1"><path d="M0 314.667h570.321V0H0z" fill="none" id="patch_1"/><g id="axes_1"><path d="M50.144 277.111h357.12V11H50.144z" fill="none" id="patch_2"/><g id="matplotlib.axis_1"><g id="xtick_1"><path clip-path="url(#p6a3922e967)" d="M50.144 277.111V11" fill="none" stroke="#b0b0b0" stroke-linecap="square" stroke-width=".8" id="line2d_1"/><g id="line2d_2"><defs><path d="M0 0v3.5" id="m043e162d0d" stroke="#000" stroke-width=".8"/></defs><use x="50.144" xlink:href="#m043e162d0d" y="277.111" stroke="#000" stroke-width=".8"/></g><g id="text_1"><defs><path d="M31.781 66.406q-7.61 0-11.453-7.5Q16.5 51.422 16.5 36.375q0-14.984 3.828-22.484 3.844-7.5 11.453-7.5 7.672 0 11.5 7.5 3.844 7.5 3.844 22.484 0 15.047-3.844 22.531-3.828 7.5-11.5 7.5zm0 7.813q12.266 0 18.735-9.703 6.468-9.688 6.468-28.141 0-18.406-6.468-28.11-6.47-9.687-18.735-9.687-12.25 0-18.718 9.688-6.47 9.703-6.47 28.109 0 18.453 6.47 28.14Q19.53 74.22 31.78 74.22z" id="DejaVuSans-48"/></defs><use xlink:href="#DejaVuSans-48" transform="matrix(.1 0 0 -.1 46.962 291.71)"/></g></g><g id="xtick_2"><path clip-path="url(#p6a3922e967)" d="M121.568 277.111V11" fill="none" stroke="#b0b0b0" stroke-linecap="square" stroke-width=".8" id="line2d_3"/><use x="121.568" xlink:href="#m043e162d0d" y="277.111" stroke="#000" stroke-width=".8" id="line2d_4"/><g id="text_2"><defs><path d="M12.406 8.297h16.11v55.625l-17.532-3.516v8.985l17.438 3.515h9.86V8.296H54.39V0H12.406z" id="DejaVuSans-49"/></defs><g transform="matrix(.1 0 0 -.1 115.205 291.71)"><use xlink:href="#DejaVuSans-49"/><use x="63.623" xlink:href="#DejaVuSans-48"/></g></g></g><g id="xtick_3"><path clip-path="url(#p6a3922e967)" d="M192.992 277.111V11" fill="none" stroke="#b0b0b0" stroke-linecap="square" stroke-width=".8" id="line2d_5"/><use x="192.992" xlink:href="#m043e162d0d" y="277.111" stroke="#000" stroke-width=".8" id="line2d_6"/><g id="text_3"><defs><path d="M19.188 8.297h34.421V0H7.33v8.297q5.609 5.812 15.296 15.594 9.703 9.797 12.188 12.64 4.734 5.313 6.609 9 1.89 3.688 1.89 7.25 0 5.813-4.078 9.469-4.078 3.672-10.625 3.672-4.64 0-9.797-1.61-5.14-1.609-11-4.89v9.969Q13.767 71.78 18.938 73q5.188 1.219 9.485 1.219 11.328 0 18.062-5.672 6.735-5.656 6.735-15.125 0-4.5-1.688-8.531-1.672-4.016-6.125-9.485-1.218-1.422-7.765-8.187-6.532-6.766-18.453-18.922z" id="DejaVuSans-50"/></defs><g transform="matrix(.1 0 0 -.1 186.63 291.71)"><use xlink:href="#DejaVuSans-50"/><use x="63.623" xlink:href="#DejaVuSans-48"/></g></g></g><g id="xtick_4"><path clip-path="url(#p6a3922e967)" d="M264.416 277.111V11" fill="none" stroke="#b0b0b0" stroke-linecap="square" stroke-width=".8" id="line2d_7"/><use x="264.416" xlink:href="#m043e162d0d" y="277.111" stroke="#000" stroke-width=".8" id="line2d_8"/><g id="text_4"><defs><path d="M40.578 39.313Q47.656 37.797 51.625 33q3.984-4.781 3.984-11.813 0-10.78-7.422-16.703-7.421-5.906-21.093-5.906-4.578 0-9.438.906-4.86.907-10.031 2.72v9.515q4.094-2.39 8.969-3.61 4.89-1.218 10.218-1.218 9.266 0 14.125 3.656 4.86 3.656 4.86 10.64 0 6.454-4.516 10.079-4.515 3.64-12.562 3.64h-8.5v8.11h8.89q7.266 0 11.125 2.906 3.86 2.906 3.86 8.375 0 5.61-3.985 8.61-3.968 3.015-11.39 3.015-4.063 0-8.703-.89-4.641-.876-10.203-2.72v8.782q5.624 1.562 10.53 2.344 4.907.78 9.25.78 11.235 0 17.766-5.109 6.547-5.093 6.547-13.78 0-6.063-3.468-10.235-3.47-4.172-9.86-5.782z" id="DejaVuSans-51"/></defs><g transform="matrix(.1 0 0 -.1 258.053 291.71)"><use xlink:href="#DejaVuSans-51"/><use x="63.623" xlink:href="#DejaVuSans-48"/></g></g></g><g id="xtick_5"><path clip-path="url(#p6a3922e967)" d="M335.84 277.111V11" fill="none" stroke="#b0b0b0" stroke-linecap="square" stroke-width=".8" id="line2d_9"/><use x="335.84" xlink:href="#m043e162d0d" y="277.111" stroke="#000" stroke-width=".8" id="line2d_10"/><g id="text_5"><defs><path d="M37.797 64.313L12.89 25.39h24.906zm-2.594 8.593H47.61V25.391h10.407v-8.203H47.609V0h-9.812v17.188H4.89v9.515z" id="DejaVuSans-52"/></defs><g transform="matrix(.1 0 0 -.1 329.477 291.71)"><use xlink:href="#DejaVuSans-52"/><use x="63.623" xlink:href="#DejaVuSans-48"/></g></g></g><g id="xtick_6"><path clip-path="url(#p6a3922e967)" d="M407.264 277.111V11" fill="none" stroke="#b0b0b0" stroke-linecap="square" stroke-width=".8" id="line2d_11"/><use x="407.264" xlink:href="#m043e162d0d" y="277.111" stroke="#000" stroke-width=".8" id="line2d_12"/><g id="text_6"><defs><path d="M10.797 72.906h38.719v-8.312H19.828v-17.86q2.14.735 4.281 1.094 2.157.36 4.313.36 12.203 0 19.328-6.688 7.14-6.688 7.14-18.11 0-11.765-7.328-18.296-7.328-6.516-20.656-6.516-4.593 0-9.36.781-4.75.782-9.827 2.344v9.922q4.39-2.39 9.078-3.563 4.687-1.171 9.906-1.171 8.453 0 13.375 4.437 4.938 4.438 4.938 12.063 0 7.609-4.938 12.047-4.922 4.453-13.375 4.453-3.953 0-7.89-.875-3.922-.875-8.016-2.735z" id="DejaVuSans-53"/></defs><g transform="matrix(.1 0 0 -.1 400.901 291.71)"><use xlink:href="#DejaVuSans-53"/><use x="63.623" xlink:href="#DejaVuSans-48"/></g></g></g><g id="text_7"><defs><path d="M44.281 53.078v-8.5q-3.797 1.953-7.906 2.922-4.094.984-8.5.984-6.688 0-10.031-2.047-3.344-2.046-3.344-6.156 0-3.125 2.39-4.906 2.391-1.781 9.626-3.39l3.078-.688q9.562-2.047 13.593-5.781 4.032-3.735 4.032-10.422 0-7.625-6.032-12.078-6.03-4.438-16.578-4.438-4.39 0-9.156.86Q10.688.296 5.422 2v9.281q4.984-2.594 9.812-3.89 4.829-1.282 9.579-1.282 6.343 0 9.75 2.172 3.421 2.172 3.421 6.125 0 3.656-2.468 5.61-2.453 1.953-10.813 3.765l-3.125.735q-8.344 1.75-12.062 5.39-3.704 3.64-3.704 9.985 0 7.718 5.47 11.906Q16.75 56 26.811 56q4.97 0 9.36-.734 4.406-.72 8.11-2.188z" id="DejaVuSans-115"/><path d="M18.313 70.219V54.688h18.5v-6.985h-18.5V18.016q0-6.688 1.828-8.594 1.828-1.906 7.453-1.906h9.218V0h-9.218q-10.407 0-14.36 3.875-3.953 3.89-3.953 14.14v29.688H2.687v6.984h6.594V70.22z" id="DejaVuSans-116"/><path d="M56.203 29.594v-4.39H14.891q.593-9.282 5.593-14.142 5-4.859 13.938-4.859 5.172 0 10.031 1.266 4.86 1.265 9.656 3.812v-8.5Q49.266.734 44.187-.344 39.11-1.422 33.892-1.422q-13.094 0-20.735 7.61-7.64 7.625-7.64 20.625 0 13.421 7.25 21.296Q20.016 56 32.328 56q11.031 0 17.453-7.11 6.422-7.093 6.422-19.296zm-8.984 2.64q-.094 7.36-4.125 11.75-4.032 4.407-10.672 4.407-7.516 0-12.031-4.25-4.516-4.25-5.203-11.97z" id="DejaVuSans-101"/><path d="M18.11 8.203v-29H9.077v75.484h9.031v-8.296q2.844 4.875 7.157 7.234Q29.594 56 35.594 56q9.968 0 16.187-7.906 6.235-7.907 6.235-20.797T51.78 6.484q-6.218-7.906-16.187-7.906-6 0-10.328 2.375-4.313 2.375-7.157 7.25zm30.578 19.094q0 9.906-4.079 15.547-4.078 5.64-11.203 5.64-7.14 0-11.218-5.64-4.079-5.64-4.079-15.547 0-9.906 4.078-15.547 4.079-5.64 11.22-5.64 7.124 0 11.202 5.64t4.078 15.547z" id="DejaVuSans-112"/></defs><g transform="matrix(.1 0 0 -.1 217.888 305.388)"><use xlink:href="#DejaVuSans-115"/><use x="52.1" xlink:href="#DejaVuSans-116"/><use x="91.309" xlink:href="#DejaVuSans-101"/><use x="152.832" xlink:href="#DejaVuSans-112"/></g></g></g><g id="matplotlib.axis_2"><g id="ytick_1"><path clip-path="url(#p6a3922e967)" d="M50.144 277.111h357.12" fill="none" stroke="#b0b0b0" stroke-linecap="square" stroke-width=".8" id="line2d_13"/><g id="line2d_14"><defs><path d="M0 0h-3.5" id="mdf0fd72662" stroke="#000" stroke-width=".8"/></defs><use x="50.144" xlink:href="#mdf0fd72662" y="277.111" stroke="#000" stroke-width=".8"/></g><g id="text_8"><defs><path d="M10.688 12.406H21V0H10.687z" id="DejaVuSans-46"/><path d="M10.984 1.516V10.5q3.72-1.766 7.516-2.688 3.813-.921 7.484-.921 9.766 0 14.907 6.562 5.156 6.563 5.89 19.953-2.828-4.203-7.187-6.453-4.344-2.25-9.61-2.25-10.937 0-17.312 6.61-6.375 6.625-6.375 18.109 0 11.219 6.64 18 6.641 6.797 17.672 6.797 12.657 0 19.313-9.703 6.672-9.688 6.672-28.141 0-17.234-8.188-27.516Q40.234-1.42 26.422-1.42q-3.719 0-7.531.734-3.797.734-7.907 2.203zM30.61 32.422q6.641 0 10.516 4.531 3.89 4.547 3.89 12.469 0 7.86-3.89 12.422-3.875 4.562-10.516 4.562-6.64 0-10.515-4.562-3.875-4.563-3.875-12.422 0-7.922 3.875-12.469 3.875-4.531 10.515-4.531z" id="DejaVuSans-57"/></defs><g transform="matrix(.1 0 0 -.1 20.878 280.91)"><use xlink:href="#DejaVuSans-48"/><use x="63.623" xlink:href="#DejaVuSans-46"/><use x="95.41" xlink:href="#DejaVuSans-57"/><use x="159.033" xlink:href="#DejaVuSans-51"/></g></g></g><g id="ytick_2"><path clip-path="url(#p6a3922e967)" d="M50.144 239.095h357.12" fill="none" stroke="#b0b0b0" stroke-linecap="square" stroke-width=".8" id="line2d_15"/><use x="50.144" xlink:href="#mdf0fd72662" y="239.095" stroke="#000" stroke-width=".8" id="line2d_16"/><g transform="matrix(.1 0 0 -.1 20.878 242.894)" id="text_9"><use xlink:href="#DejaVuSans-48"/><use x="63.623" xlink:href="#DejaVuSans-46"/><use x="95.41" xlink:href="#DejaVuSans-57"/><use x="159.033" xlink:href="#DejaVuSans-52"/></g></g><g id="ytick_3"><path clip-path="url(#p6a3922e967)" d="M50.144 201.08h357.12" fill="none" stroke="#b0b0b0" stroke-linecap="square" stroke-width=".8" id="line2d_17"/><use x="50.144" xlink:href="#mdf0fd72662" y="201.079" stroke="#000" stroke-width=".8" id="line2d_18"/><g transform="matrix(.1 0 0 -.1 20.878 204.878)" id="text_10"><use xlink:href="#DejaVuSans-48"/><use x="63.623" xlink:href="#DejaVuSans-46"/><use x="95.41" xlink:href="#DejaVuSans-57"/><use x="159.033" xlink:href="#DejaVuSans-53"/></g></g><g id="ytick_4"><path clip-path="url(#p6a3922e967)" d="M50.144 163.063h357.12" fill="none" stroke="#b0b0b0" stroke-linecap="square" stroke-width=".8" id="line2d_19"/><use x="50.144" xlink:href="#mdf0fd72662" y="163.063" stroke="#000" stroke-width=".8" id="line2d_20"/><g id="text_11"><defs><path d="M33.016 40.375q-6.641 0-10.532-4.547-3.875-4.531-3.875-12.437 0-7.86 3.875-12.438 3.891-4.562 10.532-4.562 6.64 0 10.515 4.562 3.875 4.578 3.875 12.438 0 7.906-3.875 12.437-3.875 4.547-10.515 4.547zm19.578 30.922v-8.984q-3.719 1.75-7.5 2.671-3.782.938-7.5.938-9.766 0-14.922-6.594-5.14-6.594-5.875-19.922 2.875 4.25 7.219 6.516 4.359 2.266 9.578 2.266 10.984 0 17.36-6.672 6.374-6.657 6.374-18.125 0-11.235-6.64-18.032-6.641-6.78-17.672-6.78-12.657 0-19.344 9.687-6.688 9.703-6.688 28.109 0 17.281 8.204 27.563 8.203 10.28 22.015 10.28 3.719 0 7.5-.734t7.89-2.187z" id="DejaVuSans-54"/></defs><g transform="matrix(.1 0 0 -.1 20.878 166.862)"><use xlink:href="#DejaVuSans-48"/><use x="63.623" xlink:href="#DejaVuSans-46"/><use x="95.41" xlink:href="#DejaVuSans-57"/><use x="159.033" xlink:href="#DejaVuSans-54"/></g></g></g><g id="ytick_5"><path clip-path="url(#p6a3922e967)" d="M50.144 125.047h357.12" fill="none" stroke="#b0b0b0" stroke-linecap="square" stroke-width=".8" id="line2d_21"/><use x="50.144" xlink:href="#mdf0fd72662" y="125.047" stroke="#000" stroke-width=".8" id="line2d_22"/><g id="text_12"><defs><path d="M8.203 72.906h46.875v-4.203L28.61 0H18.312L43.22 64.594H8.203z" id="DejaVuSans-55"/></defs><g transform="matrix(.1 0 0 -.1 20.878 128.846)"><use xlink:href="#DejaVuSans-48"/><use x="63.623" xlink:href="#DejaVuSans-46"/><use x="95.41" xlink:href="#DejaVuSans-57"/><use x="159.033" xlink:href="#DejaVuSans-55"/></g></g></g><g id="ytick_6"><path clip-path="url(#p6a3922e967)" d="M50.144 87.031h357.12" fill="none" stroke="#b0b0b0" stroke-linecap="square" stroke-width=".8" id="line2d_23"/><use x="50.144" xlink:href="#mdf0fd72662" y="87.031" stroke="#000" stroke-width=".8" id="line2d_24"/><g id="text_13"><defs><path d="M31.781 34.625q-7.031 0-11.062-3.766-4.016-3.765-4.016-10.343 0-6.594 4.016-10.36Q24.75 6.391 31.78 6.391q7.032 0 11.078 3.78 4.063 3.798 4.063 10.345 0 6.578-4.031 10.343-4.016 3.766-11.11 3.766zm-9.86 4.188q-6.343 1.562-9.89 5.906Q8.5 49.079 8.5 55.329q0 8.733 6.219 13.812 6.234 5.078 17.062 5.078 10.89 0 17.094-5.078 6.203-5.079 6.203-13.813 0-6.25-3.547-10.61-3.531-4.343-9.828-5.906 7.125-1.656 11.094-6.5 3.984-4.828 3.984-11.796 0-10.61-6.468-16.282-6.47-5.656-18.532-5.656-12.047 0-18.531 5.656-6.469 5.672-6.469 16.282 0 6.968 4 11.797 4.016 4.843 11.14 6.5zM18.314 54.39q0-5.657 3.53-8.828 3.548-3.172 9.938-3.172 6.36 0 9.938 3.172 3.593 3.171 3.593 8.828 0 5.672-3.593 8.843-3.578 3.172-9.938 3.172-6.39 0-9.937-3.172-3.532-3.172-3.532-8.843z" id="DejaVuSans-56"/></defs><g transform="matrix(.1 0 0 -.1 20.878 90.83)"><use xlink:href="#DejaVuSans-48"/><use x="63.623" xlink:href="#DejaVuSans-46"/><use x="95.41" xlink:href="#DejaVuSans-57"/><use x="159.033" xlink:href="#DejaVuSans-56"/></g></g></g><g id="ytick_7"><path clip-path="url(#p6a3922e967)" d="M50.144 49.015h357.12" fill="none" stroke="#b0b0b0" stroke-linecap="square" stroke-width=".8" id="line2d_25"/><use x="50.144" xlink:href="#mdf0fd72662" y="49.015" stroke="#000" stroke-width=".8" id="line2d_26"/><g transform="matrix(.1 0 0 -.1 20.878 52.814)" id="text_14"><use xlink:href="#DejaVuSans-48"/><use x="63.623" xlink:href="#DejaVuSans-46"/><use x="95.41" xlink:href="#DejaVuSans-57"/><use x="159.033" xlink:href="#DejaVuSans-57"/></g></g><g id="ytick_8"><path clip-path="url(#p6a3922e967)" d="M50.144 11h357.12" fill="none" stroke="#b0b0b0" stroke-linecap="square" stroke-width=".8" id="line2d_27"/><use x="50.144" xlink:href="#mdf0fd72662" y="10.999" stroke="#000" stroke-width=".8" id="line2d_28"/><g transform="matrix(.1 0 0 -.1 20.878 14.798)" id="text_15"><use xlink:href="#DejaVuSans-49"/><use x="63.623" xlink:href="#DejaVuSans-46"/><use x="95.41" xlink:href="#DejaVuSans-48"/><use x="159.033" xlink:href="#DejaVuSans-48"/></g></g><g id="text_16"><defs><path d="M34.281 27.484q-10.89 0-15.093-2.484-4.204-2.484-4.204-8.5 0-4.781 3.157-7.594 3.156-2.797 8.562-2.797 7.485 0 12 5.297 4.516 5.297 4.516 14.078v2zm17.922 3.72V0H43.22v8.297Q40.14 3.328 35.547.953q-4.594-2.375-11.234-2.375-8.391 0-13.36 4.719Q6 8.016 6 15.922q0 9.219 6.172 13.906 6.187 4.688 18.437 4.688h12.61v.89q0 6.203-4.078 9.594-4.078 3.39-11.453 3.39-4.688 0-9.141-1.124-4.438-1.125-8.531-3.375v8.312q4.921 1.906 9.562 2.844 4.64.953 9.031.953 11.875 0 17.735-6.156 5.86-6.14 5.86-18.64z" id="DejaVuSans-97"/><path d="M2.984 54.688H12.5L29.594 8.797l17.093 45.89h9.516L35.687 0H23.485z" id="DejaVuSans-118"/><path d="M41.11 46.297q-1.516.875-3.297 1.281Q36.03 48 33.89 48q-7.625 0-11.703-4.953-4.079-4.953-4.079-14.234V0H9.08v54.688h9.03v-8.5q2.844 4.984 7.375 7.39Q30.031 56 36.531 56q.922 0 2.047-.125 1.125-.11 2.484-.36z" id="DejaVuSans-114"/><path d="M45.406 27.984q0 9.766-4.031 15.125-4.016 5.375-11.297 5.375-7.219 0-11.25-5.375-4.031-5.359-4.031-15.125 0-9.718 4.031-15.093t11.25-5.375q7.281 0 11.297 5.375 4.031 5.375 4.031 15.093zm8.985-21.203q0-13.953-6.203-20.765Q42-20.797 29.203-20.797q-4.734 0-8.937.703-4.203.703-8.157 2.172v8.735q3.954-2.141 7.813-3.157 3.86-1.031 7.86-1.031 8.843 0 13.234 4.61 4.39 4.609 4.39 13.937v4.453q-2.781-4.844-7.125-7.234Q33.938 0 27.875 0 17.828 0 11.672 7.656q-6.156 7.672-6.156 20.328 0 12.688 6.156 20.344Q17.828 56 27.875 56q6.063 0 10.406-2.39 4.344-2.391 7.125-7.22v8.297h8.985z" id="DejaVuSans-103"/><path d="M48.781 52.594v-8.407q-3.812 2.11-7.64 3.157-3.828 1.047-7.735 1.047-8.75 0-13.593-5.547-4.829-5.532-4.829-15.547 0-10.016 4.829-15.563 4.843-5.53 13.593-5.53 3.907 0 7.735 1.046 3.828 1.047 7.64 3.156V2.094Q45.016.344 40.984-.531q-4.015-.89-8.562-.89-12.36 0-19.64 7.765-7.266 7.765-7.266 20.953 0 13.375 7.343 21.031Q20.22 56 33.016 56q4.14 0 8.093-.86 3.953-.843 7.672-2.546z" id="DejaVuSans-99"/><path d="M9.422 75.984h8.984V0H9.422z" id="DejaVuSans-108"/><path d="M14.797 27.297q0-9.906 4.078-15.547 4.078-5.64 11.203-5.64 7.125 0 11.219 5.64 4.11 5.64 4.11 15.547 0 9.906-4.11 15.547-4.094 5.64-11.219 5.64-7.125 0-11.203-5.64-4.078-5.64-4.078-15.547zm30.61-19.094Q42.577 3.328 38.25.953q-4.313-2.375-10.375-2.375-9.906 0-16.14 7.906-6.22 7.922-6.22 20.813 0 12.89 6.22 20.797Q17.968 56 27.874 56q6.063 0 10.375-2.375 4.328-2.36 7.156-7.234v8.297h8.985v-75.485h-8.985z" id="DejaVuSans-113"/><path d="M8.5 21.578v33.11h8.984V21.922q0-7.766 3.016-11.656 3.031-3.875 9.094-3.875 7.265 0 11.484 4.64 4.234 4.64 4.234 12.656v31h8.985V0h-8.984v8.406Q42.047 3.422 37.718 1q-4.313-2.422-10.032-2.422-9.421 0-14.312 5.86Q8.5 10.296 8.5 21.578zM31.11 56z" id="DejaVuSans-117"/><path d="M9.422 54.688h8.984V0H9.422zm0 21.296h8.984v-11.39H9.422z" id="DejaVuSans-105"/><path d="M32.172-5.078q-3.797-9.766-7.422-12.735-3.61-2.984-9.656-2.984H7.906v7.516h5.282q3.703 0 5.75 1.765Q21-9.766 23.483-3.219l1.61 4.094-22.11 53.813H12.5l17.094-42.766 17.093 42.766h9.516z" id="DejaVuSans-121"/></defs><g transform="matrix(0 -.1 -.1 0 14.798 193.412)"><use xlink:href="#DejaVuSans-97"/><use x="61.279" xlink:href="#DejaVuSans-118"/><use x="120.459" xlink:href="#DejaVuSans-101"/><use x="181.982" xlink:href="#DejaVuSans-114"/><use x="223.096" xlink:href="#DejaVuSans-97"/><use x="284.375" xlink:href="#DejaVuSans-103"/><use x="347.852" xlink:href="#DejaVuSans-101"/><use x="409.375" xlink:href="#DejaVuSans-32"/><use x="441.162" xlink:href="#DejaVuSans-99"/><use x="496.143" xlink:href="#DejaVuSans-101"/><use x="557.666" xlink:href="#DejaVuSans-108"/><use x="585.449" xlink:href="#DejaVuSans-108"/><use x="613.232" xlink:href="#DejaVuSans-32"/><use x="645.02" xlink:href="#DejaVuSans-113"/><use x="708.496" xlink:href="#DejaVuSans-117"/><use x="771.875" xlink:href="#DejaVuSans-97"/><use x="833.154" xlink:href="#DejaVuSans-108"/><use x="860.938" xlink:href="#DejaVuSans-105"/><use x="888.721" xlink:href="#DejaVuSans-116"/><use x="927.93" xlink:href="#DejaVuSans-121"/></g></g></g><path clip-path="url(#p6a3922e967)" d="M69.908 315.667l1.663-4.014 7.142-25.385 7.143-31.064 7.142-22.597 7.143-28.85 7.142-24.291 7.142-7.936 7.143-2.01 7.142-5.034 7.143-4.995 7.142-1.615 7.142-9.497 7.143-11.152 7.142-7.267 7.143-5.49 7.142-3.038 7.142-.983 7.143-1.834 7.142-1.271 7.143-.575 7.142-.033 7.142-.381 7.143-.333 7.142-1.356 7.143-.981 7.142-.253 7.142-1.196 7.143-.663 7.142.086 7.143.854 7.142-.659 7.142-1.251 7.143-.665 7.142-.598 7.143-1.554 7.142-1.474 7.142-.78 7.143-.463 7.142-.223 7.143-.07 7.142.044 7.142.148 7.143.019 7.142-.547 7.143-.592 7.142-.616 7.142-.457 7.143-.299" fill="none" stroke="#1f77b4" stroke-linecap="square" stroke-width="1.5" id="line2d_29"/><path clip-path="url(#p6a3922e967)" d="M68.606 315.667l2.965-8.664 7.142-14.297 7.143-15.689 7.142-11.345 7.143-14.261 7.142-12.83 7.142-15.513 7.143-14.74 7.142-14.44 7.143-9.614 7.142-4.857 7.142-4.03 7.143-6.392 7.142-5.42 7.143-3.254 7.142-2.782 7.142-2.133 7.143-1.27 7.142-.584 7.143-.043 7.142.411 7.142.228 7.143.188 7.142.019 7.143-.964 7.142-1.3 7.142-2.003 7.143-1.696 7.142-1.393 7.143-1.46 7.142-.874 7.142-.603 7.143-1.422 7.142-1.657 7.143-1.208 7.142-.697 7.142-.196 7.143-.974 7.142-.816 7.143-.544 7.142-.335 7.142-.675 7.143-.897 7.142-.683 7.143-.895 7.142-.807 7.142-.63 7.143-.597" fill="none" stroke="#ff7f0e" stroke-linecap="square" stroke-width="1.5" id="line2d_30"/><path clip-path="url(#p6a3922e967)" d="M69.4 315.667l2.17-5.78 7.143-16.254 7.143-12.816 7.142-12.603 7.143-12.894 7.142-14.26 7.142-15.24 7.143-14.331 7.142-13.524 7.143-9.731 7.142-6.173 7.142-4.777 7.143-5.385 7.142-5.649 7.143-4.12 7.142-2.95 7.142-2.7 7.143-1.757 7.142-1.003 7.143-.417 7.142.05 7.142.435 7.143.621 7.142.22 7.143.223 7.142-.41 7.142-1.454 7.143-1.763 7.142-1.71 7.143-1.47 7.142-1.53 7.142-1.247 7.143-1.757 7.142-1.299 7.143-.807 7.142-.305 7.142-.68 7.143-.818 7.142-1.154 7.143-1.292 7.142-1.045 7.142-.776 7.143-.502 7.142-.234 7.143.022 7.142.118 7.142-.164 7.143-.314" fill="none" stroke="#2ca02c" stroke-linecap="square" stroke-width="1.5" id="line2d_31"/><path clip-path="url(#p6a3922e967)" d="M80.494 315.667l5.362-6.36 7.142-7.98 7.143-10.137 7.142-7.608 7.142-7.768 7.143-7.032 7.142-5.463 7.143-6.45 7.142-8.184 7.142-8.947 7.143-8.26 7.142-9.274 7.143-8.179 7.142-7.254 7.142-6.06 7.143-4.694 7.142-4.317 7.143-4.956 7.142-4.852 7.142-4.352 7.143-3.722 7.142-2.862 7.143-2.12 7.142-1.644 7.142-2.054 7.143-2.235 7.142-1.905 7.143-1.608 7.142-1.335 7.142-1.086 7.143-.999 7.142-.857 7.143-.685 7.142-.53 7.142-.391 7.143-.264 7.142-.146 7.143-.034 7.142.075 7.142.184 7.143.297 7.142-.351 7.143-.518 7.142-.458 7.142-.38 7.143-.364" fill="none" stroke="#d62728" stroke-linecap="square" stroke-width="1.5" id="line2d_32"/><path clip-path="url(#p6a3922e967)" d="M63.061 315.667l1.368-8.735 7.142-35.004 7.142-8.202 7.143-2.724 7.142.45 7.143.777 7.142.155 7.142-1.075 7.143-2.849 7.142-4.23 7.143-2.703 7.142-3.016 7.142-3.745 7.143-3.802 7.142-1.502 7.143-1.372 7.142-.43 7.142.312 7.143-7.672 7.142-11.803 7.143-.315 7.142-1.24 7.142-1.346 7.143-2.571 7.142-2.854 7.143-1.523 7.142-2.893 7.142-3.352 7.143-4.27 7.142-3.412 7.143-.825 7.142.081 7.142-.074 7.143-.589 7.142-1.562 7.143-4.039 7.142-.794 7.142-.24 7.143-1.114 7.142-2.246 7.143-2.152 7.142-1.268 7.142-.484 7.143-.092 7.142.03 7.143.047 7.142-.13 7.142-.172 7.143.325" fill="none" stroke="#9467bd" stroke-linecap="square" stroke-width="1.5" id="line2d_33"/><path clip-path="url(#p6a3922e967)" d="M55.996 315.667l1.29-13.805 7.143-19.657 7.142-17.687 7.142-5.101 7.143-6.168 7.142-6.039 7.143-6.23 7.142-1.292 7.142-.738 7.143-9.414 7.142-5.103 7.143-1.353 7.142-4.574 7.142-1.852 7.143-4.181 7.142-1.753 7.143-6.533 7.142-1.428 7.142-.535 7.143-.354 7.142-.182 7.143-.177 7.142-.066 7.142-.1 7.143-.015 7.142-.06 7.143.006 7.142-.04 7.142.015 7.143-.03 7.142.016 7.143-.024 7.142.015 7.142-.022 7.143.013 7.142-.021 7.143.011 7.142-.02 7.142.01 7.143-.021 7.142.009 7.143-.021 7.142.008 7.142-.022 7.143.008 7.142-.021 7.143.006 7.142-.02 7.142.006 7.143-.02" fill="none" stroke="#8c564b" stroke-linecap="square" stroke-width="1.5" id="line2d_34"/><path clip-path="url(#p6a3922e967)" d="M54.542 315.667l2.744-39.08 7.143-24.656 7.142-12.784 7.142-9.547 7.143-3.68 7.142-2.125 7.143-12.347 7.142-2.745 7.142-.123 7.143-.075 7.142-.053 7.143-.045 7.142-.033 7.142-.027 7.143-.022 7.142-.019 7.143-.015 7.142-.013 7.142-.011 7.143-.01 7.142-.008 7.143-.008 7.142-.006 7.142-.006 7.143-.005 7.142-.004 7.143-.004 7.142-.003 7.142-.004 7.143-.002 7.142-.003 7.143-.002 7.142-.002 7.142-.002 7.143-.002 7.142-.001 7.143-.001 7.142-.002h7.142l7.143-.002h7.142l7.143-.001h7.142l7.142-.001 7.143-.001h14.285l7.142-.001h7.142l7.143-.001" fill="none" stroke="#e377c2" stroke-linecap="square" stroke-width="1.5" id="line2d_35"/><path clip-path="url(#p6a3922e967)" d="M54.655 315.667l2.631-36.53 7.143-22.555L71.57 242.5l7.142-4.657 7.143-2.75 7.142-6.58 7.143-14.22 7.142-3.356 7.142-.95 7.143-.324 7.142-.3 7.143-.16 7.142-.14 7.142-.09 7.143-.08 7.142-.057 7.143-.05 7.142-.04 7.142-.035 7.143-.03 7.142-.028 7.143-.024 7.142-.022 7.142-.02 7.143-.02 7.142-.018 7.143-.017 7.142-.015 7.142-.015 7.143-.015 7.142-.013 7.143-.013 7.142-.012 7.142-.012 7.143-.011 7.142-.01 7.143-.01 7.142-.01 7.142-.01 7.143-.009 7.142-.008 7.143-.008 7.142-.008 7.142-.007 7.143-.007 7.142-.007 7.143-.006 7.142-.006 7.142-.006 7.143-.005" fill="none" stroke="#7f7f7f" stroke-linecap="square" stroke-width="1.5" id="line2d_36"/><path d="M50.144 277.111V11" fill="none" stroke="#000" stroke-linecap="square" stroke-width=".8" id="patch_3"/><path d="M407.264 277.111V11" fill="none" stroke="#000" stroke-linecap="square" stroke-width=".8" id="patch_4"/><path d="M50.144 277.111h357.12" fill="none" stroke="#000" stroke-linecap="square" stroke-width=".8" id="patch_5"/><path d="M50.144 11h357.12" fill="none" stroke="#000" stroke-linecap="square" stroke-width=".8" id="patch_6"/><g id="legend_1"><path d="M419.977 131.424h141.144q2 0 2-2V13q0-2-2-2H419.977q-2 0-2 2v116.425q0 2 2 2z" fill="#fff" opacity=".8" stroke="#ccc" id="patch_7"/><path d="M421.977 19.098h20" fill="none" stroke="#1f77b4" stroke-linecap="square" stroke-width="1.5" id="line2d_37"/><g id="text_17"><defs><path d="M4.89 31.39h26.313v-8H4.891z" id="DejaVuSans-45"/><path d="M54.89 33.016V0h-8.984v32.719q0 7.765-3.031 11.61-3.031 3.858-9.078 3.858-7.281 0-11.484-4.64-4.204-4.625-4.204-12.64V0H9.08v54.688h9.03v-8.5q3.235 4.937 7.594 7.374Q30.078 56 35.797 56q9.422 0 14.25-5.828 4.844-5.828 4.844-17.156z" id="DejaVuSans-110"/><path d="M37.11 75.984V68.5h-8.594q-4.828 0-6.72-1.953-1.874-1.953-1.874-7.031v-4.828h14.797v-6.985H19.922V0H10.89v47.703H2.297v6.984h8.594V58.5q0 9.125 4.25 13.297 4.25 4.187 13.468 4.187z" id="DejaVuSans-102"/><path d="M30.61 48.39q-7.22 0-11.422-5.64-4.204-5.64-4.204-15.453 0-9.813 4.172-15.453 4.188-5.64 11.453-5.64 7.188 0 11.375 5.655 4.203 5.672 4.203 15.438 0 9.719-4.203 15.406-4.187 5.688-11.375 5.688zm0 7.61q11.718 0 18.406-7.625 6.703-7.61 6.703-21.078 0-13.422-6.703-21.078-6.688-7.64-18.407-7.64-11.765 0-18.437 7.64-6.656 7.656-6.656 21.078 0 13.469 6.656 21.078Q18.844 56 30.609 56z" id="DejaVuSans-111"/><path d="M52 44.188q3.375 6.062 8.063 8.937Q64.75 56 71.093 56q8.548 0 13.188-5.984 4.64-5.97 4.64-17V0h-9.03v32.719q0 7.86-2.797 11.656-2.781 3.813-8.485 3.813-6.984 0-11.046-4.641-4.047-4.625-4.047-12.64V0h-9.032v32.719q0 7.906-2.78 11.687-2.782 3.782-8.595 3.782-6.89 0-10.953-4.657-4.047-4.656-4.047-12.625V0H9.08v54.688h9.03v-8.5q3.078 5.03 7.375 7.421Q29.781 56 35.687 56q5.97 0 10.141-3.031Q50 49.953 52 44.187z" id="DejaVuSans-109"/></defs><g transform="matrix(.1 0 0 -.1 449.977 22.598)"><use xlink:href="#DejaVuSans-99"/><use x="54.98" xlink:href="#DejaVuSans-118"/><use x="114.16" xlink:href="#DejaVuSans-116"/><use x="153.369" xlink:href="#DejaVuSans-45"/><use x="189.453" xlink:href="#DejaVuSans-117"/><use x="252.832" xlink:href="#DejaVuSans-110"/><use x="316.211" xlink:href="#DejaVuSans-105"/><use x="343.994" xlink:href="#DejaVuSans-102"/><use x="379.199" xlink:href="#DejaVuSans-111"/><use x="440.381" xlink:href="#DejaVuSans-114"/><use x="481.479" xlink:href="#DejaVuSans-109"/><use x="578.891" xlink:href="#DejaVuSans-45"/><use x="614.975" xlink:href="#DejaVuSans-113"/><use x="678.451" xlink:href="#DejaVuSans-110"/><use x="741.83" xlink:href="#DejaVuSans-102"/></g></g><path d="M421.977 33.776h20" fill="none" stroke="#ff7f0e" stroke-linecap="square" stroke-width="1.5" id="line2d_39"/><g id="text_18"><defs><path d="M45.406 46.39v29.594h8.985V0h-8.985v8.203Q42.578 3.328 38.25.953q-4.313-2.375-10.375-2.375-9.906 0-16.14 7.906-6.22 7.922-6.22 20.813 0 12.89 6.22 20.797Q17.968 56 27.874 56q6.063 0 10.375-2.375 4.328-2.36 7.156-7.234zm-30.61-19.093q0-9.906 4.079-15.547 4.078-5.64 11.203-5.64 7.125 0 11.219 5.64 4.11 5.64 4.11 15.547 0 9.906-4.11 15.547-4.094 5.64-11.219 5.64-7.125 0-11.203-5.64-4.078-5.64-4.078-15.547z" id="DejaVuSans-100"/><path d="M31 75.875q-6.531-11.219-9.719-22.219-3.172-10.984-3.172-22.265 0-11.266 3.203-22.328Q24.517-2 31-13.188h-7.813Q15.875-1.704 12.235 9.375q-3.64 11.078-3.64 22.016 0 10.89 3.61 21.922 3.624 11.046 10.983 22.562z" id="DejaVuSans-40"/><path d="M8.016 75.875h7.812q7.313-11.516 10.953-22.563 3.64-11.03 3.64-21.921 0-10.938-3.64-22.016-3.64-11.078-10.953-22.563H8.016Q14.5-2 17.703 9.063q3.203 11.063 3.203 22.329 0 11.28-3.203 22.265-3.203 11-9.687 22.219z" id="DejaVuSans-41"/></defs><g transform="matrix(.1 0 0 -.1 449.977 37.276)"><use xlink:href="#DejaVuSans-99"/><use x="54.98" xlink:href="#DejaVuSans-118"/><use x="114.16" xlink:href="#DejaVuSans-116"/><use x="153.369" xlink:href="#DejaVuSans-45"/><use x="189.453" xlink:href="#DejaVuSans-117"/><use x="252.832" xlink:href="#DejaVuSans-110"/><use x="316.211" xlink:href="#DejaVuSans-105"/><use x="343.994" xlink:href="#DejaVuSans-102"/><use x="379.199" xlink:href="#DejaVuSans-111"/><use x="440.381" xlink:href="#DejaVuSans-114"/><use x="481.479" xlink:href="#DejaVuSans-109"/><use x="578.891" xlink:href="#DejaVuSans-45"/><use x="614.975" xlink:href="#DejaVuSans-108"/><use x="642.758" xlink:href="#DejaVuSans-108"/><use x="670.541" xlink:href="#DejaVuSans-111"/><use x="731.723" xlink:href="#DejaVuSans-121"/><use x="790.902" xlink:href="#DejaVuSans-100"/><use x="854.379" xlink:href="#DejaVuSans-40"/><use x="893.393" xlink:href="#DejaVuSans-50"/><use x="957.016" xlink:href="#DejaVuSans-46"/><use x="988.803" xlink:href="#DejaVuSans-48"/><use x="1052.426" xlink:href="#DejaVuSans-41"/></g></g><path d="M421.977 48.454h20" fill="none" stroke="#2ca02c" stroke-linecap="square" stroke-width="1.5" id="line2d_41"/><g id="text_19"><defs><path d="M48.688 27.297q0 9.906-4.079 15.547-4.078 5.64-11.203 5.64-7.14 0-11.218-5.64-4.079-5.64-4.079-15.547 0-9.906 4.078-15.547 4.079-5.64 11.22-5.64 7.124 0 11.202 5.64t4.078 15.547zM18.108 46.39q2.844 4.875 7.157 7.234Q29.594 56 35.594 56q9.968 0 16.187-7.906 6.235-7.907 6.235-20.797T51.78 6.484q-6.218-7.906-16.187-7.906-6 0-10.328 2.375-4.313 2.375-7.157 7.25V0H9.08v75.984h9.03z" id="DejaVuSans-98"/></defs><g transform="matrix(.1 0 0 -.1 449.977 51.954)"><use xlink:href="#DejaVuSans-99"/><use x="54.98" xlink:href="#DejaVuSans-118"/><use x="114.16" xlink:href="#DejaVuSans-116"/><use x="153.369" xlink:href="#DejaVuSans-45"/><use x="189.453" xlink:href="#DejaVuSans-117"/><use x="252.832" xlink:href="#DejaVuSans-110"/><use x="316.211" xlink:href="#DejaVuSans-105"/><use x="343.994" xlink:href="#DejaVuSans-102"/><use x="379.199" xlink:href="#DejaVuSans-111"/><use x="440.381" xlink:href="#DejaVuSans-114"/><use x="481.479" xlink:href="#DejaVuSans-109"/><use x="578.891" xlink:href="#DejaVuSans-45"/><use x="614.975" xlink:href="#DejaVuSans-113"/><use x="678.451" xlink:href="#DejaVuSans-110"/><use x="741.83" xlink:href="#DejaVuSans-98"/></g></g><path d="M421.977 63.132h20" fill="none" stroke="#d62728" stroke-linecap="square" stroke-width="1.5" id="line2d_43"/><g transform="matrix(.1 0 0 -.1 449.977 66.632)" id="text_20"><use xlink:href="#DejaVuSans-99"/><use x="54.98" xlink:href="#DejaVuSans-118"/><use x="114.16" xlink:href="#DejaVuSans-116"/><use x="153.369" xlink:href="#DejaVuSans-45"/><use x="189.453" xlink:href="#DejaVuSans-117"/><use x="252.832" xlink:href="#DejaVuSans-110"/><use x="316.211" xlink:href="#DejaVuSans-105"/><use x="343.994" xlink:href="#DejaVuSans-102"/><use x="379.199" xlink:href="#DejaVuSans-111"/><use x="440.381" xlink:href="#DejaVuSans-114"/><use x="481.479" xlink:href="#DejaVuSans-109"/><use x="578.891" xlink:href="#DejaVuSans-45"/><use x="614.975" xlink:href="#DejaVuSans-108"/><use x="642.758" xlink:href="#DejaVuSans-108"/><use x="670.541" xlink:href="#DejaVuSans-111"/><use x="731.723" xlink:href="#DejaVuSans-121"/><use x="790.902" xlink:href="#DejaVuSans-100"/></g><path d="M421.977 77.81h20" fill="none" stroke="#9467bd" stroke-linecap="square" stroke-width="1.5" id="line2d_45"/><g transform="matrix(.1 0 0 -.1 449.977 81.31)" id="text_21"><use xlink:href="#DejaVuSans-111"/><use x="61.182" xlink:href="#DejaVuSans-100"/><use x="124.658" xlink:href="#DejaVuSans-116"/><use x="163.867" xlink:href="#DejaVuSans-45"/><use x="199.951" xlink:href="#DejaVuSans-117"/><use x="263.33" xlink:href="#DejaVuSans-110"/><use x="326.709" xlink:href="#DejaVuSans-105"/><use x="354.492" xlink:href="#DejaVuSans-102"/><use x="389.697" xlink:href="#DejaVuSans-111"/><use x="450.879" xlink:href="#DejaVuSans-114"/><use x="491.977" xlink:href="#DejaVuSans-109"/><use x="589.389" xlink:href="#DejaVuSans-45"/><use x="625.473" xlink:href="#DejaVuSans-98"/><use x="688.949" xlink:href="#DejaVuSans-102"/><use x="724.154" xlink:href="#DejaVuSans-103"/><use x="787.631" xlink:href="#DejaVuSans-115"/></g><path d="M421.977 92.488h20" fill="none" stroke="#8c564b" stroke-linecap="square" stroke-width="1.5" id="line2d_47"/><g transform="matrix(.1 0 0 -.1 449.977 95.988)" id="text_22"><use xlink:href="#DejaVuSans-111"/><use x="61.182" xlink:href="#DejaVuSans-100"/><use x="124.658" xlink:href="#DejaVuSans-116"/><use x="163.867" xlink:href="#DejaVuSans-45"/><use x="199.951" xlink:href="#DejaVuSans-117"/><use x="263.33" xlink:href="#DejaVuSans-110"/><use x="326.709" xlink:href="#DejaVuSans-105"/><use x="354.492" xlink:href="#DejaVuSans-102"/><use x="389.697" xlink:href="#DejaVuSans-111"/><use x="450.879" xlink:href="#DejaVuSans-114"/><use x="491.977" xlink:href="#DejaVuSans-109"/><use x="589.389" xlink:href="#DejaVuSans-45"/><use x="625.473" xlink:href="#DejaVuSans-102"/><use x="660.678" xlink:href="#DejaVuSans-112"/></g><path d="M421.977 107.166h20" fill="none" stroke="#e377c2" stroke-linecap="square" stroke-width="1.5" id="line2d_49"/><g transform="matrix(.1 0 0 -.1 449.977 110.666)" id="text_23"><use xlink:href="#DejaVuSans-99"/><use x="54.98" xlink:href="#DejaVuSans-112"/><use x="118.457" xlink:href="#DejaVuSans-116"/><use x="157.666" xlink:href="#DejaVuSans-45"/><use x="193.75" xlink:href="#DejaVuSans-117"/><use x="257.129" xlink:href="#DejaVuSans-110"/><use x="320.508" xlink:href="#DejaVuSans-105"/><use x="348.291" xlink:href="#DejaVuSans-102"/><use x="383.496" xlink:href="#DejaVuSans-111"/><use x="444.678" xlink:href="#DejaVuSans-114"/><use x="485.775" xlink:href="#DejaVuSans-109"/><use x="583.188" xlink:href="#DejaVuSans-45"/><use x="619.271" xlink:href="#DejaVuSans-113"/><use x="682.748" xlink:href="#DejaVuSans-110"/></g><path d="M421.977 121.845h20" fill="none" stroke="#7f7f7f" stroke-linecap="square" stroke-width="1.5" id="line2d_51"/><g transform="matrix(.1 0 0 -.1 449.977 125.345)" id="text_24"><use xlink:href="#DejaVuSans-99"/><use x="54.98" xlink:href="#DejaVuSans-112"/><use x="118.457" xlink:href="#DejaVuSans-116"/><use x="157.666" xlink:href="#DejaVuSans-45"/><use x="193.75" xlink:href="#DejaVuSans-117"/><use x="257.129" xlink:href="#DejaVuSans-110"/><use x="320.508" xlink:href="#DejaVuSans-105"/><use x="348.291" xlink:href="#DejaVuSans-102"/><use x="383.496" xlink:href="#DejaVuSans-111"/><use x="444.678" xlink:href="#DejaVuSans-114"/><use x="485.775" xlink:href="#DejaVuSans-109"/><use x="583.188" xlink:href="#DejaVuSans-45"/><use x="619.271" xlink:href="#DejaVuSans-102"/><use x="654.477" xlink:href="#DejaVuSans-112"/></g></g></g></g><defs><clipPath id="p6a3922e967"><path d="M50.144 10.999h357.12v266.112H50.144z"/></clipPath></defs></svg>