<svg height="419.557" viewBox="0 0 424.007 314.667" width="565.343" xmlns="http://www.w3.org/2000/svg" xmlns:xlink="http://www.w3.org/1999/xlink"><defs><style>*{stroke-linecap:butt;stroke-linejoin:round}</style></defs><g id="figure_1"><path d="M0 314.667h424.007V0H0z" fill="none" id="patch_1"/><g id="axes_1"><path d="M50.144 277.111h357.12V11H50.144z" fill="none" id="patch_2"/><g id="matplotlib.axis_1"><g id="xtick_1"><path clip-path="url(#p6a204cf98d)" d="M50.144 277.111V11" fill="none" stroke="#b0b0b0" stroke-linecap="square" stroke-width=".8" id="line2d_1"/><g id="line2d_2"><defs><path d="M0 0v3.5" id="m8c82e4f52d" stroke="#000" stroke-width=".8"/></defs><use x="50.144" xlink:href="#m8c82e4f52d" y="277.111" stroke="#000" stroke-width=".8"/></g><g id="text_1"><defs><path d="M31.781 66.406q-7.61 0-11.453-7.5Q16.5 51.422 16.5 36.375q0-14.984 3.828-22.484 3.844-7.5 11.453-7.5 7.672 0 11.5 7.5 3.844 7.5 3.844 22.484 0 15.047-3.844 22.531-3.828 7.5-11.5 7.5zm0 7.813q12.266 0 18.735-9.703 6.468-9.688 6.468-28.141 0-18.406-6.468-28.11-6.47-9.687-18.735-9.687-12.25 0-18.718 9.688-6.47 9.703-6.47 28.109 0 18.453 6.47 28.14Q19.53 74.22 31.78 74.22z" id="DejaVuSans-30"/></defs><use xlink:href="#DejaVuSans-30" transform="matrix(.1 0 0 -.1 46.962 291.71)"/></g></g><g id="xtick_2"><path clip-path="url(#p6a204cf98d)" d="M121.568 277.111V11" fill="none" stroke="#b0b0b0" stroke-linecap="square" stroke-width=".8" id="line2d_3"/><use x="121.568" xlink:href="#m8c82e4f52d" y="277.111" stroke="#000" stroke-width=".8" id="line2d_4"/><g id="text_2"><defs><path d="M19.188 8.297h34.421V0H7.33v8.297q5.609 5.812 15.296 15.594 9.703 9.797 12.188 12.64 4.734 5.313 6.609 9 1.89 3.688 1.89 7.25 0 5.813-4.078 9.469-4.078 3.672-10.625 3.672-4.64 0-9.797-1.61-5.14-1.609-11-4.89v9.969Q13.767 71.78 18.938 73q5.188 1.219 9.485 1.219 11.328 0 18.062-5.672 6.735-5.656 6.735-15.125 0-4.5-1.688-8.531-1.672-4.016-6.125-9.485-1.218-1.422-7.765-8.187-6.532-6.766-18.453-18.922z" id="DejaVuSans-32"/></defs><g transform="matrix(.1 0 0 -.1 115.205 291.71)"><use xlink:href="#DejaVuSans-32"/><use x="63.623" xlink:href="#DejaVuSans-30"/></g></g></g><g id="xtick_3"><path clip-path="url(#p6a204cf98d)" d="M192.992 277.111V11" fill="none" stroke="#b0b0b0" stroke-linecap="square" stroke-width=".8" id="line2d_5"/><use x="192.992" xlink:href="#m8c82e4f52d" y="277.111" stroke="#000" stroke-width=".8" id="line2d_6"/><g id="text_3"><defs><path d="M37.797 64.313L12.89 25.39h24.906zm-2.594 8.593H47.61V25.391h10.407v-8.203H47.609V0h-9.812v17.188H4.89v9.515z" id="DejaVuSans-34"/></defs><g transform="matrix(.1 0 0 -.1 186.63 291.71)"><use xlink:href="#DejaVuSans-34"/><use x="63.623" xlink:href="#DejaVuSans-30"/></g></g></g><g id="xtick_4"><path clip-path="url(#p6a204cf98d)" d="M264.416 277.111V11" fill="none" stroke="#b0b0b0" stroke-linecap="square" stroke-width=".8" id="line2d_7"/><use x="264.416" xlink:href="#m8c82e4f52d" y="277.111" stroke="#000" stroke-width=".8" id="line2d_8"/><g id="text_4"><defs><path d="M33.016 40.375q-6.641 0-10.532-4.547-3.875-4.531-3.875-12.437 0-7.86 3.875-12.438 3.891-4.562 10.532-4.562 6.64 0 10.515 4.562 3.875 4.578 3.875 12.438 0 7.906-3.875 12.437-3.875 4.547-10.515 4.547zm19.578 30.922v-8.984q-3.719 1.75-7.5 2.671-3.782.938-7.5.938-9.766 0-14.922-6.594-5.14-6.594-5.875-19.922 2.875 4.25 7.219 6.516 4.359 2.266 9.578 2.266 10.984 0 17.36-6.672 6.374-6.657 6.374-18.125 0-11.235-6.64-18.032-6.641-6.78-17.672-6.78-12.657 0-19.344 9.687-6.688 9.703-6.688 28.109 0 17.281 8.204 27.563 8.203 10.28 22.015 10.28 3.719 0 7.5-.734t7.89-2.187z" id="DejaVuSans-36"/></defs><g transform="matrix(.1 0 0 -.1 258.053 291.71)"><use xlink:href="#DejaVuSans-36"/><use x="63.623" xlink:href="#DejaVuSans-30"/></g></g></g><g id="xtick_5"><path clip-path="url(#p6a204cf98d)" d="M335.84 277.111V11" fill="none" stroke="#b0b0b0" stroke-linecap="square" stroke-width=".8" id="line2d_9"/><use x="335.84" xlink:href="#m8c82e4f52d" y="277.111" stroke="#000" stroke-width=".8" id="line2d_10"/><g id="text_5"><defs><path d="M31.781 34.625q-7.031 0-11.062-3.766-4.016-3.765-4.016-10.343 0-6.594 4.016-10.36Q24.75 6.391 31.78 6.391q7.032 0 11.078 3.78 4.063 3.798 4.063 10.345 0 6.578-4.031 10.343-4.016 3.766-11.11 3.766zm-9.86 4.188q-6.343 1.562-9.89 5.906Q8.5 49.079 8.5 55.329q0 8.733 6.219 13.812 6.234 5.078 17.062 5.078 10.89 0 17.094-5.078 6.203-5.079 6.203-13.813 0-6.25-3.547-10.61-3.531-4.343-9.828-5.906 7.125-1.656 11.094-6.5 3.984-4.828 3.984-11.796 0-10.61-6.468-16.282-6.47-5.656-18.532-5.656-12.047 0-18.531 5.656-6.469 5.672-6.469 16.282 0 6.968 4 11.797 4.016 4.843 11.14 6.5zM18.314 54.39q0-5.657 3.53-8.828 3.548-3.172 9.938-3.172 6.36 0 9.938 3.172 3.593 3.171 3.593 8.828 0 5.672-3.593 8.843-3.578 3.172-9.938 3.172-6.39 0-9.937-3.172-3.532-3.172-3.532-8.843z" id="DejaVuSans-38"/></defs><g transform="matrix(.1 0 0 -.1 329.477 291.71)"><use xlink:href="#DejaVuSans-38"/><use x="63.623" xlink:href="#DejaVuSans-30"/></g></g></g><g id="xtick_6"><path clip-path="url(#p6a204cf98d)" d="M407.264 277.111V11" fill="none" stroke="#b0b0b0" stroke-linecap="square" stroke-width=".8" id="line2d_11"/><use x="407.264" xlink:href="#m8c82e4f52d" y="277.111" stroke="#000" stroke-width=".8" id="line2d_12"/><g id="text_6"><defs><path d="M12.406 8.297h16.11v55.625l-17.532-3.516v8.985l17.438 3.515h9.86V8.296H54.39V0H12.406z" id="DejaVuSans-31"/></defs><g transform="matrix(.1 0 0 -.1 397.72 291.71)"><use xlink:href="#DejaVuSans-31"/><use x="63.623" xlink:href="#DejaVuSans-30"/><use x="127.246" xlink:href="#DejaVuSans-30"/></g></g></g><g id="text_7"><defs><path d="M44.281 53.078v-8.5q-3.797 1.953-7.906 2.922-4.094.984-8.5.984-6.688 0-10.031-2.047-3.344-2.046-3.344-6.156 0-3.125 2.39-4.906 2.391-1.781 9.626-3.39l3.078-.688q9.562-2.047 13.593-5.781 4.032-3.735 4.032-10.422 0-7.625-6.032-12.078-6.03-4.438-16.578-4.438-4.39 0-9.156.86Q10.688.296 5.422 2v9.281q4.984-2.594 9.812-3.89 4.829-1.282 9.579-1.282 6.343 0 9.75 2.172 3.421 2.172 3.421 6.125 0 3.656-2.468 5.61-2.453 1.953-10.813 3.765l-3.125.735q-8.344 1.75-12.062 5.39-3.704 3.64-3.704 9.985 0 7.718 5.47 11.906Q16.75 56 26.811 56q4.97 0 9.36-.734 4.406-.72 8.11-2.188z" id="DejaVuSans-73"/><path d="M18.313 70.219V54.688h18.5v-6.985h-18.5V18.016q0-6.688 1.828-8.594 1.828-1.906 7.453-1.906h9.218V0h-9.218q-10.407 0-14.36 3.875-3.953 3.89-3.953 14.14v29.688H2.687v6.984h6.594V70.22z" id="DejaVuSans-74"/><path d="M56.203 29.594v-4.39H14.891q.593-9.282 5.593-14.142 5-4.859 13.938-4.859 5.172 0 10.031 1.266 4.86 1.265 9.656 3.812v-8.5Q49.266.734 44.187-.344 39.11-1.422 33.892-1.422q-13.094 0-20.735 7.61-7.64 7.625-7.64 20.625 0 13.421 7.25 21.296Q20.016 56 32.328 56q11.031 0 17.453-7.11 6.422-7.093 6.422-19.296zm-8.984 2.64q-.094 7.36-4.125 11.75-4.032 4.407-10.672 4.407-7.516 0-12.031-4.25-4.516-4.25-5.203-11.97z" id="DejaVuSans-65"/><path d="M18.11 8.203v-29H9.077v75.484h9.031v-8.296q2.844 4.875 7.157 7.234Q29.594 56 35.594 56q9.968 0 16.187-7.906 6.235-7.907 6.235-20.797T51.78 6.484q-6.218-7.906-16.187-7.906-6 0-10.328 2.375-4.313 2.375-7.157 7.25zm30.578 19.094q0 9.906-4.079 15.547-4.078 5.64-11.203 5.64-7.14 0-11.218-5.64-4.079-5.64-4.079-15.547 0-9.906 4.078-15.547 4.079-5.64 11.22-5.64 7.124 0 11.202 5.64t4.078 15.547z" id="DejaVuSans-70"/></defs><g transform="matrix(.1 0 0 -.1 217.888 305.388)"><use xlink:href="#DejaVuSans-73"/><use x="52.1" xlink:href="#DejaVuSans-74"/><use x="91.309" xlink:href="#DejaVuSans-65"/><use x="152.832" xlink:href="#DejaVuSans-70"/></g></g></g><g id="matplotlib.axis_2"><g id="ytick_1"><path clip-path="url(#p6a204cf98d)" d="M50.144 277.111h357.12" fill="none" stroke="#b0b0b0" stroke-linecap="square" stroke-width=".8" id="line2d_13"/><g id="line2d_14"><defs><path d="M0 0h-3.5" id="m767883414a" stroke="#000" stroke-width=".8"/></defs><use x="50.144" xlink:href="#m767883414a" y="277.111" stroke="#000" stroke-width=".8"/></g><g id="text_8"><defs><path d="M10.688 12.406H21V0H10.687z" id="DejaVuSans-2e"/><path d="M10.984 1.516V10.5q3.72-1.766 7.516-2.688 3.813-.921 7.484-.921 9.766 0 14.907 6.562 5.156 6.563 5.89 19.953-2.828-4.203-7.187-6.453-4.344-2.25-9.61-2.25-10.937 0-17.312 6.61-6.375 6.625-6.375 18.109 0 11.219 6.64 18 6.641 6.797 17.672 6.797 12.657 0 19.313-9.703 6.672-9.688 6.672-28.141 0-17.234-8.188-27.516Q40.234-1.42 26.422-1.42q-3.719 0-7.531.734-3.797.734-7.907 2.203zM30.61 32.422q6.641 0 10.516 4.531 3.89 4.547 3.89 12.469 0 7.86-3.89 12.422-3.875 4.562-10.516 4.562-6.64 0-10.515-4.562-3.875-4.563-3.875-12.422 0-7.922 3.875-12.469 3.875-4.531 10.515-4.531z" id="DejaVuSans-39"/></defs><g transform="matrix(.1 0 0 -.1 20.878 280.91)"><use xlink:href="#DejaVuSans-30"/><use x="63.623" xlink:href="#DejaVuSans-2e"/><use x="95.41" xlink:href="#DejaVuSans-39"/><use x="159.033" xlink:href="#DejaVuSans-30"/></g></g></g><g id="ytick_2"><path clip-path="url(#p6a204cf98d)" d="M50.144 223.889h357.12" fill="none" stroke="#b0b0b0" stroke-linecap="square" stroke-width=".8" id="line2d_15"/><use x="50.144" xlink:href="#m767883414a" y="223.889" stroke="#000" stroke-width=".8" id="line2d_16"/><g transform="matrix(.1 0 0 -.1 20.878 227.688)" id="text_9"><use xlink:href="#DejaVuSans-30"/><use x="63.623" xlink:href="#DejaVuSans-2e"/><use x="95.41" xlink:href="#DejaVuSans-39"/><use x="159.033" xlink:href="#DejaVuSans-32"/></g></g><g id="ytick_3"><path clip-path="url(#p6a204cf98d)" d="M50.144 170.666h357.12" fill="none" stroke="#b0b0b0" stroke-linecap="square" stroke-width=".8" id="line2d_17"/><use x="50.144" xlink:href="#m767883414a" y="170.666" stroke="#000" stroke-width=".8" id="line2d_18"/><g transform="matrix(.1 0 0 -.1 20.878 174.466)" id="text_10"><use xlink:href="#DejaVuSans-30"/><use x="63.623" xlink:href="#DejaVuSans-2e"/><use x="95.41" xlink:href="#DejaVuSans-39"/><use x="159.033" xlink:href="#DejaVuSans-34"/></g></g><g id="ytick_4"><path clip-path="url(#p6a204cf98d)" d="M50.144 117.444h357.12" fill="none" stroke="#b0b0b0" stroke-linecap="square" stroke-width=".8" id="line2d_19"/><use x="50.144" xlink:href="#m767883414a" y="117.444" stroke="#000" stroke-width=".8" id="line2d_20"/><g transform="matrix(.1 0 0 -.1 20.878 121.243)" id="text_11"><use xlink:href="#DejaVuSans-30"/><use x="63.623" xlink:href="#DejaVuSans-2e"/><use x="95.41" xlink:href="#DejaVuSans-39"/><use x="159.033" xlink:href="#DejaVuSans-36"/></g></g><g id="ytick_5"><path clip-path="url(#p6a204cf98d)" d="M50.144 64.222h357.12" fill="none" stroke="#b0b0b0" stroke-linecap="square" stroke-width=".8" id="line2d_21"/><use x="50.144" xlink:href="#m767883414a" y="64.222" stroke="#000" stroke-width=".8" id="line2d_22"/><g transform="matrix(.1 0 0 -.1 20.878 68.02)" id="text_12"><use xlink:href="#DejaVuSans-30"/><use x="63.623" xlink:href="#DejaVuSans-2e"/><use x="95.41" xlink:href="#DejaVuSans-39"/><use x="159.033" xlink:href="#DejaVuSans-38"/></g></g><g id="ytick_6"><path clip-path="url(#p6a204cf98d)" d="M50.144 11h357.12" fill="none" stroke="#b0b0b0" stroke-linecap="square" stroke-width=".8" id="line2d_23"/><use x="50.144" xlink:href="#m767883414a" y="10.999" stroke="#000" stroke-width=".8" id="line2d_24"/><g transform="matrix(.1 0 0 -.1 20.878 14.798)" id="text_13"><use xlink:href="#DejaVuSans-31"/><use x="63.623" xlink:href="#DejaVuSans-2e"/><use x="95.41" xlink:href="#DejaVuSans-30"/><use x="159.033" xlink:href="#DejaVuSans-30"/></g></g><g id="text_14"><defs><path d="M34.281 27.484q-10.89 0-15.093-2.484-4.204-2.484-4.204-8.5 0-4.781 3.157-7.594 3.156-2.797 8.562-2.797 7.485 0 12 5.297 4.516 5.297 4.516 14.078v2zm17.922 3.72V0H43.22v8.297Q40.14 3.328 35.547.953q-4.594-2.375-11.234-2.375-8.391 0-13.36 4.719Q6 8.016 6 15.922q0 9.219 6.172 13.906 6.187 4.688 18.437 4.688h12.61v.89q0 6.203-4.078 9.594-4.078 3.39-11.453 3.39-4.688 0-9.141-1.124-4.438-1.125-8.531-3.375v8.312q4.921 1.906 9.562 2.844 4.64.953 9.031.953 11.875 0 17.735-6.156 5.86-6.14 5.86-18.64z" id="DejaVuSans-61"/><path d="M2.984 54.688H12.5L29.594 8.797l17.093 45.89h9.516L35.687 0H23.485z" id="DejaVuSans-76"/><path d="M41.11 46.297q-1.516.875-3.297 1.281Q36.03 48 33.89 48q-7.625 0-11.703-4.953-4.079-4.953-4.079-14.234V0H9.08v54.688h9.03v-8.5q2.844 4.984 7.375 7.39Q30.031 56 36.531 56q.922 0 2.047-.125 1.125-.11 2.484-.36z" id="DejaVuSans-72"/><path d="M45.406 27.984q0 9.766-4.031 15.125-4.016 5.375-11.297 5.375-7.219 0-11.25-5.375-4.031-5.359-4.031-15.125 0-9.718 4.031-15.093t11.25-5.375q7.281 0 11.297 5.375 4.031 5.375 4.031 15.093zm8.985-21.203q0-13.953-6.203-20.765Q42-20.797 29.203-20.797q-4.734 0-8.937.703-4.203.703-8.157 2.172v8.735q3.954-2.141 7.813-3.157 3.86-1.031 7.86-1.031 8.843 0 13.234 4.61 4.39 4.609 4.39 13.937v4.453q-2.781-4.844-7.125-7.234Q33.938 0 27.875 0 17.828 0 11.672 7.656q-6.156 7.672-6.156 20.328 0 12.688 6.156 20.344Q17.828 56 27.875 56q6.063 0 10.406-2.39 4.344-2.391 7.125-7.22v8.297h8.985z" id="DejaVuSans-67"/><path d="M48.781 52.594v-8.407q-3.812 2.11-7.64 3.157-3.828 1.047-7.735 1.047-8.75 0-13.593-5.547-4.829-5.532-4.829-15.547 0-10.016 4.829-15.563 4.843-5.53 13.593-5.53 3.907 0 7.735 1.046 3.828 1.047 7.64 3.156V2.094Q45.016.344 40.984-.531q-4.015-.89-8.562-.89-12.36 0-19.64 7.765-7.266 7.765-7.266 20.953 0 13.375 7.343 21.031Q20.22 56 33.016 56q4.14 0 8.093-.86 3.953-.843 7.672-2.546z" id="DejaVuSans-63"/><path d="M9.422 75.984h8.984V0H9.422z" id="DejaVuSans-6c"/><path d="M14.797 27.297q0-9.906 4.078-15.547 4.078-5.64 11.203-5.64 7.125 0 11.219 5.64 4.11 5.64 4.11 15.547 0 9.906-4.11 15.547-4.094 5.64-11.219 5.64-7.125 0-11.203-5.64-4.078-5.64-4.078-15.547zm30.61-19.094Q42.577 3.328 38.25.953q-4.313-2.375-10.375-2.375-9.906 0-16.14 7.906-6.22 7.922-6.22 20.813 0 12.89 6.22 20.797Q17.968 56 27.874 56q6.063 0 10.375-2.375 4.328-2.36 7.156-7.234v8.297h8.985v-75.485h-8.985z" id="DejaVuSans-71"/><path d="M8.5 21.578v33.11h8.984V21.922q0-7.766 3.016-11.656 3.031-3.875 9.094-3.875 7.265 0 11.484 4.64 4.234 4.64 4.234 12.656v31h8.985V0h-8.984v8.406Q42.047 3.422 37.718 1q-4.313-2.422-10.032-2.422-9.421 0-14.312 5.86Q8.5 10.296 8.5 21.578zM31.11 56z" id="DejaVuSans-75"/><path d="M9.422 54.688h8.984V0H9.422zm0 21.296h8.984v-11.39H9.422z" id="DejaVuSans-69"/><path d="M32.172-5.078q-3.797-9.766-7.422-12.735-3.61-2.984-9.656-2.984H7.906v7.516h5.282q3.703 0 5.75 1.765Q21-9.766 23.483-3.219l1.61 4.094-22.11 53.813H12.5l17.094-42.766 17.093 42.766h9.516z" id="DejaVuSans-79"/></defs><g transform="matrix(0 -.1 -.1 0 14.798 193.412)"><use xlink:href="#DejaVuSans-61"/><use x="61.279" xlink:href="#DejaVuSans-76"/><use x="120.459" xlink:href="#DejaVuSans-65"/><use x="181.982" xlink:href="#DejaVuSans-72"/><use x="223.096" xlink:href="#DejaVuSans-61"/><use x="284.375" xlink:href="#DejaVuSans-67"/><use x="347.852" xlink:href="#DejaVuSans-65"/><use x="409.375" xlink:href="#DejaVuSans-20"/><use x="441.162" xlink:href="#DejaVuSans-63"/><use x="496.143" xlink:href="#DejaVuSans-65"/><use x="557.666" xlink:href="#DejaVuSans-6c"/><use x="585.449" xlink:href="#DejaVuSans-6c"/><use x="613.232" xlink:href="#DejaVuSans-20"/><use x="645.02" xlink:href="#DejaVuSans-71"/><use x="708.496" xlink:href="#DejaVuSans-75"/><use x="771.875" xlink:href="#DejaVuSans-61"/><use x="833.154" xlink:href="#DejaVuSans-6c"/><use x="860.938" xlink:href="#DejaVuSans-69"/><use x="888.721" xlink:href="#DejaVuSans-74"/><use x="927.93" xlink:href="#DejaVuSans-79"/></g></g></g><path clip-path="url(#p6a204cf98d)" d="M65.26 315.667L68 293.221l3.57-20.217 3.572-16.654 3.571-11.906 3.572-9.495 3.57-7.991 3.572-6.167 3.571-5.711 3.571-5.267 3.572-5.068 3.57-4.6 3.572-4.559 3.571-4.208 3.571-3.704 3.572-3.513 3.57-3.009 3.572-2.494 3.571-2.79 3.571-2.787 3.572-2.712 3.57-2.66 3.572-3.315 3.571-3.134 3.571-3.114 3.572-3.276 3.57-3.048 3.572-2.706 3.571-2.558 3.571-2.404 3.572-2.152 3.57-2.027 3.572-2.287 3.571-2.006 3.571-1.688 3.572-1.413 3.57-1.226 3.572-1.047 3.571-1.215 3.571-1.004 3.572-1.025 3.57-1.101 3.572-.906 3.571-.777 3.571-.784 3.572-.792 3.57-.977 3.572-1.193 3.571-1.048 3.571-1.041 3.572-.982 3.57-.943 3.572-.87 3.571-.879 3.571-.845 3.572-.729 3.57-.715 3.572-.936 3.571-.847 3.571-.757 3.572-.664 3.57-.57 3.572-.473 3.571-.378 3.571-.493 3.572-.448 3.57-.465 3.572-.398 3.571-.334 3.571-.27 3.572-.205 3.57-.14 3.572-.072 3.571-.018 3.571-.426 3.572-.392 3.57-.35 3.572-.305 3.571-.251 3.571-.193 3.572-.252 3.57-.328 3.572-.278 3.571-.224 3.571-.197 3.572-.231 3.57-.181 3.572-.134 3.571-.089 3.571-.049 3.572-.01 3.57.023 3.572.055 3.571.086 3.571.035 3.572.021 3.57.04" fill="none" stroke="#1f77b4" stroke-linecap="square" stroke-width="1.5" id="line2d_25"/><path clip-path="url(#p6a204cf98d)" d="M94.922 315.667l1.647-8.285 3.572-8.128 3.57-4.632 3.572-8.645 3.571-14.338 3.571-16.412 3.572-7.668 3.57-4.2 3.572-1.673 3.571-3.13 3.571-5.983 3.572-9.665 3.57-5.429 3.572-2.377 3.571-2.09 3.571-2.38 3.572-4.063 3.57-7.139 3.572-6.856 3.571-1.056 3.571-1.12 3.572-.63 3.57-1.382 3.572-2.666 3.571-4.183 3.571-1.842 3.572-.073 3.57-.21 3.572-.599 3.571-1.019 3.571-1.509 3.572-2.06 3.57-.814 3.572-.3 3.571-.384 3.571-.649 3.572-.912 3.57-.56 3.572-.01h3.571l3.571-.063 3.572-.142 3.57-.237 3.572-.236 3.571.026 3.571.064 3.572.005 3.57-.036 3.572-.072 3.571-.082 3.571.037 3.572.062 3.57.013 3.572-.03 3.571-.063 3.571-.099 3.572-.121 3.57-.041 3.572.22 3.571-.203 3.571-.206 3.572-.295 3.57-.458 3.572-.653 3.571-.457 3.571.063 3.572.102 3.57-.017 3.572-.097 3.571-.191 3.571-.227 3.572-.03 3.57.016 3.572-.008 3.571-.028 3.571-.05 3.572-.064 3.57-.02 3.572.01 3.571.007 3.571.003 3.572.007 3.57.021 3.572.084 3.571.121 3.571.059 3.572.02 3.57.018" fill="none" stroke="#ff7f0e" stroke-linecap="square" stroke-width="1.5" id="line2d_26"/><path clip-path="url(#p6a204cf98d)" d="M60.612 315.667l.245-8.581 3.572-55.63 3.57-31.39 3.572-15.073 3.571-6.578 3.571-4.006 3.572-2.334 3.57-4.24 3.572-2.627 3.571-.635 3.571-1.435 3.572-2.278 3.57-1.319 3.572-4.15 3.571-.822 3.571-.063 3.572-.626 3.57.298 3.572-.57 3.571.43 3.571-.531 3.572.491 3.57-.499 3.572.522 3.571-.473 3.571.534 3.572-.449 3.57.536 3.572-.427 3.571.532 3.571-.41 3.572.526 3.57-.392 3.572.515 3.571-.377 3.571.505 3.572-.363 3.57.494 3.572-.351 3.571.482 3.571-.34 3.572.471 3.57-.33 3.572.46 3.571-.32 3.571.45 3.572-.312 3.57.439 3.572-.304 3.571.428 3.571-.297 3.572.42 3.57-.29 3.572.41 3.571-.285 3.571.402 3.572-.28 3.57.394 3.572-.274 3.571.386 3.571-.27 3.572.38 3.57-.267 3.572.373 3.571-.263 3.571.366 3.572-.26 3.57.362 3.572-.257 3.571.355 3.571-.254 3.572.35 3.57-.25 3.572.345 3.571-.25 3.571.341 3.572-.247 3.57.337 3.572-.246 3.571.333 3.571-.244 3.572.33 3.57-.244 3.572.327 3.571-.242 3.571.324 3.572-.242 3.57.322 3.572-.241 3.571.319 3.571-.24 3.572.316 3.57-.24 3.572.315 3.571-.24 3.571.313 3.572-.239 3.57.312" fill="none" stroke="#2ca02c" stroke-linecap="square" stroke-width="1.5" id="line2d_27"/><path clip-path="url(#p6a204cf98d)" d="M56.607 315.667l.68-33.687 3.57-35.253 3.572-13.13 3.57-17.382 3.572-1.381 3.571-2.624 3.571-9.819 3.572-2.948 3.57-.35 3.572-3.07 3.571-.394 3.571-3.48 3.572-.59 3.57-.067 3.572.01 3.571.048 3.571.06 3.572.07 3.57.071 3.572.074 3.571.073 3.571.073 3.572.071 3.57.069 3.572.066 3.571.064 3.571.06 3.572.058 3.57.055 3.572.052 3.571.049 3.571.046 3.572.043 3.57.04 3.572.038 3.571.036 3.571.033 3.572.031 3.57.03 3.572.026 3.571.025 3.571.023 3.572.022 3.57.02 3.572.019 3.571.017 3.571.016 3.572.015 3.57.014 3.572.013 3.571.012 3.571.01 3.572.01 3.57.01 3.572.009 3.571.008 3.571.007 3.572.007 3.57.007 3.572.005 3.571.006 3.571.005 3.572.005 3.57.004 3.572.004 3.571.003 3.571.004 3.572.003 3.57.003 3.572.002 3.571.003 3.571.002 3.572.002 3.57.002 3.572.002 3.571.002 3.571.001 3.572.002h3.57l3.572.002 3.571.001 3.571.001 3.572.001 3.57.001h3.572l3.571.002H367.981l3.57.001h3.572l3.571.001h3.571l3.572.001h3.57l3.572.001h7.142l3.572.001h3.57" fill="none" stroke="#d62728" stroke-linecap="square" stroke-width="1.5" id="line2d_28"/><path clip-path="url(#p6a204cf98d)" d="M57.55 315.667l3.307-61.23 3.572-21.594 3.57-9.362 3.572-9.977 3.571-1.398 3.571-1.187 3.572-.155 3.57-.322 3.572.06 3.571-.084 3.571.097 3.572.001 3.57.096 3.572.039 3.571.089 3.571.056 3.572.082 3.57.063 3.572.077 3.571.066 3.571.072 3.572.065 3.57.068 3.572.063 3.571.064 3.571.06 3.572.06 3.57.058 3.572.057 3.571.054 3.571.053 3.572.05 3.57.05 3.572.048 3.571.047 3.571.045 3.572.044 3.57.042 3.572.041 3.571.04 3.571.039 3.572.037 3.57.037 3.572.035 3.571.035 3.571.033 3.572.033 3.57.032 3.572.03 3.571.03 3.571.03 3.572.028 3.57.028 3.572.027 3.571.026 3.571.026 3.572.025 3.57.024 3.572.024 3.571.023 3.571.023 3.572.022 3.57.021 3.572.021 3.571.02 3.571.02 3.572.02 3.57.019 3.572.018 3.571.018 3.571.018 3.572.017 3.57.017 3.572.016 3.571.016 3.571.016 3.572.015 3.57.015 3.572.015 3.571.014 3.571.014 3.572.013 3.57.013 3.572.013 3.571.013 3.571.012 3.572.012 3.57.011 3.572.012 3.571.01 3.571.012 3.572.01 3.57.01 3.572.01 3.571.01 3.571.01 3.572.01 3.57.008" fill="none" stroke="#9467bd" stroke-linecap="square" stroke-width="1.5" id="line2d_29"/><path d="M50.144 277.111V11" fill="none" stroke="#000" stroke-linecap="square" stroke-width=".8" id="patch_3"/><path d="M407.264 277.111V11" fill="none" stroke="#000" stroke-linecap="square" stroke-width=".8" id="patch_4"/><path d="M50.144 277.111h357.12" fill="none" stroke="#000" stroke-linecap="square" stroke-width=".8" id="patch_5"/><path d="M50.144 11h357.12" fill="none" stroke="#000" stroke-linecap="square" stroke-width=".8" id="patch_6"/><g id="legend_1"><path d="M293.262 92.39h107.002q2 0 2-2V18q0-2-2-2H293.262q-2 0-2 2v72.39q0 2 2 2z" fill="#fff" opacity=".8" stroke="#ccc" id="patch_7"/><path d="M295.262 24.098h20" fill="none" stroke="#1f77b4" stroke-linecap="square" stroke-width="1.5" id="line2d_30"/><g id="text_15"><defs><path d="M4.89 31.39h26.313v-8H4.891z" id="DejaVuSans-2d"/><path d="M54.89 33.016V0h-8.984v32.719q0 7.765-3.031 11.61-3.031 3.858-9.078 3.858-7.281 0-11.484-4.64-4.204-4.625-4.204-12.64V0H9.08v54.688h9.03v-8.5q3.235 4.937 7.594 7.374Q30.078 56 35.797 56q9.422 0 14.25-5.828 4.844-5.828 4.844-17.156z" id="DejaVuSans-6e"/><path d="M37.11 75.984V68.5h-8.594q-4.828 0-6.72-1.953-1.874-1.953-1.874-7.031v-4.828h14.797v-6.985H19.922V0H10.89v47.703H2.297v6.984h8.594V58.5q0 9.125 4.25 13.297 4.25 4.187 13.468 4.187z" id="DejaVuSans-66"/><path d="M30.61 48.39q-7.22 0-11.422-5.64-4.204-5.64-4.204-15.453 0-9.813 4.172-15.453 4.188-5.64 11.453-5.64 7.188 0 11.375 5.655 4.203 5.672 4.203 15.438 0 9.719-4.203 15.406-4.187 5.688-11.375 5.688zm0 7.61q11.718 0 18.406-7.625 6.703-7.61 6.703-21.078 0-13.422-6.703-21.078-6.688-7.64-18.407-7.64-11.765 0-18.437 7.64-6.656 7.656-6.656 21.078 0 13.469 6.656 21.078Q18.844 56 30.609 56z" id="DejaVuSans-6f"/><path d="M52 44.188q3.375 6.062 8.063 8.937Q64.75 56 71.093 56q8.548 0 13.188-5.984 4.64-5.97 4.64-17V0h-9.03v32.719q0 7.86-2.797 11.656-2.781 3.813-8.485 3.813-6.984 0-11.046-4.641-4.047-4.625-4.047-12.64V0h-9.032v32.719q0 7.906-2.78 11.687-2.782 3.782-8.595 3.782-6.89 0-10.953-4.657-4.047-4.656-4.047-12.625V0H9.08v54.688h9.03v-8.5q3.078 5.03 7.375 7.421Q29.781 56 35.687 56q5.97 0 10.141-3.031Q50 49.953 52 44.187z" id="DejaVuSans-6d"/></defs><g transform="matrix(.1 0 0 -.1 323.262 27.598)"><use xlink:href="#DejaVuSans-63"/><use x="54.98" xlink:href="#DejaVuSans-76"/><use x="114.16" xlink:href="#DejaVuSans-74"/><use x="153.369" xlink:href="#DejaVuSans-2d"/><use x="189.453" xlink:href="#DejaVuSans-75"/><use x="252.832" xlink:href="#DejaVuSans-6e"/><use x="316.211" xlink:href="#DejaVuSans-69"/><use x="343.994" xlink:href="#DejaVuSans-66"/><use x="379.199" xlink:href="#DejaVuSans-6f"/><use x="440.381" xlink:href="#DejaVuSans-72"/><use x="481.479" xlink:href="#DejaVuSans-6d"/><use x="578.891" xlink:href="#DejaVuSans-2d"/><use x="614.975" xlink:href="#DejaVuSans-66"/><use x="650.18" xlink:href="#DejaVuSans-70"/></g></g><path d="M295.262 38.776h20" fill="none" stroke="#ff7f0e" stroke-linecap="square" stroke-width="1.5" id="line2d_32"/><g id="text_16"><defs><path d="M45.406 46.39v29.594h8.985V0h-8.985v8.203Q42.578 3.328 38.25.953q-4.313-2.375-10.375-2.375-9.906 0-16.14 7.906-6.22 7.922-6.22 20.813 0 12.89 6.22 20.797Q17.968 56 27.874 56q6.063 0 10.375-2.375 4.328-2.36 7.156-7.234zm-30.61-19.093q0-9.906 4.079-15.547 4.078-5.64 11.203-5.64 7.125 0 11.219 5.64 4.11 5.64 4.11 15.547 0 9.906-4.11 15.547-4.094 5.64-11.219 5.64-7.125 0-11.203-5.64-4.078-5.64-4.078-15.547z" id="DejaVuSans-64"/></defs><g transform="matrix(.1 0 0 -.1 323.262 42.276)"><use xlink:href="#DejaVuSans-6f"/><use x="61.182" xlink:href="#DejaVuSans-64"/><use x="124.658" xlink:href="#DejaVuSans-74"/><use x="163.867" xlink:href="#DejaVuSans-2d"/><use x="199.951" xlink:href="#DejaVuSans-75"/><use x="263.33" xlink:href="#DejaVuSans-6e"/><use x="326.709" xlink:href="#DejaVuSans-69"/><use x="354.492" xlink:href="#DejaVuSans-66"/><use x="389.697" xlink:href="#DejaVuSans-6f"/><use x="450.879" xlink:href="#DejaVuSans-72"/><use x="491.977" xlink:href="#DejaVuSans-6d"/><use x="589.389" xlink:href="#DejaVuSans-2d"/><use x="625.473" xlink:href="#DejaVuSans-6e"/><use x="688.852" xlink:href="#DejaVuSans-6f"/></g></g><path d="M295.262 53.454h20" fill="none" stroke="#2ca02c" stroke-linecap="square" stroke-width="1.5" id="line2d_34"/><g transform="matrix(.1 0 0 -.1 323.262 56.954)" id="text_17"><use xlink:href="#DejaVuSans-6f"/><use x="61.182" xlink:href="#DejaVuSans-64"/><use x="124.658" xlink:href="#DejaVuSans-74"/><use x="163.867" xlink:href="#DejaVuSans-2d"/><use x="199.951" xlink:href="#DejaVuSans-75"/><use x="263.33" xlink:href="#DejaVuSans-6e"/><use x="326.709" xlink:href="#DejaVuSans-69"/><use x="354.492" xlink:href="#DejaVuSans-66"/><use x="389.697" xlink:href="#DejaVuSans-6f"/><use x="450.879" xlink:href="#DejaVuSans-72"/><use x="491.977" xlink:href="#DejaVuSans-6d"/><use x="589.389" xlink:href="#DejaVuSans-2d"/><use x="625.473" xlink:href="#DejaVuSans-66"/><use x="660.678" xlink:href="#DejaVuSans-70"/></g><path d="M295.262 68.132h20" fill="none" stroke="#d62728" stroke-linecap="square" stroke-width="1.5" id="line2d_36"/><g transform="matrix(.1 0 0 -.1 323.262 71.632)" id="text_18"><use xlink:href="#DejaVuSans-63"/><use x="54.98" xlink:href="#DejaVuSans-70"/><use x="118.457" xlink:href="#DejaVuSans-74"/><use x="157.666" xlink:href="#DejaVuSans-2d"/><use x="193.75" xlink:href="#DejaVuSans-75"/><use x="257.129" xlink:href="#DejaVuSans-6e"/><use x="320.508" xlink:href="#DejaVuSans-69"/><use x="348.291" xlink:href="#DejaVuSans-66"/><use x="383.496" xlink:href="#DejaVuSans-6f"/><use x="444.678" xlink:href="#DejaVuSans-72"/><use x="485.775" xlink:href="#DejaVuSans-6d"/><use x="583.188" xlink:href="#DejaVuSans-2d"/><use x="619.271" xlink:href="#DejaVuSans-71"/><use x="682.748" xlink:href="#DejaVuSans-6e"/></g><path d="M295.262 82.81h20" fill="none" stroke="#9467bd" stroke-linecap="square" stroke-width="1.5" id="line2d_38"/><g transform="matrix(.1 0 0 -.1 323.262 86.31)" id="text_19"><use xlink:href="#DejaVuSans-63"/><use x="54.98" xlink:href="#DejaVuSans-70"/><use x="118.457" xlink:href="#DejaVuSans-74"/><use x="157.666" xlink:href="#DejaVuSans-2d"/><use x="193.75" xlink:href="#DejaVuSans-75"/><use x="257.129" xlink:href="#DejaVuSans-6e"/><use x="320.508" xlink:href="#DejaVuSans-69"/><use x="348.291" xlink:href="#DejaVuSans-66"/><use x="383.496" xlink:href="#DejaVuSans-6f"/><use x="444.678" xlink:href="#DejaVuSans-72"/><use x="485.775" xlink:href="#DejaVuSans-6d"/><use x="583.188" xlink:href="#DejaVuSans-2d"/><use x="619.271" xlink:href="#DejaVuSans-66"/><use x="654.477" xlink:href="#DejaVuSans-70"/></g></g></g></g><defs><clipPath id="p6a204cf98d"><path d="M50.144 10.999h357.12v266.112H50.144z"/></clipPath></defs></svg>