<svg height="434.649" viewBox="0 0 407.597 325.986" width="543.463" xmlns="http://www.w3.org/2000/svg" xmlns:xlink="http://www.w3.org/1999/xlink"><defs><style>*{stroke-linecap:butt;stroke-linejoin:round}</style></defs><g id="figure_1"><path d="M0 325.986h407.597V0H0z" fill="none" id="patch_1"/><g id="axes_1"><path d="M39.65 288.43h357.12V22.318H39.65z" fill="none" id="patch_2"/><g id="matplotlib.axis_1"><g id="xtick_1"><path clip-path="url(#p8c3a2f76b8)" d="M57.739 288.43V22.318" fill="none" stroke="#b0b0b0" stroke-linecap="square" stroke-width=".8" id="line2d_1"/><g id="line2d_2"><defs><path d="M0 0v3.5" id="m6303cd6c47" stroke="#000" stroke-width=".8"/></defs><use x="57.739" xlink:href="#m6303cd6c47" y="288.43" stroke="#000" stroke-width=".8"/></g><g id="text_1"><defs><path d="M12.406 8.297h16.11v55.625l-17.532-3.516v8.985l17.438 3.515h9.86V8.296H54.39V0H12.406z" id="DejaVuSans-49"/><path d="M31.781 66.406q-7.61 0-11.453-7.5Q16.5 51.422 16.5 36.375q0-14.984 3.828-22.484 3.844-7.5 11.453-7.5 7.672 0 11.5 7.5 3.844 7.5 3.844 22.484 0 15.047-3.844 22.531-3.828 7.5-11.5 7.5zm0 7.813q12.266 0 18.735-9.703 6.468-9.688 6.468-28.141 0-18.406-6.468-28.11-6.47-9.687-18.735-9.687-12.25 0-18.718 9.688-6.47 9.703-6.47 28.109 0 18.453 6.47 28.14Q19.53 74.22 31.78 74.22z" id="DejaVuSans-48"/></defs><g transform="matrix(.1 0 0 -.1 45.014 303.029)"><use xlink:href="#DejaVuSans-49"/><use x="63.623" xlink:href="#DejaVuSans-48"/><use x="127.246" xlink:href="#DejaVuSans-48"/><use x="190.869" xlink:href="#DejaVuSans-48"/></g></g></g><g id="xtick_2"><path clip-path="url(#p8c3a2f76b8)" d="M98.98 288.43V22.318" fill="none" stroke="#b0b0b0" stroke-linecap="square" stroke-width=".8" id="line2d_3"/><use x="98.98" xlink:href="#m6303cd6c47" y="288.43" stroke="#000" stroke-width=".8" id="line2d_4"/><g id="text_2"><defs><path d="M19.188 8.297h34.421V0H7.33v8.297q5.609 5.812 15.296 15.594 9.703 9.797 12.188 12.64 4.734 5.313 6.609 9 1.89 3.688 1.89 7.25 0 5.813-4.078 9.469-4.078 3.672-10.625 3.672-4.64 0-9.797-1.61-5.14-1.609-11-4.89v9.969Q13.767 71.78 18.938 73q5.188 1.219 9.485 1.219 11.328 0 18.062-5.672 6.735-5.656 6.735-15.125 0-4.5-1.688-8.531-1.672-4.016-6.125-9.485-1.218-1.422-7.765-8.187-6.532-6.766-18.453-18.922z" id="DejaVuSans-50"/></defs><g transform="matrix(.1 0 0 -.1 86.255 303.029)"><use xlink:href="#DejaVuSans-50"/><use x="63.623" xlink:href="#DejaVuSans-48"/><use x="127.246" xlink:href="#DejaVuSans-48"/><use x="190.869" xlink:href="#DejaVuSans-48"/></g></g></g><g id="xtick_3"><path clip-path="url(#p8c3a2f76b8)" d="M140.222 288.43V22.318" fill="none" stroke="#b0b0b0" stroke-linecap="square" stroke-width=".8" id="line2d_5"/><use x="140.222" xlink:href="#m6303cd6c47" y="288.43" stroke="#000" stroke-width=".8" id="line2d_6"/><g id="text_3"><defs><path d="M40.578 39.313Q47.656 37.797 51.625 33q3.984-4.781 3.984-11.813 0-10.78-7.422-16.703-7.421-5.906-21.093-5.906-4.578 0-9.438.906-4.86.907-10.031 2.72v9.515q4.094-2.39 8.969-3.61 4.89-1.218 10.218-1.218 9.266 0 14.125 3.656 4.86 3.656 4.86 10.64 0 6.454-4.516 10.079-4.515 3.64-12.562 3.64h-8.5v8.11h8.89q7.266 0 11.125 2.906 3.86 2.906 3.86 8.375 0 5.61-3.985 8.61-3.968 3.015-11.39 3.015-4.063 0-8.703-.89-4.641-.876-10.203-2.72v8.782q5.624 1.562 10.53 2.344 4.907.78 9.25.78 11.235 0 17.766-5.109 6.547-5.093 6.547-13.78 0-6.063-3.468-10.235-3.47-4.172-9.86-5.782z" id="DejaVuSans-51"/></defs><g transform="matrix(.1 0 0 -.1 127.497 303.029)"><use xlink:href="#DejaVuSans-51"/><use x="63.623" xlink:href="#DejaVuSans-48"/><use x="127.246" xlink:href="#DejaVuSans-48"/><use x="190.869" xlink:href="#DejaVuSans-48"/></g></g></g><g id="xtick_4"><path clip-path="url(#p8c3a2f76b8)" d="M181.464 288.43V22.318" fill="none" stroke="#b0b0b0" stroke-linecap="square" stroke-width=".8" id="line2d_7"/><use x="181.464" xlink:href="#m6303cd6c47" y="288.43" stroke="#000" stroke-width=".8" id="line2d_8"/><g id="text_4"><defs><path d="M37.797 64.313 12.89 25.39h24.906zm-2.594 8.593H47.61V25.391h10.407v-8.203H47.609V0h-9.812v17.188H4.89v9.515z" id="DejaVuSans-52"/></defs><g transform="matrix(.1 0 0 -.1 168.739 303.029)"><use xlink:href="#DejaVuSans-52"/><use x="63.623" xlink:href="#DejaVuSans-48"/><use x="127.246" xlink:href="#DejaVuSans-48"/><use x="190.869" xlink:href="#DejaVuSans-48"/></g></g></g><g id="xtick_5"><path clip-path="url(#p8c3a2f76b8)" d="M222.705 288.43V22.318" fill="none" stroke="#b0b0b0" stroke-linecap="square" stroke-width=".8" id="line2d_9"/><use x="222.705" xlink:href="#m6303cd6c47" y="288.43" stroke="#000" stroke-width=".8" id="line2d_10"/><g id="text_5"><defs><path d="M10.797 72.906h38.719v-8.312H19.828v-17.86q2.14.735 4.281 1.094 2.157.36 4.313.36 12.203 0 19.328-6.688 7.14-6.688 7.14-18.11 0-11.765-7.328-18.296-7.328-6.516-20.656-6.516-4.593 0-9.36.781-4.75.782-9.827 2.344v9.922q4.39-2.39 9.078-3.563 4.687-1.171 9.906-1.171 8.453 0 13.375 4.437 4.938 4.438 4.938 12.063 0 7.609-4.938 12.047-4.922 4.453-13.375 4.453-3.953 0-7.89-.875-3.922-.875-8.016-2.735z" id="DejaVuSans-53"/></defs><g transform="matrix(.1 0 0 -.1 209.98 303.029)"><use xlink:href="#DejaVuSans-53"/><use x="63.623" xlink:href="#DejaVuSans-48"/><use x="127.246" xlink:href="#DejaVuSans-48"/><use x="190.869" xlink:href="#DejaVuSans-48"/></g></g></g><g id="xtick_6"><path clip-path="url(#p8c3a2f76b8)" d="M263.947 288.43V22.318" fill="none" stroke="#b0b0b0" stroke-linecap="square" stroke-width=".8" id="line2d_11"/><use x="263.947" xlink:href="#m6303cd6c47" y="288.43" stroke="#000" stroke-width=".8" id="line2d_12"/><g id="text_6"><defs><path d="M33.016 40.375q-6.641 0-10.532-4.547-3.875-4.531-3.875-12.437 0-7.86 3.875-12.438 3.891-4.562 10.532-4.562 6.64 0 10.515 4.562 3.875 4.578 3.875 12.438 0 7.906-3.875 12.437-3.875 4.547-10.515 4.547zm19.578 30.922v-8.984q-3.719 1.75-7.5 2.671-3.782.938-7.5.938-9.766 0-14.922-6.594-5.14-6.594-5.875-19.922 2.875 4.25 7.219 6.516 4.359 2.266 9.578 2.266 10.984 0 17.36-6.672 6.374-6.657 6.374-18.125 0-11.235-6.64-18.032-6.641-6.78-17.672-6.78-12.657 0-19.344 9.687-6.688 9.703-6.688 28.109 0 17.281 8.204 27.563 8.203 10.28 22.015 10.28 3.719 0 7.5-.734t7.89-2.187z" id="DejaVuSans-54"/></defs><g transform="matrix(.1 0 0 -.1 251.222 303.029)"><use xlink:href="#DejaVuSans-54"/><use x="63.623" xlink:href="#DejaVuSans-48"/><use x="127.246" xlink:href="#DejaVuSans-48"/><use x="190.869" xlink:href="#DejaVuSans-48"/></g></g></g><g id="xtick_7"><path clip-path="url(#p8c3a2f76b8)" d="M305.189 288.43V22.318" fill="none" stroke="#b0b0b0" stroke-linecap="square" stroke-width=".8" id="line2d_13"/><use x="305.189" xlink:href="#m6303cd6c47" y="288.43" stroke="#000" stroke-width=".8" id="line2d_14"/><g id="text_7"><defs><path d="M8.203 72.906h46.875v-4.203L28.61 0H18.312L43.22 64.594H8.203z" id="DejaVuSans-55"/></defs><g transform="matrix(.1 0 0 -.1 292.464 303.029)"><use xlink:href="#DejaVuSans-55"/><use x="63.623" xlink:href="#DejaVuSans-48"/><use x="127.246" xlink:href="#DejaVuSans-48"/><use x="190.869" xlink:href="#DejaVuSans-48"/></g></g></g><g id="xtick_8"><path clip-path="url(#p8c3a2f76b8)" d="M346.43 288.43V22.318" fill="none" stroke="#b0b0b0" stroke-linecap="square" stroke-width=".8" id="line2d_15"/><use x="346.43" xlink:href="#m6303cd6c47" y="288.43" stroke="#000" stroke-width=".8" id="line2d_16"/><g id="text_8"><defs><path d="M31.781 34.625q-7.031 0-11.062-3.766-4.016-3.765-4.016-10.343 0-6.594 4.016-10.36Q24.75 6.391 31.78 6.391q7.032 0 11.078 3.78 4.063 3.798 4.063 10.345 0 6.578-4.031 10.343-4.016 3.766-11.11 3.766zm-9.86 4.188q-6.343 1.562-9.89 5.906Q8.5 49.079 8.5 55.329q0 8.733 6.219 13.812 6.234 5.078 17.062 5.078 10.89 0 17.094-5.078 6.203-5.079 6.203-13.813 0-6.25-3.547-10.61-3.531-4.343-9.828-5.906 7.125-1.656 11.094-6.5 3.984-4.828 3.984-11.796 0-10.61-6.468-16.282-6.47-5.656-18.532-5.656-12.047 0-18.531 5.656-6.469 5.672-6.469 16.282 0 6.968 4 11.797 4.016 4.843 11.14 6.5zM18.314 54.39q0-5.657 3.53-8.828 3.548-3.172 9.938-3.172 6.36 0 9.938 3.172 3.593 3.171 3.593 8.828 0 5.672-3.593 8.843-3.578 3.172-9.938 3.172-6.39 0-9.937-3.172-3.532-3.172-3.532-8.843z" id="DejaVuSans-56"/></defs><g transform="matrix(.1 0 0 -.1 333.705 303.029)"><use xlink:href="#DejaVuSans-56"/><use x="63.623" xlink:href="#DejaVuSans-48"/><use x="127.246" xlink:href="#DejaVuSans-48"/><use x="190.869" xlink:href="#DejaVuSans-48"/></g></g></g><g id="xtick_9"><path clip-path="url(#p8c3a2f76b8)" d="M387.672 288.43V22.318" fill="none" stroke="#b0b0b0" stroke-linecap="square" stroke-width=".8" id="line2d_17"/><use x="387.672" xlink:href="#m6303cd6c47" y="288.43" stroke="#000" stroke-width=".8" id="line2d_18"/><g id="text_9"><defs><path d="M10.984 1.516V10.5q3.72-1.766 7.516-2.688 3.813-.921 7.484-.921 9.766 0 14.907 6.562 5.156 6.563 5.89 19.953-2.828-4.203-7.187-6.453-4.344-2.25-9.61-2.25-10.937 0-17.312 6.61-6.375 6.625-6.375 18.109 0 11.219 6.64 18 6.641 6.797 17.672 6.797 12.657 0 19.313-9.703 6.672-9.688 6.672-28.141 0-17.234-8.188-27.516Q40.234-1.42 26.422-1.42q-3.719 0-7.531.734-3.797.734-7.907 2.203zM30.61 32.422q6.641 0 10.516 4.531 3.89 4.547 3.89 12.469 0 7.86-3.89 12.422-3.875 4.562-10.516 4.562-6.64 0-10.515-4.562-3.875-4.563-3.875-12.422 0-7.922 3.875-12.469 3.875-4.531 10.515-4.531z" id="DejaVuSans-57"/></defs><g transform="matrix(.1 0 0 -.1 374.947 303.029)"><use xlink:href="#DejaVuSans-57"/><use x="63.623" xlink:href="#DejaVuSans-48"/><use x="127.246" xlink:href="#DejaVuSans-48"/><use x="190.869" xlink:href="#DejaVuSans-48"/></g></g></g><g id="text_10"><defs><path d="M44.281 53.078v-8.5q-3.797 1.953-7.906 2.922-4.094.984-8.5.984-6.688 0-10.031-2.047-3.344-2.046-3.344-6.156 0-3.125 2.39-4.906 2.391-1.781 9.626-3.39l3.078-.688q9.562-2.047 13.593-5.781 4.032-3.735 4.032-10.422 0-7.625-6.032-12.078-6.03-4.438-16.578-4.438-4.39 0-9.156.86Q10.688.296 5.422 2v9.281q4.984-2.594 9.812-3.89 4.829-1.282 9.579-1.282 6.343 0 9.75 2.172 3.421 2.172 3.421 6.125 0 3.656-2.468 5.61-2.453 1.953-10.813 3.765l-3.125.735q-8.344 1.75-12.062 5.39-3.704 3.64-3.704 9.985 0 7.718 5.47 11.906Q16.75 56 26.811 56q4.97 0 9.36-.734 4.406-.72 8.11-2.188z" id="DejaVuSans-115"/><path d="M9.422 54.688h8.984V0H9.422zm0 21.296h8.984v-11.39H9.422z" id="DejaVuSans-105"/><path d="M5.516 54.688h42.672v-8.204L14.406 7.172h33.782V0H4.297v8.203l33.797 39.313H5.516z" id="DejaVuSans-122"/><path d="M56.203 29.594v-4.39H14.891q.593-9.282 5.593-14.142 5-4.859 13.938-4.859 5.172 0 10.031 1.266 4.86 1.265 9.656 3.812v-8.5Q49.266.734 44.187-.344 39.11-1.422 33.892-1.422q-13.094 0-20.735 7.61-7.64 7.625-7.64 20.625 0 13.421 7.25 21.296Q20.016 56 32.328 56q11.031 0 17.453-7.11 6.422-7.093 6.422-19.296zm-8.984 2.64q-.094 7.36-4.125 11.75-4.032 4.407-10.672 4.407-7.516 0-12.031-4.25-4.516-4.25-5.203-11.97z" id="DejaVuSans-101"/><path d="M52 44.188q3.375 6.062 8.063 8.937Q64.75 56 71.093 56q8.548 0 13.188-5.984 4.64-5.97 4.64-17V0h-9.03v32.719q0 7.86-2.797 11.656-2.781 3.813-8.485 3.813-6.984 0-11.046-4.641-4.047-4.625-4.047-12.64V0h-9.032v32.719q0 7.906-2.78 11.687-2.782 3.782-8.595 3.782-6.89 0-10.953-4.657-4.047-4.656-4.047-12.625V0H9.08v54.688h9.03v-8.5q3.078 5.03 7.375 7.421Q29.781 56 35.687 56q5.97 0 10.141-3.031Q50 49.953 52 44.187z" id="DejaVuSans-109"/><path d="M34.281 27.484q-10.89 0-15.093-2.484-4.204-2.484-4.204-8.5 0-4.781 3.157-7.594 3.156-2.797 8.562-2.797 7.485 0 12 5.297 4.516 5.297 4.516 14.078v2zm17.922 3.72V0H43.22v8.297Q40.14 3.328 35.547.953q-4.594-2.375-11.234-2.375-8.391 0-13.36 4.719Q6 8.016 6 15.922q0 9.219 6.172 13.906 6.187 4.688 18.437 4.688h12.61v.89q0 6.203-4.078 9.594-4.078 3.39-11.453 3.39-4.688 0-9.141-1.124-4.438-1.125-8.531-3.375v8.312q4.921 1.906 9.562 2.844 4.64.953 9.031.953 11.875 0 17.735-6.156 5.86-6.14 5.86-18.64z" id="DejaVuSans-97"/><path d="M18.313 70.219V54.688h18.5v-6.985h-18.5V18.016q0-6.688 1.828-8.594 1.828-1.906 7.453-1.906h9.218V0h-9.218q-10.407 0-14.36 3.875-3.953 3.89-3.953 14.14v29.688H2.687v6.984h6.594V70.22z" id="DejaVuSans-116"/><path d="M41.11 46.297q-1.516.875-3.297 1.281Q36.03 48 33.89 48q-7.625 0-11.703-4.953-4.079-4.953-4.079-14.234V0H9.08v54.688h9.03v-8.5q2.844 4.984 7.375 7.39Q30.031 56 36.531 56q.922 0 2.047-.125 1.125-.11 2.484-.36z" id="DejaVuSans-114"/><path d="m54.89 54.688-19.78-26.61L55.905 0H45.313L29.39 21.484 13.484 0H2.875l21.25 28.61L4.687 54.687h10.594l14.5-19.485 14.5 19.484z" id="DejaVuSans-120"/><path d="M25.39 72.906h8.297L8.297-9.28H0z" id="DejaVuSans-47"/></defs><g transform="matrix(.1 0 0 -.1 172.645 316.707)"><use xlink:href="#DejaVuSans-115"/><use x="52.1" xlink:href="#DejaVuSans-105"/><use x="79.883" xlink:href="#DejaVuSans-122"/><use x="132.373" xlink:href="#DejaVuSans-101"/><use x="193.896" xlink:href="#DejaVuSans-32"/><use x="225.684" xlink:href="#DejaVuSans-109"/><use x="323.096" xlink:href="#DejaVuSans-97"/><use x="384.375" xlink:href="#DejaVuSans-116"/><use x="423.584" xlink:href="#DejaVuSans-114"/><use x="464.697" xlink:href="#DejaVuSans-105"/><use x="492.48" xlink:href="#DejaVuSans-120"/><use x="551.66" xlink:href="#DejaVuSans-47"/><use x="585.352" xlink:href="#DejaVuSans-109"/><use x="682.764" xlink:href="#DejaVuSans-97"/><use x="744.043" xlink:href="#DejaVuSans-116"/><use x="783.252" xlink:href="#DejaVuSans-114"/><use x="824.365" xlink:href="#DejaVuSans-105"/><use x="852.148" xlink:href="#DejaVuSans-120"/></g></g></g><g id="matplotlib.axis_2"><g id="ytick_1"><path clip-path="url(#p8c3a2f76b8)" d="M39.65 288.43h357.12" fill="none" stroke="#b0b0b0" stroke-linecap="square" stroke-width=".8" id="line2d_19"/><g id="line2d_20"><defs><path d="M0 0h-3.5" id="m1ba019112a" stroke="#000" stroke-width=".8"/></defs><use x="39.65" xlink:href="#m1ba019112a" y="288.43" stroke="#000" stroke-width=".8"/></g><use xlink:href="#DejaVuSans-48" transform="matrix(.1 0 0 -.1 26.288 292.23)" id="text_11"/></g><g id="ytick_2"><path clip-path="url(#p8c3a2f76b8)" d="M39.65 246.329h357.12" fill="none" stroke="#b0b0b0" stroke-linecap="square" stroke-width=".8" id="line2d_21"/><use x="39.65" xlink:href="#m1ba019112a" y="246.329" stroke="#000" stroke-width=".8" id="line2d_22"/><g transform="matrix(.1 0 0 -.1 13.563 250.128)" id="text_12"><use xlink:href="#DejaVuSans-53"/><use x="63.623" xlink:href="#DejaVuSans-48"/><use x="127.246" xlink:href="#DejaVuSans-48"/></g></g><g id="ytick_3"><path clip-path="url(#p8c3a2f76b8)" d="M39.65 204.228h357.12" fill="none" stroke="#b0b0b0" stroke-linecap="square" stroke-width=".8" id="line2d_23"/><use x="39.65" xlink:href="#m1ba019112a" y="204.228" stroke="#000" stroke-width=".8" id="line2d_24"/><g transform="matrix(.1 0 0 -.1 7.2 208.027)" id="text_13"><use xlink:href="#DejaVuSans-49"/><use x="63.623" xlink:href="#DejaVuSans-48"/><use x="127.246" xlink:href="#DejaVuSans-48"/><use x="190.869" xlink:href="#DejaVuSans-48"/></g></g><g id="ytick_4"><path clip-path="url(#p8c3a2f76b8)" d="M39.65 162.126h357.12" fill="none" stroke="#b0b0b0" stroke-linecap="square" stroke-width=".8" id="line2d_25"/><use x="39.65" xlink:href="#m1ba019112a" y="162.126" stroke="#000" stroke-width=".8" id="line2d_26"/><g transform="matrix(.1 0 0 -.1 7.2 165.925)" id="text_14"><use xlink:href="#DejaVuSans-49"/><use x="63.623" xlink:href="#DejaVuSans-53"/><use x="127.246" xlink:href="#DejaVuSans-48"/><use x="190.869" xlink:href="#DejaVuSans-48"/></g></g><g id="ytick_5"><path clip-path="url(#p8c3a2f76b8)" d="M39.65 120.025h357.12" fill="none" stroke="#b0b0b0" stroke-linecap="square" stroke-width=".8" id="line2d_27"/><use x="39.65" xlink:href="#m1ba019112a" y="120.025" stroke="#000" stroke-width=".8" id="line2d_28"/><g transform="matrix(.1 0 0 -.1 7.2 123.824)" id="text_15"><use xlink:href="#DejaVuSans-50"/><use x="63.623" xlink:href="#DejaVuSans-48"/><use x="127.246" xlink:href="#DejaVuSans-48"/><use x="190.869" xlink:href="#DejaVuSans-48"/></g></g><g id="ytick_6"><path clip-path="url(#p8c3a2f76b8)" d="M39.65 77.924h357.12" fill="none" stroke="#b0b0b0" stroke-linecap="square" stroke-width=".8" id="line2d_29"/><use x="39.65" xlink:href="#m1ba019112a" y="77.924" stroke="#000" stroke-width=".8" id="line2d_30"/><g transform="matrix(.1 0 0 -.1 7.2 81.723)" id="text_16"><use xlink:href="#DejaVuSans-50"/><use x="63.623" xlink:href="#DejaVuSans-53"/><use x="127.246" xlink:href="#DejaVuSans-48"/><use x="190.869" xlink:href="#DejaVuSans-48"/></g></g><g id="ytick_7"><path clip-path="url(#p8c3a2f76b8)" d="M39.65 35.822h357.12" fill="none" stroke="#b0b0b0" stroke-linecap="square" stroke-width=".8" id="line2d_31"/><use x="39.65" xlink:href="#m1ba019112a" y="35.822" stroke="#000" stroke-width=".8" id="line2d_32"/><g transform="matrix(.1 0 0 -.1 7.2 39.622)" id="text_17"><use xlink:href="#DejaVuSans-51"/><use x="63.623" xlink:href="#DejaVuSans-48"/><use x="127.246" xlink:href="#DejaVuSans-48"/><use x="190.869" xlink:href="#DejaVuSans-48"/></g></g></g><g id="line2d_33"><path clip-path="url(#p8c3a2f76b8)" d="m56.171 262.308 39.386-28.711 39.922-29.175 39.922-28.832 41.324-27.839 41.118-46.109 41.778-20.986 36.375-23.023 39.881-23.729" fill="none" stroke="#1f77b4" stroke-linecap="square" stroke-width="1.5"/><defs><path d="M0 3a3 3 0 1 0 0-6 3 3 0 0 0 0 6z" id="mf973c99b57" stroke="#1f77b4"/></defs><g clip-path="url(#p8c3a2f76b8)" fill="#1f77b4" stroke="#1f77b4"><use x="56.171" xlink:href="#mf973c99b57" y="262.308"/><use x="95.557" xlink:href="#mf973c99b57" y="233.597"/><use x="135.479" xlink:href="#mf973c99b57" y="204.422"/><use x="175.401" xlink:href="#mf973c99b57" y="175.59"/><use x="216.725" xlink:href="#mf973c99b57" y="147.751"/><use x="257.843" xlink:href="#mf973c99b57" y="101.642"/><use x="299.621" xlink:href="#mf973c99b57" y="80.656"/><use x="335.996" xlink:href="#mf973c99b57" y="57.633"/><use x="375.877" xlink:href="#mf973c99b57" y="33.904"/></g></g><g id="line2d_34"><path clip-path="url(#p8c3a2f76b8)" d="m56.171 264.089 39.386-24.674 39.922-25.12 39.922-27.36 41.324-26.493 41.118-25.798 41.778-30.82 36.375-23.518 39.881-22.824" fill="none" stroke="#ff7f0e" stroke-linecap="square" stroke-width="1.5"/><defs><path d="M0 3a3 3 0 1 0 0-6 3 3 0 0 0 0 6z" id="m471633971e" stroke="#ff7f0e"/></defs><g clip-path="url(#p8c3a2f76b8)" fill="#ff7f0e" stroke="#ff7f0e"><use x="56.171" xlink:href="#m471633971e" y="264.089"/><use x="95.557" xlink:href="#m471633971e" y="239.415"/><use x="135.479" xlink:href="#m471633971e" y="214.296"/><use x="175.401" xlink:href="#m471633971e" y="186.936"/><use x="216.725" xlink:href="#m471633971e" y="160.442"/><use x="257.843" xlink:href="#m471633971e" y="134.644"/><use x="299.621" xlink:href="#m471633971e" y="103.824"/><use x="335.996" xlink:href="#m471633971e" y="80.306"/><use x="375.877" xlink:href="#m471633971e" y="57.482"/></g></g><g id="line2d_35"><path clip-path="url(#p8c3a2f76b8)" d="m55.883 265.628 39.84-23.581 40.581-26.182 40.582-23.379 41.324-25.785 40.582-25.418 40.83-24.504 41.076-24.23 39.84-27.653" fill="none" stroke="#2ca02c" stroke-linecap="square" stroke-width="1.5"/><defs><path d="M0 3a3 3 0 1 0 0-6 3 3 0 0 0 0 6z" id="mc9b37e883a" stroke="#2ca02c"/></defs><g clip-path="url(#p8c3a2f76b8)" fill="#2ca02c" stroke="#2ca02c"><use x="55.883" xlink:href="#mc9b37e883a" y="265.628"/><use x="95.722" xlink:href="#mc9b37e883a" y="242.047"/><use x="136.304" xlink:href="#mc9b37e883a" y="215.865"/><use x="176.886" xlink:href="#mc9b37e883a" y="192.486"/><use x="218.21" xlink:href="#mc9b37e883a" y="166.701"/><use x="258.792" xlink:href="#mc9b37e883a" y="141.283"/><use x="299.621" xlink:href="#mc9b37e883a" y="116.779"/><use x="340.698" xlink:href="#mc9b37e883a" y="92.548"/><use x="380.537" xlink:href="#mc9b37e883a" y="64.896"/></g></g><path d="M39.65 288.43V22.318" fill="none" stroke="#000" stroke-linecap="square" stroke-width=".8" id="patch_3"/><path d="M396.77 288.43V22.318" fill="none" stroke="#000" stroke-linecap="square" stroke-width=".8" id="patch_4"/><path d="M39.65 288.43h357.12" fill="none" stroke="#000" stroke-linecap="square" stroke-width=".8" id="patch_5"/><path d="M39.65 22.318h357.12" fill="none" stroke="#000" stroke-linecap="square" stroke-width=".8" id="patch_6"/><g id="text_18"><defs><path d="M9.813 72.906h9.859V8.296h35.5V0H9.812z" id="DejaVuSans-76"/><path d="M18.11 8.203v-29H9.077v75.484h9.031v-8.296q2.844 4.875 7.157 7.234Q29.594 56 35.594 56q9.968 0 16.187-7.906 6.235-7.907 6.235-20.797T51.78 6.484q-6.218-7.906-16.187-7.906-6 0-10.328 2.375-4.313 2.375-7.157 7.25zm30.578 19.094q0 9.906-4.079 15.547-4.078 5.64-11.203 5.64-7.14 0-11.218-5.64-4.079-5.64-4.079-15.547 0-9.906 4.078-15.547 4.079-5.64 11.22-5.64 7.124 0 11.202 5.64t4.078 15.547z" id="DejaVuSans-112"/><path d="M9.422 75.984h8.984V0H9.422z" id="DejaVuSans-108"/><path d="M48.781 52.594v-8.407q-3.812 2.11-7.64 3.157-3.828 1.047-7.735 1.047-8.75 0-13.593-5.547-4.829-5.532-4.829-15.547 0-10.016 4.829-15.563 4.843-5.53 13.593-5.53 3.907 0 7.735 1.046 3.828 1.047 7.64 3.156V2.094Q45.016.344 40.984-.531q-4.015-.89-8.562-.89-12.36 0-19.64 7.765-7.266 7.765-7.266 20.953 0 13.375 7.343 21.031Q20.22 56 33.016 56q4.14 0 8.093-.86 3.953-.843 7.672-2.546z" id="DejaVuSans-99"/><path d="M54.89 33.016V0h-8.984v32.719q0 7.765-3.031 11.61-3.031 3.858-9.078 3.858-7.281 0-11.484-4.64-4.204-4.625-4.204-12.64V0H9.08v54.688h9.03v-8.5q3.235 4.937 7.594 7.374Q30.078 56 35.797 56q9.422 0 14.25-5.828 4.844-5.828 4.844-17.156z" id="DejaVuSans-110"/><path d="M4.89 31.39h26.313v-8H4.891z" id="DejaVuSans-45"/><path d="M30.61 48.39q-7.22 0-11.422-5.64-4.204-5.64-4.204-15.453 0-9.813 4.172-15.453 4.188-5.64 11.453-5.64 7.188 0 11.375 5.655 4.203 5.672 4.203 15.438 0 9.719-4.203 15.406-4.187 5.688-11.375 5.688zm0 7.61q11.718 0 18.406-7.625 6.703-7.61 6.703-21.078 0-13.422-6.703-21.078-6.688-7.64-18.407-7.64-11.765 0-18.437 7.64-6.656 7.656-6.656 21.078 0 13.469 6.656 21.078Q18.844 56 30.609 56z" id="DejaVuSans-111"/><path d="M45.406 46.39v29.594h8.985V0h-8.985v8.203Q42.578 3.328 38.25.953q-4.313-2.375-10.375-2.375-9.906 0-16.14 7.906-6.22 7.922-6.22 20.813 0 12.89 6.22 20.797Q17.968 56 27.874 56q6.063 0 10.375-2.375 4.328-2.36 7.156-7.234zm-30.61-19.093q0-9.906 4.079-15.547 4.078-5.64 11.203-5.64 7.125 0 11.219 5.64 4.11 5.64 4.11 15.547 0 9.906-4.11 15.547-4.094 5.64-11.219 5.64-7.125 0-11.203-5.64-4.078-5.64-4.078-15.547z" id="DejaVuSans-100"/><path d="M8.5 21.578v33.11h8.984V21.922q0-7.766 3.016-11.656 3.031-3.875 9.094-3.875 7.265 0 11.484 4.64 4.234 4.64 4.234 12.656v31h8.985V0h-8.984v8.406Q42.047 3.422 37.718 1q-4.313-2.422-10.032-2.422-9.421 0-14.312 5.86Q8.5 10.296 8.5 21.578zM31.11 56z" id="DejaVuSans-117"/><path d="M48.688 27.297q0 9.906-4.079 15.547-4.078 5.64-11.203 5.64-7.14 0-11.218-5.64-4.079-5.64-4.079-15.547 0-9.906 4.078-15.547 4.079-5.64 11.22-5.64 7.124 0 11.202 5.64t4.078 15.547zM18.108 46.39q2.844 4.875 7.157 7.234Q29.594 56 35.594 56q9.968 0 16.187-7.906 6.235-7.907 6.235-20.797T51.78 6.484q-6.218-7.906-16.187-7.906-6 0-10.328 2.375-4.313 2.375-7.157 7.25V0H9.08v75.984h9.03z" id="DejaVuSans-98"/></defs><g transform="matrix(.12 0 0 -.12 125.294 16.318)"><use xlink:href="#DejaVuSans-76"/><use x="55.713" xlink:href="#DejaVuSans-97"/><use x="116.992" xlink:href="#DejaVuSans-112"/><use x="180.469" xlink:href="#DejaVuSans-108"/><use x="208.252" xlink:href="#DejaVuSans-97"/><use x="269.531" xlink:href="#DejaVuSans-99"/><use x="324.512" xlink:href="#DejaVuSans-105"/><use x="352.295" xlink:href="#DejaVuSans-97"/><use x="413.574" xlink:href="#DejaVuSans-110"/><use x="476.953" xlink:href="#DejaVuSans-32"/><use x="508.74" xlink:href="#DejaVuSans-76"/><use x="564.453" xlink:href="#DejaVuSans-50"/><use x="628.076" xlink:href="#DejaVuSans-45"/><use x="664.16" xlink:href="#DejaVuSans-99"/><use x="719.141" xlink:href="#DejaVuSans-111"/><use x="780.322" xlink:href="#DejaVuSans-110"/><use x="843.701" xlink:href="#DejaVuSans-100"/><use x="907.178" xlink:href="#DejaVuSans-105"/><use x="934.961" xlink:href="#DejaVuSans-116"/><use x="974.17" xlink:href="#DejaVuSans-105"/><use x="1001.953" xlink:href="#DejaVuSans-111"/><use x="1063.135" xlink:href="#DejaVuSans-110"/><use x="1126.514" xlink:href="#DejaVuSans-32"/><use x="1158.301" xlink:href="#DejaVuSans-110"/><use x="1221.68" xlink:href="#DejaVuSans-117"/><use x="1285.059" xlink:href="#DejaVuSans-109"/><use x="1382.471" xlink:href="#DejaVuSans-98"/><use x="1445.947" xlink:href="#DejaVuSans-101"/><use x="1507.471" xlink:href="#DejaVuSans-114"/></g></g><g id="legend_1"><path d="M46.65 74.353h120.978q2 0 2-2V29.318q0-2-2-2H46.65q-2 0-2 2v43.035q0 2 2 2z" fill="#fff" opacity=".8" stroke="#ccc" id="patch_7"/><path d="M48.65 35.417h20" fill="none" stroke="#1f77b4" stroke-linecap="square" stroke-width="1.5" id="line2d_36"/><use x="58.65" xlink:href="#mf973c99b57" y="35.417" fill="#1f77b4" stroke="#1f77b4" id="line2d_37"/><g id="text_19"><defs><path d="M45.406 27.984q0 9.766-4.031 15.125-4.016 5.375-11.297 5.375-7.219 0-11.25-5.375-4.031-5.359-4.031-15.125 0-9.718 4.031-15.093t11.25-5.375q7.281 0 11.297 5.375 4.031 5.375 4.031 15.093zm8.985-21.203q0-13.953-6.203-20.765Q42-20.797 29.203-20.797q-4.734 0-8.937.703-4.203.703-8.157 2.172v8.735q3.954-2.141 7.813-3.157 3.86-1.031 7.86-1.031 8.843 0 13.234 4.61 4.39 4.609 4.39 13.937v4.453q-2.781-4.844-7.125-7.234Q33.938 0 27.875 0 17.828 0 11.672 7.656q-6.156 7.672-6.156 20.328 0 12.688 6.156 20.344Q17.828 56 27.875 56q6.063 0 10.406-2.39 4.344-2.391 7.125-7.22v8.297h8.985z" id="DejaVuSans-103"/><path d="M54.89 33.016V0h-8.984v32.719q0 7.765-3.031 11.61-3.031 3.858-9.078 3.858-7.281 0-11.484-4.64-4.204-4.625-4.204-12.64V0H9.08v75.984h9.03V46.188q3.235 4.937 7.594 7.374Q30.078 56 35.797 56q9.422 0 14.25-5.828 4.844-5.828 4.844-17.156z" id="DejaVuSans-104"/></defs><g transform="matrix(.1 0 0 -.1 76.65 38.917)"><use xlink:href="#DejaVuSans-103"/><use x="63.477" xlink:href="#DejaVuSans-109"/><use x="160.889" xlink:href="#DejaVuSans-115"/><use x="212.988" xlink:href="#DejaVuSans-104"/></g></g><path d="M48.65 50.095h20" fill="none" stroke="#ff7f0e" stroke-linecap="square" stroke-width="1.5" id="line2d_38"/><use x="58.65" xlink:href="#m471633971e" y="50.095" fill="#ff7f0e" stroke="#ff7f0e" id="line2d_39"/><g id="text_20"><defs><path d="M46 62.703V35.5h27.188v-8.297H46V0h-8.203v27.203H10.594V35.5h27.203v27.203z" id="DejaVuSans-43"/></defs><g transform="matrix(.1 0 0 -.1 76.65 53.595)"><use xlink:href="#DejaVuSans-103"/><use x="63.477" xlink:href="#DejaVuSans-109"/><use x="160.889" xlink:href="#DejaVuSans-115"/><use x="212.988" xlink:href="#DejaVuSans-104"/><use x="276.367" xlink:href="#DejaVuSans-32"/><use x="308.154" xlink:href="#DejaVuSans-43"/><use x="391.943" xlink:href="#DejaVuSans-32"/><use x="423.73" xlink:href="#DejaVuSans-111"/><use x="484.912" xlink:href="#DejaVuSans-112"/><use x="548.389" xlink:href="#DejaVuSans-116"/><use x="587.598" xlink:href="#DejaVuSans-105"/><use x="615.381" xlink:href="#DejaVuSans-109"/><use x="712.793" xlink:href="#DejaVuSans-101"/><use x="774.316" xlink:href="#DejaVuSans-115"/><use x="826.416" xlink:href="#DejaVuSans-104"/></g></g><path d="M48.65 64.773h20" fill="none" stroke="#2ca02c" stroke-linecap="square" stroke-width="1.5" id="line2d_40"/><use x="58.65" xlink:href="#mc9b37e883a" y="64.773" fill="#2ca02c" stroke="#2ca02c" id="line2d_41"/><g transform="matrix(.1 0 0 -.1 76.65 68.273)" id="text_21"><use xlink:href="#DejaVuSans-100"/><use x="63.477" xlink:href="#DejaVuSans-109"/><use x="160.889" xlink:href="#DejaVuSans-115"/><use x="212.988" xlink:href="#DejaVuSans-104"/></g></g></g></g><defs><clipPath id="p8c3a2f76b8"><path d="M39.65 22.318h357.12V288.43H39.65z"/></clipPath></defs></svg>