<svg xmlns="http://www.w3.org/2000/svg" viewBox="-5 0 68.906 9.451" width="68.906" height="9.451"><path fill="#ffd23b" stroke="#000" stroke-width=".433" stroke-linejoin="bevel" d="M4.203 2.451H1.627l1.288 2.231zM5.49 4.682l-1.287-2.23-1.288 2.23zM2.915.22l1.288 2.231H1.627zM.339.22-.95 2.452h2.576z" style="stroke:#4d4d4d;stroke-opacity:1"/><path fill="#ffd23b" stroke="#000" stroke-width=".433" stroke-linejoin="bevel" d="M2.915.22H.339l1.288 2.231z" style="stroke:#4d4d4d;stroke-opacity:1"/><path fill="#ffd23b" stroke="#000" stroke-width=".433" stroke-linejoin="bevel" d="M-2.237.22H.34L-.95 2.452z" style="stroke:#4d4d4d;stroke-opacity:1"/><path fill="#ffd23b" stroke="#000" stroke-width=".433" stroke-linejoin="bevel" d="m-3.525 2.451 1.288 2.231 1.288-2.23zM-2.237.22l-1.288 2.231h2.576z" style="stroke:#4d4d4d;stroke-opacity:1"/><path fill="#ffd23b" stroke="#000" stroke-width=".433" stroke-linejoin="bevel" d="m-4.813 4.682 1.288-2.23 1.288 2.23zM-3.525 6.913h2.576l-1.288-2.23zM-4.813 4.682l1.288 2.23 1.288-2.23zM-2.237 9.143l-1.288-2.23h2.576z" style="stroke:#4d4d4d;stroke-opacity:1"/><path fill="#ffd23b" stroke="#000" stroke-width=".433" stroke-linejoin="bevel" d="m.339 9.143 1.288-2.23H-.95z" style="stroke:#4d4d4d;stroke-opacity:1"/><path fill="#ffd23b" stroke="#000" stroke-width=".433" stroke-linejoin="bevel" d="M-2.237 9.143H.34l-1.29-2.23z" style="stroke:#4d4d4d;stroke-opacity:1"/><path fill="#ffd23b" stroke="#000" stroke-width=".433" stroke-linejoin="bevel" d="M2.915 9.143H.339l1.288-2.23zM4.203 6.913l-1.288-2.23-1.288 2.23z" style="stroke:#4d4d4d;stroke-opacity:1"/><path fill="#ffd23b" stroke="#000" stroke-width=".433" stroke-linejoin="bevel" d="m2.915 9.143 1.288-2.23H1.627zM5.49 4.682l-1.287 2.23-1.288-2.23z" style="stroke:#4d4d4d;stroke-opacity:1"/><path d="M10.402 3.644a.723.723 0 0 1-.438.15H8.651v-1.46h1.313a.72.72 0 0 1 .438.15.726.726 0 0 1 0 1.16zm0-3.637V0H6.025v9.337h2.626v-3.21h1.751V6.12a3.061 3.061 0 0 0 2.918-3.056A3.061 3.061 0 0 0 10.402.007M21.933.063h-8.17v2.334h2.918V9.4h2.626V2.397h2.626V.063M25.653 9.392h-2.626V.055h2.626v9.337M37.286 9.437h-9.92V.099l4.96 3.794 4.96-3.794v9.338M46.443 2.448V.114h-7.587v9.337h7.586V7.117h-4.96V5.95h4.377V3.615h-4.377V2.448h4.96M54.442 4.739c-.692-.709-1.576-.875-3.035-1.167-.632-.126-1.167-.327-1.167-.73 0-.402.522-.73 1.167-.73s1.167.328 1.167.73h2.621C55.097 1.3 53.438.07 51.407.07c-2.095 0-3.793 1.307-3.793 2.918 0 .657.282 1.263.758 1.751.692.709 1.868.875 3.035 1.167.625.157 1.167.327 1.167.73 0 .402-.522.73-1.167.73s-1.167-.328-1.167-.73c0-.05.008-.1.023-.146h-2.65c0 1.611 1.7 2.918 3.794 2.918 2.095 0 3.793-1.307 3.793-2.918 0-.657-.282-1.263-.758-1.751M61.28.034v3.501h-2.334V.034H56.32V9.37h2.626v-3.5h2.334v3.5h2.626V.035H61.28" style="fill:#4d4d4d"/></svg>