<svg xmlns="http://www.w3.org/2000/svg" viewBox="-5 0 68.906 9.451" id="svg52" width="68.906" height="9.451"><style id="style2">polygon{fill:none;stroke:#000;stroke-width:2%}</style><path id="polygon4" fill="#ffd23b" stroke="#000" stroke-width=".432726" stroke-linejoin="bevel" d="M4.203 2.451H1.627l1.288 2.231z"/><path id="polygon8" fill="#ffd23b" stroke="#000" stroke-width=".432726" stroke-linejoin="bevel" d="M5.49 4.682l-1.287-2.23-1.288 2.23z"/><path id="polygon10" fill="#ffd23b" stroke="#000" stroke-width=".432726" stroke-linejoin="bevel" d="M2.915.22l1.288 2.231H1.627z"/><path id="polygon12" fill="#ffd23b" stroke="#000" stroke-width=".432726" stroke-linejoin="bevel" d="M.339.22L-.95 2.452h2.576z"/><path id="polygon16" fill="#ffd23b" stroke="#000" stroke-width=".432726" stroke-linejoin="bevel" d="M2.915.22H.339l1.288 2.231z"/><path id="polygon18" fill="#ffd23b" stroke="#000" stroke-width=".432726" stroke-linejoin="bevel" d="M-2.237.22H.34L-.95 2.452z"/><path id="polygon20" fill="#ffd23b" stroke="#000" stroke-width=".432726" stroke-linejoin="bevel" d="M-3.525 2.451l1.288 2.231 1.288-2.23z"/><path id="polygon24" fill="#ffd23b" stroke="#000" stroke-width=".432726" stroke-linejoin="bevel" d="M-2.237.22l-1.288 2.231h2.576z"/><path id="polygon26" fill="#ffd23b" stroke="#000" stroke-width=".432726" stroke-linejoin="bevel" d="M-4.813 4.682l1.288-2.23 1.288 2.23z"/><path id="polygon28" fill="#ffd23b" stroke="#000" stroke-width=".432726" stroke-linejoin="bevel" d="M-3.525 6.913h2.576l-1.288-2.23z"/><path id="polygon32" fill="#ffd23b" stroke="#000" stroke-width=".432726" stroke-linejoin="bevel" d="M-4.813 4.682l1.288 2.23 1.288-2.23z"/><path id="polygon34" fill="#ffd23b" stroke="#000" stroke-width=".432726" stroke-linejoin="bevel" d="M-2.237 9.143l-1.288-2.23h2.576z"/><path id="polygon36" fill="#ffd23b" stroke="#000" stroke-width=".432726" stroke-linejoin="bevel" d="M.339 9.143l1.288-2.23H-.95z"/><path id="polygon40" fill="#ffd23b" stroke="#000" stroke-width=".432726" stroke-linejoin="bevel" d="M-2.237 9.143H.34L-.95 6.913z"/><path id="polygon42" fill="#ffd23b" stroke="#000" stroke-width=".432726" stroke-linejoin="bevel" d="M2.915 9.143H.339l1.288-2.23z"/><path id="polygon44" fill="#ffd23b" stroke="#000" stroke-width=".432726" stroke-linejoin="bevel" d="M4.203 6.913l-1.288-2.23-1.288 2.23z"/><path id="polygon48" fill="#ffd23b" stroke="#000" stroke-width=".432726" stroke-linejoin="bevel" d="M2.915 9.143l1.288-2.23H1.627z"/><path id="polygon50" fill="#ffd23b" stroke="#000" stroke-width=".432726" stroke-linejoin="bevel" d="M5.49 4.682l-1.287 2.23-1.288-2.23z"/><flowRoot xml:space="preserve" id="flowRoot930" style="line-height:0%;-inkscape-font-specification:'Commando Bold'" transform="translate(-4.661 .352)" font-style="normal" font-variant="normal" font-weight="700" font-stretch="normal" font-size="5.333" font-family="Commando" letter-spacing="0" word-spacing="0" fill="#000" fill-opacity="1" stroke="none" stroke-width="1" stroke-linecap="butt" stroke-linejoin="miter" stroke-opacity="1"><flowRegion id="flowRegion932"><path id="rect934" d="M11.844-2.403h7.875v6.438h-7.875z"/></flowRegion><flowPara id="flowPara936"/></flowRoot><path d="M10.402 3.644a.723.723 0 0 1-.438.15H8.651v-1.46h1.313c.165 0 .316.057.438.15a.726.726 0 0 1 0 1.16zm0-3.637V0H6.025v9.337h2.626v-3.21h1.751V6.12a3.061 3.061 0 0 0 2.918-3.056A3.061 3.061 0 0 0 10.402.007" id="path1125" stroke-width=".015"/><path d="M21.933.063h-8.17v2.334h2.918V9.4h2.626V2.397h2.626V.063" id="path1133" stroke-width=".015"/><path d="M25.653 9.392h-2.626V.055h2.626v9.337" id="path1161" stroke-width=".015"/><path d="M37.286 9.437h-9.92V.099l4.96 3.794 4.96-3.794v9.338" id="path1119" stroke-width=".015"/><path d="M46.443 2.448V.114h-7.587v9.337h7.586V7.117h-4.96V5.95h4.377V3.615h-4.377V2.448h4.96" id="path1103" stroke-width=".015"/><path d="M54.442 4.739c-.692-.709-1.576-.875-3.035-1.167-.632-.126-1.167-.327-1.167-.73 0-.402.522-.73 1.167-.73s1.167.328 1.167.73h2.621C55.097 1.3 53.438.07 51.407.07c-2.095 0-3.793 1.307-3.793 2.918 0 .657.282 1.263.758 1.751.692.709 1.868.875 3.035 1.167.625.157 1.167.327 1.167.73 0 .402-.522.73-1.167.73s-1.167-.328-1.167-.73c0-.05.008-.1.023-.146h-2.65c0 1.611 1.7 2.918 3.794 2.918 2.095 0 3.793-1.307 3.793-2.918 0-.657-.282-1.263-.758-1.751" id="path1131" stroke-width=".015"/><path d="M61.28.034v3.501h-2.334V.034H56.32V9.37h2.626V5.87h2.334v3.5h2.626V.035H61.28" id="path1109" stroke-width=".015"/></svg>